<svg width="32" height="32" viewBox="0 0 32 32" fill="none" xmlns="http://www.w3.org/2000/svg">
<g clip-path="url(#clip0_8628_3355)">
<rect width="32" height="32" rx="16" fill="#F8FAFC"/>
<mask id="mask0_8628_3355" style="mask-type:luminance" maskUnits="userSpaceOnUse" x="8" y="2" width="62" height="28">
<path d="M69.6216 2.74414H8V29.2558H69.6216V2.74414Z" fill="white"/>
</mask>
<g mask="url(#mask0_8628_3355)">
<path d="M12.5454 2.82953C12.5454 2.82953 13.5028 3.88772 13.5028 6.3521C13.5028 9.84627 9.63772 12.6089 9.63772 16.1741C9.63772 20.4779 12.1412 21.8273 12.1412 23.6596C12.1412 24.5118 11.8929 24.8527 11.8929 24.8527C11.8929 24.8527 8.01367 21.5858 8.01367 17.1613C8.01367 13.1558 10.5313 10.9755 11.6589 9.29942C12.4958 8.07788 12.5383 7.81511 12.4532 7.65176C12.4532 7.65176 12.127 7.11912 12.127 6.3237C12.127 5.52828 12.6589 4.40616 12.6589 3.74568C12.6731 3.15622 12.5525 2.82953 12.5525 2.82953" fill="#A71E35"/>
</g>
<mask id="mask1_8628_3355" style="mask-type:luminance" maskUnits="userSpaceOnUse" x="8" y="2" width="62" height="28">
<path d="M69.6216 2.74414H8V29.2558H69.6216V2.74414Z" fill="white"/>
</mask>
<g mask="url(#mask1_8628_3355)">
<path d="M21.078 10.4001C20.8581 10.0592 19.0355 9.5763 18.4327 9.53369L18.2412 10.4498C18.2412 10.4498 18.8582 10.5564 19.6809 10.9825C20.7092 11.5293 20.9007 11.9697 20.9007 11.9697C20.9007 11.9697 21.2978 10.8049 21.078 10.4072" fill="#A71E35"/>
</g>
<mask id="mask2_8628_3355" style="mask-type:luminance" maskUnits="userSpaceOnUse" x="8" y="2" width="62" height="28">
<path d="M69.6216 2.74414H8V29.2558H69.6216V2.74414Z" fill="white"/>
</mask>
<g mask="url(#mask2_8628_3355)">
<path d="M20.4899 24.7321C20.4899 24.7321 20.8019 23.7591 20.7381 22.8785C20.6317 21.0675 19.7949 20.3005 17.7524 18.1983C16.6461 17.062 17.0787 15.6913 17.0787 15.6913C17.0787 15.6913 15.5043 15.1018 15.8163 13.8661C15.9936 13.1275 16.8163 13.0565 17.5397 12.9642C19.4403 12.7582 19.5112 11.9628 19.6743 11.5651C19.6743 11.5651 20.6743 12.1261 20.4261 12.9357C20.1779 13.7454 19.3552 13.7454 18.9722 13.717C18.49 13.6743 17.0007 13.3761 16.795 14.0294C16.6035 14.6331 17.2985 15.2226 18.4829 15.5493C20.2346 16.0038 20.9083 15.4143 20.9083 15.4143C20.9083 15.4143 20.88 16.0748 20.5963 16.3305C20.2842 16.6075 19.5963 16.5364 19.5963 16.5364C19.5963 16.5364 19.1424 17.1259 20.1991 17.8503C20.9367 18.3545 22.4969 18.8943 22.4969 20.897C22.5253 23.1626 20.497 24.7392 20.497 24.7392" fill="#A71E35"/>
</g>
<mask id="mask3_8628_3355" style="mask-type:luminance" maskUnits="userSpaceOnUse" x="8" y="2" width="62" height="28">
<path d="M69.5082 2.82947H8V29.2346H69.5082V2.82947Z" fill="white"/>
</mask>
<g mask="url(#mask3_8628_3355)">
<mask id="mask4_8628_3355" style="mask-type:luminance" maskUnits="userSpaceOnUse" x="8" y="2" width="62" height="28">
<path d="M69.6216 2.74408H8V29.2557H69.6216V2.74408Z" fill="white"/>
</mask>
<g mask="url(#mask4_8628_3355)">
<path d="M17.3398 14.7037C17.3398 14.7037 17.7512 14.171 18.5738 14.2349C19.5171 14.306 20.1199 14.306 20.7794 14.1497C22.0276 13.823 22.5028 13.1625 22.5028 13.1625C22.5028 13.1625 22.0489 14.2207 20.9993 14.725C20.4957 14.9735 19.7511 15.0659 18.9284 14.8315C17.6377 14.4622 17.3398 14.7108 17.3398 14.7108" fill="#A71E35"/>
</g>
<mask id="mask5_8628_3355" style="mask-type:luminance" maskUnits="userSpaceOnUse" x="8" y="2" width="62" height="28">
<path d="M69.6216 2.74408H8V29.2557H69.6216V2.74408Z" fill="white"/>
</mask>
<g mask="url(#mask5_8628_3355)">
<path d="M17.8708 10.8616C18.3744 10.9326 18.9914 11.1741 19.2254 11.3019C19.2254 11.3019 19.197 11.8346 18.7219 12.1258C18.2538 12.4169 17.6013 12.4524 16.9702 12.5519C16.2184 12.6584 15.4879 13.0064 15.339 13.6882C14.9844 15.2222 16.5588 15.9892 16.5588 15.9892C16.5588 15.9892 16.2042 17.3031 17.502 18.6241C19.4169 20.57 20.2395 21.3796 20.2395 23.0699C20.2395 26.3226 16.7999 29.2557 16.7999 29.2557C16.7999 29.2557 18.58 27.0754 18.58 24.469C18.58 22.1395 17.2893 21.5643 16.3177 20.7262C15.495 20.016 14.8355 19.107 14.7433 17.1753C14.5802 18.1624 14.0554 18.5885 14.0554 19.6822C14.0554 20.4919 14.332 21.0529 14.332 21.0529C14.332 21.0529 12.4526 19.8882 12.4526 17.7221C12.4526 16.2662 13.4384 14.8955 13.4384 13.8799C13.1263 14.9381 11.6725 16.0176 11.6725 18.0346C11.6725 19.7888 12.4668 20.8896 12.4668 20.8896C12.4668 20.8896 10.2754 19.2561 10.2754 16.2236C10.2754 13.468 12.7788 10.9965 12.7788 10.9965C12.7788 10.9965 12.6157 9.30627 13.6157 9.30627C14.2185 9.30627 14.3816 9.81051 14.3816 9.81051C14.3816 9.81051 15.9986 9.20685 17.9701 9.48382L17.807 10.3503L17.424 10.3077C17.424 10.3077 17.4524 10.471 17.4524 10.5704C17.4524 10.9113 17.1758 11.1883 16.8354 11.1883C16.495 11.1883 16.2184 10.9113 16.2184 10.5704C16.2184 10.4355 16.261 10.3219 16.339 10.2153C15.6156 10.1869 14.1759 10.4071 14.1759 10.4781C14.1759 10.5207 15.1759 10.4923 15.7362 10.5846C15.7362 11.2025 16.2184 11.6925 16.8425 11.6925C17.346 11.6925 17.7715 11.3516 17.885 10.8687" fill="#A71E35"/>
</g>
</g>
<mask id="mask6_8628_3355" style="mask-type:luminance" maskUnits="userSpaceOnUse" x="8" y="2" width="62" height="28">
<path d="M69.6216 2.74414H8V29.2558H69.6216V2.74414Z" fill="white"/>
</mask>
<g mask="url(#mask6_8628_3355)">
<path d="M14.6454 23.4396C14.6454 23.2478 14.8086 23.0845 15.0142 23.0845C15.2057 23.0845 15.3688 23.2478 15.3688 23.4538C15.3688 23.6455 15.2057 23.8089 15 23.8089C14.7944 23.7947 14.6454 23.6313 14.6454 23.4396ZM13.1136 25.9608C13.1136 25.9608 13.376 25.7548 13.6455 25.6696C13.915 25.5844 14.1916 25.4778 14.3689 25.2577C14.5462 25.0375 14.6454 24.7108 14.6951 24.5191C14.7447 24.3273 14.7518 24.1356 14.9859 24.1072C15.2199 24.1498 15.2483 24.3415 15.2766 24.5333C15.305 24.725 15.4114 25.0517 15.5674 25.2861C15.7234 25.5205 16.0071 25.627 16.2766 25.7264C16.5461 25.8258 16.8085 26.0389 16.8085 26.0389C16.8085 26.0389 16.7021 25.7122 16.7021 25.4352C16.6879 25.1583 16.6879 24.86 16.5248 24.6256C16.3617 24.3912 16.0993 24.1853 15.922 24.093C15.7589 24.0077 15.5816 23.9154 15.6312 23.6811C15.7518 23.4609 15.922 23.5177 16.1135 23.5461C16.305 23.5745 16.6454 23.5745 16.9219 23.4893C17.1985 23.4041 17.3758 23.1626 17.5531 22.9566C17.7304 22.7365 18.007 22.5447 18.007 22.5447C18.007 22.5447 17.6524 22.5305 17.39 22.4595C17.1276 22.3885 16.8298 22.282 16.5674 22.3743C16.2908 22.4595 16.0071 22.6513 15.8794 22.772C15.7305 22.9069 15.617 23.0348 15.3972 22.9353C15.2199 22.7578 15.3405 22.5945 15.4114 22.4169C15.4965 22.2394 15.6029 21.9127 15.6029 21.6357C15.6029 21.3587 15.4397 21.103 15.2908 20.8687C15.1419 20.6343 15.0426 20.3076 15.0426 20.3076C15.0426 20.3076 14.9362 20.6343 14.7802 20.8687C14.6171 21.103 14.4398 21.3374 14.4398 21.6215C14.4398 21.9056 14.5249 22.2394 14.6171 22.4027C14.688 22.5802 14.7944 22.7436 14.6171 22.9211C14.3972 23.0277 14.2767 22.8785 14.149 22.7436C14.0214 22.6087 13.7377 22.4027 13.4753 22.3175C13.2129 22.2322 12.915 22.3033 12.6526 22.3743C12.3902 22.4453 12.0498 22.4311 12.0498 22.4311C12.0498 22.4311 12.3122 22.6513 12.4753 22.8572C12.6526 23.0774 12.8299 23.3117 13.0923 23.4183C13.3547 23.5035 13.6951 23.5248 13.8866 23.5035C14.0781 23.4893 14.2696 23.4467 14.3689 23.6668C14.3972 23.9012 14.2199 23.9793 14.0568 24.0646C13.8937 24.1498 13.6171 24.3557 13.4398 24.583C13.2625 24.8103 13.2625 25.1156 13.2342 25.3926C13.22 25.6412 13.1136 25.9679 13.1136 25.9679" fill="#A71E35"/>
</g>
<mask id="mask7_8628_3355" style="mask-type:luminance" maskUnits="userSpaceOnUse" x="8" y="2" width="62" height="28">
<path d="M69.6216 2.74414H8V29.2558H69.6216V2.74414Z" fill="white"/>
</mask>
<g mask="url(#mask7_8628_3355)">
<path d="M22.2046 16.6495C22.2046 16.4862 22.3393 16.337 22.5166 16.337C22.6797 16.337 22.8286 16.472 22.8286 16.6495C22.8286 16.8129 22.6939 16.962 22.5166 16.962C22.3535 16.9478 22.2046 16.8129 22.2046 16.6495ZM23.6442 15.8825C23.6017 15.8967 23.5591 15.9109 23.5095 15.9109C23.3464 15.9109 23.1974 15.776 23.1974 15.5984C23.1974 15.4351 23.3322 15.2859 23.5095 15.2859L23.5662 15.2717C23.4811 14.7533 23.3322 14.2703 23.1407 13.7874C23.1407 13.9224 23.0981 14.0999 22.9776 14.1993C22.7294 14.4053 22.2258 14.7036 22.623 15.2575C22.8428 15.57 22.8145 15.6694 22.7081 15.7618C22.5591 15.8967 22.396 15.7618 22.2258 15.5842C21.9351 15.3072 21.7223 15.2433 21.4741 15.4209C21.1833 15.6268 21.2542 15.9038 21.311 16.1453C21.3819 16.3796 21.3819 16.408 21.3961 16.5998C21.3819 16.7915 21.3819 16.82 21.311 17.0543C21.2401 17.2887 21.162 17.5728 21.4741 17.7787C21.7223 17.9421 21.928 17.8852 22.2258 17.6154C22.4173 17.4378 22.5804 17.3242 22.7081 17.4378C22.8286 17.5444 22.8428 17.6438 22.623 17.9563C22.2258 18.5173 22.7294 18.8085 22.9776 19.0145C23.0981 19.121 23.1407 19.2914 23.1407 19.4264C23.3322 18.9434 23.4811 18.4534 23.5662 17.9208H23.5095C23.3464 17.9208 23.1974 17.7858 23.1974 17.6083C23.1974 17.4449 23.3322 17.2958 23.5095 17.2958C23.552 17.2958 23.6158 17.31 23.6442 17.3242L23.6584 16.9549C23.6158 16.9691 23.552 16.9833 23.4953 16.9833C23.2754 16.9833 23.0981 16.8057 23.0981 16.5856C23.0981 16.3654 23.2754 16.1879 23.4953 16.1879C23.552 16.1879 23.6158 16.2021 23.6584 16.2163L23.6442 15.8612V15.8825Z" fill="#A71E35"/>
</g>
</g>
<rect x="0.25" y="0.25" width="31.5" height="31.5" rx="15.75" stroke="#EDF2F2" stroke-width="0.5"/>
<defs>
<clipPath id="clip0_8628_3355">
<rect width="32" height="32" rx="16" fill="white"/>
</clipPath>
</defs>
</svg>
