<svg width="50" height="50" viewBox="0 0 50 50" fill="none" xmlns="http://www.w3.org/2000/svg">
<rect width="50" height="50" rx="25" fill="#E6EFEF"/>
<path d="M28.7917 26.0833C32.6807 26.0833 35.8333 25.1133 35.8333 23.9167C35.8333 22.72 32.6807 21.75 28.7917 21.75C24.9027 21.75 21.75 22.72 21.75 23.9167C21.75 25.1133 24.9027 26.0833 28.7917 26.0833Z" stroke="#045D5E" stroke-width="1.5"/>
<path d="M35.8333 28.7915C35.8333 29.9882 32.6807 30.9582 28.7917 30.9582C24.9026 30.9582 21.75 29.9882 21.75 28.7915" stroke="#045D5E" stroke-width="1.5"/>
<path d="M35.8333 23.9165V33.4498C35.8333 34.7661 32.6807 35.8332 28.7917 35.8332C24.9026 35.8332 21.75 34.7661 21.75 33.4498V23.9165" stroke="#045D5E" stroke-width="1.5"/>
<path d="M21.2087 18.4998C25.0977 18.4998 28.2503 17.5298 28.2503 16.3332C28.2503 15.1366 25.0977 14.1665 21.2087 14.1665C17.3197 14.1665 14.167 15.1366 14.167 16.3332C14.167 17.5298 17.3197 18.4998 21.2087 18.4998Z" stroke="#045D5E" stroke-width="1.5"/>
<path d="M18.5003 23.9167C16.4509 23.6673 14.5677 23.0224 14.167 21.75M18.5003 29.3333C16.4509 29.084 14.5677 28.439 14.167 27.1667" stroke="#045D5E" stroke-width="1.5" stroke-linecap="round"/>
<path d="M18.5003 34.7502C16.4509 34.5008 14.5677 33.8559 14.167 32.5835V16.3335" stroke="#045D5E" stroke-width="1.5" stroke-linecap="round"/>
<path d="M28.25 18.5002V16.3335" stroke="#045D5E" stroke-width="1.5" stroke-linecap="round"/>
</svg>
