<svg width="33" height="33" viewBox="0 0 33 33" fill="none" xmlns="http://www.w3.org/2000/svg">
<rect x="0.5" y="0.501465" width="32" height="32" rx="16" fill="#076461"/>
<g clip-path="url(#clip0_10350_14863)">
<path fill-rule="evenodd" clip-rule="evenodd" d="M23.6908 9.87871C21.9459 8.13165 19.6253 7.16904 17.1528 7.16815C12.0579 7.16815 7.91136 11.3142 7.90959 16.4105C7.9087 18.0396 8.33461 19.6298 9.14344 21.0312L7.83203 25.8212L12.732 24.5359C14.0819 25.2726 15.6021 25.6603 17.1488 25.6608H17.1528C22.2468 25.6608 26.3938 21.5143 26.3956 16.418C26.3964 13.9481 25.436 11.6262 23.6908 9.87916V9.87871ZM17.1528 24.0998H17.1497C15.7713 24.0994 14.4192 23.7289 13.2394 23.0291L12.9589 22.8625L10.0511 23.6252L10.8271 20.7901L10.6445 20.4993C9.87559 19.2762 9.46918 17.8623 9.47007 16.4109C9.47184 12.1753 12.9181 8.72907 17.1559 8.72907C19.2079 8.72996 21.1367 9.52992 22.5872 10.9823C24.0378 12.4342 24.836 14.3647 24.8351 16.4171C24.8333 20.6532 21.3871 24.0994 17.1528 24.0994V24.0998ZM21.3667 18.3463C21.1357 18.2307 20.0003 17.6722 19.7884 17.5951C19.5766 17.518 19.4228 17.4795 19.269 17.7108C19.1153 17.9422 18.6725 18.4625 18.5378 18.6162C18.403 18.7705 18.2683 18.7895 18.0374 18.6738C17.8065 18.5582 17.0624 18.3144 16.18 17.5277C15.4935 16.9152 15.0299 16.1592 14.8952 15.9278C14.7605 15.6965 14.881 15.5715 14.9962 15.4567C15.0999 15.353 15.2271 15.1868 15.3428 15.0521C15.4585 14.9173 15.4966 14.8208 15.5737 14.6669C15.6508 14.5127 15.6123 14.378 15.5547 14.2623C15.497 14.1466 15.0352 13.0098 14.8424 12.5476C14.655 12.0973 14.4644 12.1585 14.323 12.151C14.1883 12.1443 14.0345 12.143 13.8803 12.143C13.7261 12.143 13.4761 12.2006 13.2642 12.4319C13.0524 12.6633 12.4559 13.2221 12.4559 14.3585C12.4559 15.4948 13.2833 16.5935 13.399 16.7478C13.5146 16.902 15.0277 19.2345 17.3442 20.2352C17.8952 20.4732 18.3255 20.6155 18.661 20.7219C19.2141 20.8978 19.7175 20.873 20.1155 20.8136C20.5592 20.7471 21.4819 20.2547 21.6742 19.7153C21.8666 19.176 21.8666 18.7133 21.809 18.6171C21.7514 18.5209 21.5972 18.4629 21.3662 18.3472L21.3667 18.3463Z" fill="white"/>
</g>
<defs>
<clipPath id="clip0_10350_14863">
<rect width="18.5635" height="18.6667" fill="white" transform="translate(7.83203 7.16815)"/>
</clipPath>
</defs>
</svg>
