<svg width="49" height="48" viewBox="0 0 49 48" fill="none" xmlns="http://www.w3.org/2000/svg">
<g id="australia" clip-path="url(#clip0_10011_1374)">
<path id="Vector" d="M48.5 24C48.5 37.2547 37.7547 48 24.5 48C11.2452 48 0.5 37.2547 0.5 24C0.5 24.0056 24.5 0.00271875 24.5 0C37.7547 0 48.5 10.7452 48.5 24Z" fill="#0052B4"/>
<g id="Group">
<path id="Vector_2" d="M24.5001 0C24.4988 0 24.4974 0.000117188 24.4961 0.000117188L24.5001 0Z" fill="#F0F0F0"/>
<path id="Vector_3" d="M24.4355 24H24.4998C24.4998 23.9783 24.4998 23.9574 24.4998 23.9358C24.4784 23.9573 24.457 23.9786 24.4355 24Z" fill="#F0F0F0"/>
<path id="Vector_4" d="M24.5 12.5218C24.5 8.29887 24.5 5.53165 24.5 0.00012207H24.496C11.243 0.00227832 0.5 10.7465 0.5 24H13.0217V16.9489L20.0728 24H24.4359C24.4573 23.9787 24.4787 23.9573 24.5001 23.9358C24.5001 22.3189 24.5001 20.8762 24.5001 19.5731L17.4489 12.5218H24.5Z" fill="#F0F0F0"/>
</g>
<g id="Group_2">
<path id="Vector_5" d="M12.642 3.13043C8.88834 5.26784 5.76778 8.3884 3.63037 12.1421V24H9.89128V9.39143V9.39134H24.5C24.5 7.41668 24.5 5.53549 24.5 3.13043H12.642Z" fill="#D80027"/>
<path id="Vector_6" d="M24.5002 21.0487L15.9733 12.522H13.022C13.022 12.5219 13.022 12.522 13.022 12.522L24.5001 24H24.5002C24.5002 24 24.5002 21.9652 24.5002 21.0487Z" fill="#D80027"/>
</g>
<g id="Group_3">
<path id="Vector_7" d="M14.9746 28.174L16.2918 30.9281L19.2662 30.2407L17.9342 32.9877L20.3261 34.8846L17.348 35.5558L17.3563 38.6087L14.9746 36.6987L12.593 38.6087L12.6013 35.5558L9.62305 34.8846L12.0151 32.9877L10.6829 30.2407L13.6575 30.9281L14.9746 28.174Z" fill="#F0F0F0"/>
<path id="Vector_8" d="M36.433 33.3913L37.0916 34.7684L38.5789 34.4246L37.9128 35.7981L39.1089 36.7466L37.6197 37.0822L37.6239 38.6087L36.433 37.6536L35.2422 38.6087L35.2464 37.0822L33.7573 36.7466L34.9533 35.7981L34.2873 34.4246L35.7744 34.7684L36.433 33.3913Z" fill="#F0F0F0"/>
<path id="Vector_9" d="M30.3062 18.7827L30.9647 20.1598L32.4519 19.816L31.7859 21.1895L32.9819 22.138L31.4929 22.4736L31.4969 24L30.3062 23.045L29.1154 24L29.1194 22.4736L27.6304 22.138L28.8263 21.1895L28.1603 19.816L29.6476 20.1598L30.3062 18.7827Z" fill="#F0F0F0"/>
<path id="Vector_10" d="M36.433 10.4348L37.0916 11.8119L38.5789 11.4682L37.9129 12.8417L39.1088 13.7901L37.6197 14.1258L37.6239 15.6522L36.433 14.6972L35.2422 15.6522L35.2464 14.1258L33.7573 13.7901L34.9532 12.8417L34.2873 11.4682L35.7744 11.8119L36.433 10.4348Z" fill="#F0F0F0"/>
<path id="Vector_11" d="M41.7847 16.6957L42.4432 18.0729L43.9305 17.729L43.2645 19.1025L44.4604 20.051L42.9713 20.3867L42.9754 21.9131L41.7847 20.9581L40.5939 21.9131L40.5979 20.3867L39.1089 20.051L40.3049 19.1025L39.6389 17.729L41.126 18.0729L41.7847 16.6957Z" fill="#F0F0F0"/>
<path id="Vector_12" d="M37.9581 24L38.476 25.5943H40.1525L38.7962 26.5797L39.3144 28.1739L37.9581 27.1886L36.6019 28.1739L37.1199 26.5797L35.7637 25.5943H37.44L37.9581 24Z" fill="#F0F0F0"/>
</g>
</g>
<defs>
<clipPath id="clip0_10011_1374">
<rect width="48" height="48" fill="white" transform="translate(0.5)"/>
</clipPath>
</defs>
</svg>
