<svg width="16" height="16" viewBox="0 0 16 16" fill="none" xmlns="http://www.w3.org/2000/svg">
<path d="M1.42267 5.45429C1.22272 5.31147 1.12274 5.24005 1.03558 5.23078C0.905227 5.21692 0.774588 5.28415 0.710106 5.39828C0.666987 5.47459 0.666989 5.5961 0.666992 5.83912V10.1609C0.666984 10.6975 0.666977 11.1404 0.696455 11.5012C0.727072 11.8759 0.792782 12.2204 0.957642 12.544C1.2133 13.0457 1.62125 13.4537 2.12302 13.7094C2.44658 13.8742 2.79104 13.9399 3.16578 13.9705C3.52657 14 3.96947 14 4.50611 14H11.4945C12.0312 14 12.4741 14 12.8349 13.9705C13.2096 13.9399 13.5541 13.8742 13.8776 13.7094C14.3794 13.4537 14.7873 13.0457 15.043 12.544C15.2079 12.2204 15.2736 11.8759 15.3042 11.5012C15.3337 11.1404 15.3337 10.6975 15.3337 10.1609V5.83912C15.3337 5.72001 15.3337 5.66045 15.3228 5.61886C15.2734 5.43084 15.069 5.32374 14.8864 5.39021C14.8459 5.40491 14.7964 5.43924 14.6972 5.50789L9.53576 9.08129C9.1698 9.33544 8.84849 9.55859 8.48345 9.64707C8.16417 9.72446 7.83074 9.72201 7.51264 9.63993C7.14894 9.54609 6.83094 9.31824 6.46876 9.05874L1.42267 5.45429Z" fill="black"/>
<path d="M14.7555 3.84581C14.8786 3.76061 14.9401 3.71801 14.9779 3.64949C15.0073 3.59629 15.0241 3.51203 15.0173 3.45163C15.0087 3.37386 14.9756 3.32251 14.9095 3.21982C14.6563 2.82643 14.2919 2.5017 13.8776 2.29065C13.5541 2.12579 13.2096 2.06008 12.8349 2.02946C12.4741 1.99999 12.0312 1.99999 11.4945 2H4.50613C3.96948 1.99999 3.52657 1.99999 3.16578 2.02946C2.79104 2.06008 2.44658 2.12579 2.12302 2.29065C1.75033 2.48054 1.42819 2.75507 1.18324 3.0889C1.10617 3.19393 1.06764 3.24644 1.05494 3.32614C1.04501 3.38846 1.05888 3.47505 1.08777 3.53116C1.12471 3.60291 1.18879 3.64868 1.31694 3.74022L7.16702 7.91884C7.65183 8.26514 7.75471 8.32539 7.84575 8.34888C7.95179 8.37624 8.06293 8.37706 8.16936 8.35126C8.26074 8.32911 8.36449 8.27038 8.85434 7.93125L14.7555 3.84581Z" fill="black"/>
</svg>
