<svg width="13" height="20" viewBox="0 0 13 20" fill="none" xmlns="http://www.w3.org/2000/svg">
<path d="M4.02854 9.99701L11.9705 2.43601C12.2514 2.17562 12.411 1.80998 12.411 1.42701C12.411 1.04404 12.2514 0.678401 11.9705 0.418012C11.3717 -0.139012 10.4444 -0.139012 9.84554 0.418012L0.845537 8.98601C0.574374 9.23932 0.416828 9.59127 0.408547 9.96225C0.400265 10.3332 0.541948 10.6919 0.801537 10.957L9.83754 19.584C10.4367 20.1401 11.3633 20.1401 11.9625 19.584C12.2434 19.3236 12.403 18.958 12.403 18.575C12.403 18.192 12.2434 17.8264 11.9625 17.566L4.02854 9.99701Z" fill="#262B2E"/>
</svg>
