<svg width="25" height="24" viewBox="0 0 25 24" fill="none" xmlns="http://www.w3.org/2000/svg">
<g id="bell-02">
<g id="Solid">
<path fill-rule="evenodd" clip-rule="evenodd" d="M9.50023 21C9.50023 20.4477 9.94794 20 10.5002 20H14.5002C15.0525 20 15.5002 20.4477 15.5002 21C15.5002 21.5523 15.0525 22 14.5002 22H10.5002C9.94794 22 9.50023 21.5523 9.50023 21Z" fill="#045D5E"/>
<path fill-rule="evenodd" clip-rule="evenodd" d="M7.55048 3.05025C8.86323 1.7375 10.6437 1 12.5002 1C14.3567 1 16.1372 1.7375 17.45 3.05025C18.7627 4.36301 19.5002 6.14349 19.5002 8C19.5002 10.9127 20.2322 12.8439 20.9996 14.0771L21.0115 14.0962C21.3688 14.6704 21.6512 15.1243 21.8416 15.4547C21.9371 15.6202 22.024 15.7797 22.0884 15.9215C22.1205 15.9922 22.1564 16.079 22.1845 16.1733C22.2078 16.2515 22.2522 16.4187 22.2356 16.6223C22.2244 16.7591 22.1965 16.9928 22.0623 17.2343C21.9282 17.4758 21.7445 17.623 21.6342 17.7047C21.3839 17.8904 21.0965 17.9329 21.0006 17.947L20.9961 17.9477C20.8487 17.9695 20.6815 17.9804 20.5127 17.9869C20.1774 18 19.7133 18 19.1361 18H5.86437C5.28715 18 4.82301 18 4.48775 17.9869C4.319 17.9804 4.15172 17.9695 4.00431 17.9477L3.99988 17.947C3.90396 17.9329 3.61653 17.8904 3.36623 17.7047C3.25599 17.623 3.07227 17.4758 2.93811 17.2343C2.80396 16.9928 2.77607 16.7591 2.76488 16.6223C2.74823 16.4187 2.79263 16.2515 2.81594 16.1733C2.84403 16.079 2.87997 15.9922 2.9121 15.9215C2.97646 15.7797 3.0634 15.6202 3.15882 15.4547C3.34925 15.1243 3.63172 14.6703 3.98905 14.0961L4.00084 14.0771C4.76822 12.8439 5.50023 10.9127 5.50023 8C5.50023 6.14348 6.23772 4.36301 7.55048 3.05025Z" fill="#045D5E"/>
</g>
<circle id="Ellipse 5" cx="18.5" cy="5" r="3.5" fill="#FD8F33" stroke="white"/>
</g>
</svg>
