<svg width="28" height="28" viewBox="0 0 28 28" fill="none" xmlns="http://www.w3.org/2000/svg">
<circle cx="14" cy="14" r="13.5" stroke="#F5F5F5"/>
<g clip-path="url(#clip0_8651_6192)">
<path d="M14.0006 15.4008C14.7738 15.4008 15.4006 14.774 15.4006 14.0008C15.4006 13.2276 14.7738 12.6008 14.0006 12.6008C13.2274 12.6008 12.6006 13.2276 12.6006 14.0008C12.6006 14.774 13.2274 15.4008 14.0006 15.4008Z" fill="#3F3A57"/>
<path d="M14.0006 10.5009C14.7738 10.5009 15.4006 9.87406 15.4006 9.10087C15.4006 8.32767 14.7738 7.70087 14.0006 7.70087C13.2274 7.70087 12.6006 8.32767 12.6006 9.10087C12.6006 9.87406 13.2274 10.5009 14.0006 10.5009Z" fill="#3F3A57"/>
<path d="M14.0006 20.3008C14.7738 20.3008 15.4006 19.674 15.4006 18.9008C15.4006 18.1276 14.7738 17.5008 14.0006 17.5008C13.2274 17.5008 12.6006 18.1276 12.6006 18.9008C12.6006 19.674 13.2274 20.3008 14.0006 20.3008Z" fill="#3F3A57"/>
</g>
<defs>
<clipPath id="clip0_8651_6192">
<rect width="16.8" height="16.8" fill="white" transform="translate(5.60059 5.60083)"/>
</clipPath>
</defs>
</svg>
