<svg width="24" height="24" viewBox="0 0 24 24" fill="none" xmlns="http://www.w3.org/2000/svg">
<path fill-rule="evenodd" clip-rule="evenodd" d="M12.0001 2C8.96253 2 6.5001 4.46243 6.5001 7.5C6.5001 10.5376 8.96253 13 12.0001 13C15.0377 13 17.5001 10.5376 17.5001 7.5C17.5001 4.46243 15.0377 2 12.0001 2ZM12.0001 14C8.49897 14 5.3912 15.692 3.41824 18.3031L3.39137 18.3386L3.39136 18.3387C3.22172 18.563 3.03984 18.8035 2.90986 19.0356C2.75252 19.3165 2.63591 19.6414 2.64314 20.0366C2.64895 20.3542 2.7452 20.6516 2.86207 20.8864C2.97895 21.1212 3.15817 21.3772 3.40812 21.5734C3.74144 21.835 4.10435 21.9276 4.42674 21.9662C4.70958 22.0001 5.04477 22.0001 5.38177 22L5.42733 22H14.3316C14.235 21.6312 14.2708 21.2308 14.3466 20.9012L14.6413 19.6202C14.6405 19.611 14.6384 19.5971 14.6337 19.5809C14.6295 19.5662 14.6248 19.5547 14.6212 19.5473L13.5894 18.5098C13.1828 18.101 12.8568 17.4952 13.0644 16.8413C13.2731 16.1845 13.893 15.8791 14.464 15.7834L15.784 15.5629L15.7916 15.5586C15.7976 15.5549 15.8042 15.5506 15.8109 15.5456C15.8176 15.5406 15.8236 15.5356 15.8288 15.5309L15.8354 15.5245L16.1718 14.8481C14.8888 14.3021 13.4796 14 12.0001 14Z" fill="#045D5E"/>
<path d="M18.6911 14.5777L19.395 15.9972C19.491 16.1947 19.7469 16.3843 19.9629 16.4206L21.2388 16.6343C22.0547 16.7714 22.2467 17.3682 21.6587 17.957L20.6668 18.9571C20.4989 19.1265 20.4069 19.4531 20.4589 19.687L20.7428 20.925C20.9668 21.9049 20.4509 22.284 19.591 21.7718L18.3951 21.0581C18.1791 20.929 17.8232 20.929 17.6032 21.0581L16.4073 21.7718C15.5514 22.284 15.0315 21.9009 15.2554 20.925L15.5394 19.687C15.5914 19.4531 15.4994 19.1265 15.3314 18.9571L14.3395 17.957C13.7556 17.3682 13.9436 16.7714 14.7595 16.6343L16.0353 16.4206C16.2473 16.3843 16.5033 16.1947 16.5993 15.9972L17.3032 14.5777C17.6872 13.8074 18.3111 13.8074 18.6911 14.5777Z" fill="#045D5E"/>
</svg>
