<svg width="16" height="17" viewBox="0 0 16 17" fill="none" xmlns="http://www.w3.org/2000/svg">
<path fill-rule="evenodd" clip-rule="evenodd" d="M7.33306 13.8333C7.33306 13.4651 7.63154 13.1667 7.99973 13.1667H13.9997C14.3679 13.1667 14.6664 13.4651 14.6664 13.8333C14.6664 14.2015 14.3679 14.5 13.9997 14.5H7.99973C7.63154 14.5 7.33306 14.2015 7.33306 13.8333Z" fill="black"/>
<path fill-rule="evenodd" clip-rule="evenodd" d="M10.5284 2.36192C11.341 1.54928 12.6585 1.54928 13.4712 2.36192C14.2838 3.17455 14.2838 4.49209 13.4712 5.30473L5.096 13.6799C5.0828 13.6931 5.06973 13.7062 5.05675 13.7192C4.86512 13.9112 4.69616 14.0804 4.49247 14.2053C4.31353 14.3149 4.11844 14.3957 3.91437 14.4447C3.68207 14.5005 3.4429 14.5003 3.17164 14.5C3.15328 14.5 3.13477 14.5 3.1161 14.5H1.99974C1.63155 14.5 1.33308 14.2015 1.33308 13.8333V12.717C1.33308 12.6983 1.33306 12.6798 1.33304 12.6614C1.33279 12.3902 1.33257 12.151 1.38834 11.9187C1.43733 11.7146 1.51814 11.5196 1.6278 11.3406C1.75262 11.1369 1.92189 10.968 2.11388 10.7763C2.12688 10.7634 2.13998 10.7503 2.15318 10.7371L10.5284 2.36192Z" fill="black"/>
</svg>
