<svg width="25" height="24" viewBox="0 0 25 24" fill="none" xmlns="http://www.w3.org/2000/svg">
<g id="message-dots-circle">
<path id="Icon" d="M8.125 12H8.135M12.625 12H12.635M17.125 12H17.135M12.625 21C17.5956 21 21.625 16.9706 21.625 12C21.625 7.02944 17.5956 3 12.625 3C7.65444 3 3.625 7.02944 3.625 12C3.625 13.1971 3.85874 14.3397 4.28306 15.3845C4.36427 15.5845 4.40488 15.6845 4.423 15.7653C4.44072 15.8443 4.4472 15.9028 4.44721 15.9839C4.44722 16.0667 4.43218 16.1569 4.40211 16.3374L3.80913 19.8952C3.74703 20.2678 3.71598 20.4541 3.77376 20.5888C3.82433 20.7067 3.91828 20.8007 4.03618 20.8512C4.17089 20.909 4.35718 20.878 4.72976 20.8159L8.28765 20.2229C8.46809 20.1928 8.5583 20.1778 8.64113 20.1778C8.72215 20.1778 8.78066 20.1843 8.85972 20.202C8.94054 20.2201 9.04052 20.2607 9.24049 20.3419C10.2853 20.7663 11.4279 21 12.625 21ZM8.625 12C8.625 12.2761 8.40114 12.5 8.125 12.5C7.84886 12.5 7.625 12.2761 7.625 12C7.625 11.7239 7.84886 11.5 8.125 11.5C8.40114 11.5 8.625 11.7239 8.625 12ZM13.125 12C13.125 12.2761 12.9011 12.5 12.625 12.5C12.3489 12.5 12.125 12.2761 12.125 12C12.125 11.7239 12.3489 11.5 12.625 11.5C12.9011 11.5 13.125 11.7239 13.125 12ZM17.625 12C17.625 12.2761 17.4011 12.5 17.125 12.5C16.8489 12.5 16.625 12.2761 16.625 12C16.625 11.7239 16.8489 11.5 17.125 11.5C17.4011 11.5 17.625 11.7239 17.625 12Z" stroke="#045D5E" stroke-width="2" stroke-linecap="round" stroke-linejoin="round"/>
</g>
</svg>
