<svg width="75" height="32" viewBox="0 0 75 32" fill="none" xmlns="http://www.w3.org/2000/svg">
<g id="De Montfort University Leicester" clip-path="url(#clip0_10074_1335)">
<g id="Group 26745">
<g id="Group">
<g id="Clip path group">
<mask id="mask0_10074_1335" style="mask-type:luminance" maskUnits="userSpaceOnUse" x="0" y="0" width="75" height="32">
<g id="clippath">
<path id="Vector" d="M74.8784 0H0.5V32H74.8784V0Z" fill="white"/>
</g>
</mask>
<g mask="url(#mask0_10074_1335)">
<g id="Group_2">
<path id="Vector_2" d="M5.98697 0.103027C5.98697 0.103027 7.14258 1.38028 7.14258 4.35484C7.14258 8.57235 2.47734 11.9069 2.47734 16.2102C2.47734 21.4049 5.49905 23.0336 5.49905 25.2453C5.49905 26.2739 5.19944 26.6854 5.19944 26.6854C5.19944 26.6854 0.51709 22.7422 0.51709 17.4017C0.51709 12.567 3.55591 9.93533 4.91696 7.9123C5.92705 6.43788 5.97841 6.12071 5.87569 5.92355C5.87569 5.92355 5.48193 5.28063 5.48193 4.32055C5.48193 3.36046 6.12393 2.00605 6.12393 1.20884C6.14105 0.497348 5.99553 0.103027 5.99553 0.103027" fill="#A71E35"/>
</g>
</g>
</g>
<g id="Clip path group_2">
<mask id="mask1_10074_1335" style="mask-type:luminance" maskUnits="userSpaceOnUse" x="0" y="0" width="75" height="32">
<g id="clippath-1">
<path id="Vector_3" d="M74.8784 0H0.5V32H74.8784V0Z" fill="white"/>
</g>
</mask>
<g mask="url(#mask1_10074_1335)">
<g id="Group_3">
<path id="Vector_4" d="M16.2854 9.24094C16.02 8.82947 13.8201 8.24656 13.0925 8.19513L12.8613 9.30094C12.8613 9.30094 13.6061 9.42953 14.599 9.94386C15.8402 10.6039 16.0714 11.1354 16.0714 11.1354C16.0714 11.1354 16.5507 9.72955 16.2854 9.24951" fill="#A71E35"/>
</g>
</g>
</g>
<g id="Clip path group_3">
<mask id="mask2_10074_1335" style="mask-type:luminance" maskUnits="userSpaceOnUse" x="0" y="0" width="75" height="32">
<g id="clippath-2">
<path id="Vector_5" d="M74.8784 0H0.5V32H74.8784V0Z" fill="white"/>
</g>
</mask>
<g mask="url(#mask2_10074_1335)">
<g id="Group_4">
<path id="Vector_6" d="M15.5757 26.5398C15.5757 26.5398 15.9524 25.3654 15.8753 24.3025C15.7469 22.1166 14.7369 21.1908 12.2716 18.6534C10.9362 17.2819 11.4584 15.6274 11.4584 15.6274C11.4584 15.6274 9.55802 14.9159 9.93466 13.4244C10.1487 12.5329 11.1416 12.4471 12.0148 12.3357C14.3089 12.0871 14.3945 11.127 14.5913 10.647C14.5913 10.647 15.7983 11.3242 15.4987 12.3014C15.1991 13.2786 14.2061 13.2786 13.7439 13.2443C13.1618 13.1929 11.3642 12.8329 11.1159 13.6215C10.8848 14.3502 11.7237 15.0617 13.1532 15.456C15.2676 16.0046 16.0808 15.2931 16.0808 15.2931C16.0808 15.2931 16.0465 16.0903 15.7041 16.3989C15.3275 16.7332 14.4972 16.6475 14.4972 16.6475C14.4972 16.6475 13.9493 17.359 15.2248 18.2334C16.115 18.842 17.9982 19.4935 17.9982 21.9108C18.0325 24.6454 15.5843 26.5484 15.5843 26.5484" fill="#A71E35"/>
</g>
</g>
</g>
</g>
<g id="Clip path group_4">
<mask id="mask3_10074_1335" style="mask-type:luminance" maskUnits="userSpaceOnUse" x="0" y="0" width="75" height="32">
<g id="clippath-3">
<path id="Vector_7" d="M74.7414 0.102966H0.5V31.9744H74.7414V0.102966Z" fill="white"/>
</g>
</mask>
<g mask="url(#mask3_10074_1335)">
<g id="Group_5">
<g id="Group_6">
<g id="Clip path group_5">
<mask id="mask4_10074_1335" style="mask-type:luminance" maskUnits="userSpaceOnUse" x="0" y="0" width="75" height="32">
<g id="clippath-4">
<path id="Vector_8" d="M74.8784 -6.10352e-05H0.5V31.9999H74.8784V-6.10352e-05Z" fill="white"/>
</g>
</mask>
<g mask="url(#mask4_10074_1335)">
<g id="Group_7">
<path id="Vector_9" d="M11.7734 14.4353C11.7734 14.4353 12.2699 13.7924 13.2629 13.8695C14.4014 13.9553 15.129 13.9553 15.9251 13.7667C17.4316 13.3723 18.0052 12.5751 18.0052 12.5751C18.0052 12.5751 17.4573 13.8524 16.1904 14.461C15.5827 14.761 14.6839 14.8725 13.6909 14.5896C12.133 14.1438 11.7734 14.4439 11.7734 14.4439" fill="#A71E35"/>
</g>
</g>
</g>
<g id="Clip path group_6">
<mask id="mask5_10074_1335" style="mask-type:luminance" maskUnits="userSpaceOnUse" x="0" y="0" width="75" height="32">
<g id="clippath-5">
<path id="Vector_10" d="M74.8784 -6.10352e-05H0.5V31.9999H74.8784V-6.10352e-05Z" fill="white"/>
</g>
</mask>
<g mask="url(#mask5_10074_1335)">
<g id="Group_8">
<path id="Vector_11" d="M12.4144 9.79784C13.0222 9.88357 13.7669 10.175 14.0494 10.3293C14.0494 10.3293 14.0151 10.9722 13.4416 11.3237C12.8766 11.6752 12.0891 11.718 11.3273 11.838C10.4199 11.9666 9.53823 12.3866 9.35847 13.2096C8.93046 15.0612 10.8308 15.987 10.8308 15.987C10.8308 15.987 10.4028 17.5728 11.9693 19.1673C14.2805 21.516 15.2735 22.4933 15.2735 24.5334C15.2735 28.4595 11.1218 31.9998 11.1218 31.9998C11.1218 31.9998 13.2704 29.3682 13.2704 26.2222C13.2704 23.4105 11.7125 22.7161 10.5398 21.7046C9.54679 20.8474 8.7507 19.7502 8.63942 17.4185C8.44254 18.6101 7.80909 19.1244 7.80909 20.4445C7.80909 21.4217 8.14294 22.0989 8.14294 22.0989C8.14294 22.0989 5.87452 20.6931 5.87452 18.0786C5.87452 16.3213 7.06437 14.6668 7.06437 13.441C6.68773 14.7183 4.93291 16.0213 4.93291 18.4558C4.93291 20.5731 5.89164 21.9018 5.89164 21.9018C5.89164 21.9018 3.24658 19.9302 3.24658 16.2698C3.24658 12.9438 6.26828 9.96071 6.26828 9.96071C6.26828 9.96071 6.0714 7.92053 7.27837 7.92053C8.00598 7.92053 8.20286 8.52916 8.20286 8.52916C8.20286 8.52916 10.1546 7.80052 12.5342 8.13484L12.3374 9.18064L11.8751 9.12921C11.8751 9.12921 11.9094 9.32637 11.9094 9.44638C11.9094 9.85785 11.5755 10.1922 11.1646 10.1922C10.7538 10.1922 10.4199 9.85785 10.4199 9.44638C10.4199 9.28351 10.4713 9.14636 10.5654 9.01777C9.69231 8.98348 7.95462 9.24922 7.95462 9.33494C7.95462 9.38638 9.16158 9.35209 9.83783 9.46353C9.83783 10.2093 10.4199 10.8008 11.1732 10.8008C11.781 10.8008 12.2946 10.3893 12.4315 9.80641" fill="#A71E35"/>
</g>
</g>
</g>
</g>
</g>
</g>
</g>
<g id="Group_9">
<g id="Clip path group_7">
<mask id="mask6_10074_1335" style="mask-type:luminance" maskUnits="userSpaceOnUse" x="0" y="0" width="75" height="32">
<g id="clippath-6">
<path id="Vector_12" d="M74.8784 0H0.5V32H74.8784V0Z" fill="white"/>
</g>
</mask>
<g mask="url(#mask6_10074_1335)">
<g id="Group_10">
<path id="Vector_13" d="M8.52165 24.9797C8.52165 24.7482 8.71854 24.5511 8.96678 24.5511C9.1979 24.5511 9.39478 24.7482 9.39478 24.9968C9.39478 25.2283 9.1979 25.4254 8.94966 25.4254C8.70142 25.4083 8.52165 25.2111 8.52165 24.9797ZM6.67268 28.0228C6.67268 28.0228 6.9894 27.7742 7.31469 27.6713C7.63997 27.5685 7.97381 27.4399 8.18781 27.1742C8.40181 26.9084 8.52165 26.5141 8.58157 26.2827C8.64149 26.0512 8.65006 25.8198 8.93254 25.7855C9.21502 25.8369 9.24926 26.0683 9.2835 26.2998C9.31774 26.5312 9.44614 26.9256 9.63446 27.2084C9.82278 27.4913 10.1652 27.6199 10.4905 27.7399C10.8158 27.8599 11.1325 28.1171 11.1325 28.1171C11.1325 28.1171 11.0041 27.7228 11.0041 27.3885C10.987 27.0542 10.987 26.6941 10.7901 26.4112C10.5932 26.1284 10.2765 25.8798 10.0625 25.7683C9.86558 25.6655 9.65158 25.554 9.7115 25.2711C9.85702 25.0054 10.0625 25.074 10.2936 25.1083C10.5247 25.1426 10.9356 25.1425 11.2694 25.0397C11.6033 24.9368 11.8173 24.6454 12.0313 24.3968C12.2453 24.131 12.5791 23.8996 12.5791 23.8996C12.5791 23.8996 12.1511 23.8824 11.8344 23.7967C11.5177 23.711 11.1582 23.5824 10.8414 23.6938C10.5076 23.7967 10.1652 24.0282 10.0111 24.1739C9.83134 24.3368 9.69438 24.4911 9.42902 24.3711C9.21502 24.1567 9.36054 23.9596 9.44614 23.7453C9.54886 23.531 9.67726 23.1367 9.67726 22.8023C9.67726 22.468 9.48038 22.1594 9.30062 21.8765C9.12086 21.5937 9.00102 21.1993 9.00102 21.1993C9.00102 21.1993 8.87262 21.5937 8.6843 21.8765C8.48741 22.1594 8.27341 22.4423 8.27341 22.7852C8.27341 23.1281 8.37613 23.531 8.48741 23.7281C8.57301 23.9424 8.70142 24.1396 8.48741 24.3539C8.22205 24.4825 8.07653 24.3025 7.92245 24.1396C7.76837 23.9767 7.42597 23.7281 7.10924 23.6253C6.79252 23.5224 6.433 23.6081 6.11628 23.6938C5.79955 23.7796 5.38867 23.7624 5.38867 23.7624C5.38867 23.7624 5.70539 24.0282 5.90228 24.2768C6.11628 24.5425 6.33028 24.8254 6.647 24.954C6.96372 25.0568 7.37461 25.0825 7.60573 25.0568C7.83685 25.0397 8.06797 24.9883 8.18781 25.254C8.22205 25.5369 8.00805 25.6312 7.81117 25.734C7.61429 25.8369 7.28045 26.0855 7.06644 26.3598C6.85244 26.6341 6.85244 27.0027 6.8182 27.337C6.80108 27.6371 6.67268 28.0314 6.67268 28.0314" fill="#A71E35"/>
</g>
</g>
</g>
<g id="Clip path group_8">
<mask id="mask7_10074_1335" style="mask-type:luminance" maskUnits="userSpaceOnUse" x="0" y="0" width="75" height="32">
<g id="clippath-7">
<path id="Vector_14" d="M74.8784 0H0.5V32H74.8784V0Z" fill="white"/>
</g>
</mask>
<g mask="url(#mask7_10074_1335)">
<g id="Group_11">
<path id="Vector_15" d="M17.6454 16.784C17.6454 16.5868 17.8081 16.4068 18.0221 16.4068C18.219 16.4068 18.3987 16.5697 18.3987 16.784C18.3987 16.9812 18.2361 17.1612 18.0221 17.1612C17.8252 17.144 17.6454 16.9812 17.6454 16.784ZM19.3831 15.8582C19.3318 15.8753 19.2804 15.8925 19.2205 15.8925C19.0236 15.8925 18.8439 15.7296 18.8439 15.5153C18.8439 15.3182 19.0065 15.1381 19.2205 15.1381L19.289 15.121C19.1863 14.4952 19.0065 13.9123 18.7754 13.3294C18.7754 13.4923 18.724 13.7066 18.5785 13.8266C18.2789 14.0752 17.6711 14.4352 18.1505 15.1039C18.4159 15.481 18.3816 15.601 18.2532 15.7125C18.0734 15.8753 17.8766 15.7125 17.6711 15.4982C17.3202 15.1639 17.0634 15.0867 16.7638 15.301C16.4128 15.5496 16.4984 15.8839 16.5669 16.1754C16.6525 16.4583 16.6525 16.4925 16.6696 16.724C16.6525 16.9554 16.6525 16.9897 16.5669 17.2726C16.4813 17.5555 16.3871 17.8984 16.7638 18.147C17.0634 18.3441 17.3116 18.2756 17.6711 17.9498C17.9022 17.7355 18.0991 17.5984 18.2532 17.7355C18.3987 17.8641 18.4159 17.9841 18.1505 18.3613C17.6711 19.0385 18.2789 19.3899 18.5785 19.6385C18.724 19.7671 18.7754 19.9729 18.7754 20.1357C19.0065 19.5528 19.1863 18.9613 19.289 18.3184H19.2205C19.0236 18.3184 18.8439 18.1556 18.8439 17.9412C18.8439 17.7441 19.0065 17.5641 19.2205 17.5641C19.2719 17.5641 19.3489 17.5812 19.3831 17.5984L19.4003 17.1526C19.3489 17.1697 19.2719 17.1869 19.2034 17.1869C18.938 17.1869 18.724 16.9726 18.724 16.7069C18.724 16.4411 18.938 16.2268 19.2034 16.2268C19.2719 16.2268 19.3489 16.244 19.4003 16.2611L19.3831 15.8325V15.8582Z" fill="#A71E35"/>
</g>
</g>
</g>
<g id="Clip path group_9">
<mask id="mask8_10074_1335" style="mask-type:luminance" maskUnits="userSpaceOnUse" x="0" y="0" width="75" height="32">
<g id="clippath-8">
<path id="Vector_16" d="M74.8784 0H0.5V32H74.8784V0Z" fill="white"/>
</g>
</mask>
<g mask="url(#mask8_10074_1335)">
<g id="Group_12">
<path id="Vector_17" d="M21.8413 15.807H23.9043C25.5221 15.807 26.6178 15.0441 26.6178 13.1411C26.6178 11.2381 25.5307 10.4751 23.9043 10.4751H21.8413V15.807ZM23.1767 11.6152H23.9214C24.9144 11.6152 25.291 12.2924 25.291 13.1582C25.291 14.024 24.94 14.7012 23.9385 14.7012H23.1767V11.6067V11.6152ZM31.3772 15.807V14.7784H28.5695V13.5183H30.9835V12.4896H28.5695V11.5124H31.1632V10.4837H27.2598V15.7985H31.3772V15.8156V15.807ZM33.8254 15.807H35.0324V11.6667H35.0495L36.1366 15.807H37.3093L38.3537 11.6667H38.3708V15.807H39.6291V10.4751H37.6945L36.7187 14.4355H36.7016L35.76 10.4923H33.8083V15.807H33.8254ZM44.1403 13.1411C44.1403 13.9554 43.7636 14.8298 42.7707 14.8298C41.7263 14.8298 41.401 13.9212 41.401 13.1411C41.401 11.9496 41.9831 11.4524 42.7707 11.4524C43.7636 11.4524 44.1403 12.3096 44.1403 13.1411ZM45.4756 13.1411C45.4756 11.6495 44.4827 10.3294 42.7963 10.3294C41.11 10.3294 40.117 11.641 40.117 13.1411C40.117 14.6412 41.11 15.9528 42.7963 15.9528C44.4827 15.9528 45.4756 14.6412 45.4756 13.1411ZM45.9379 15.807H47.1449V12.4639H47.162L49.1137 15.807H50.449V10.4751H49.2421V13.8697H49.2249L47.2904 10.4751H45.9379V15.807ZM50.8942 11.5209H52.2809V15.807H53.6163V11.5209H55.003V10.4923H50.9027V11.5209H50.8942ZM55.5252 15.807H56.8605V13.6726H59.4029V12.6439H56.8605V11.5209H59.5912V10.4923H55.5252V15.807ZM63.9739 13.1411C63.9739 13.9554 63.5973 14.8298 62.6043 14.8298C61.56 14.8298 61.2347 13.9212 61.2347 13.1411C61.2347 11.9496 61.8168 11.4524 62.6043 11.4524C63.5973 11.4524 63.9739 12.3096 63.9739 13.1411ZM65.3093 13.1411C65.3093 11.6495 64.3163 10.3294 62.63 10.3294C60.9437 10.3294 59.9507 11.641 59.9507 13.1411C59.9507 14.6412 60.9437 15.9528 62.63 15.9528C64.3163 15.9528 65.3093 14.6412 65.3093 13.1411ZM67.1412 11.4695H68.3652C68.7932 11.4695 69.0757 11.701 69.0757 12.181C69.0757 12.661 68.7932 12.8925 68.3652 12.8925H67.1412V11.4695ZM65.8058 15.807H67.1412V13.8869H67.9972L69.0415 15.807H70.5309L69.3068 13.6726C69.966 13.4754 70.4111 12.9268 70.4111 12.2324C70.4111 11.0409 69.6835 10.4923 68.4765 10.4923H65.8143V15.807H65.8058ZM70.6337 11.5209H72.0204V15.807H73.3558V11.5209H74.7425V10.4923H70.6422V11.5209H70.6337Z" fill="black"/>
</g>
</g>
</g>
<g id="Clip path group_10">
<mask id="mask9_10074_1335" style="mask-type:luminance" maskUnits="userSpaceOnUse" x="0" y="0" width="75" height="32">
<g id="clippath-9">
<path id="Vector_18" d="M74.8784 0H0.5V32H74.8784V0Z" fill="white"/>
</g>
</mask>
<g mask="url(#mask9_10074_1335)">
<g id="Group_13">
<path id="Vector_19" d="M27.3095 16.8868H25.6916V20.9758C25.6916 21.7044 25.4092 22.2359 24.5703 22.2359C23.7314 22.2359 23.4489 21.7044 23.4489 20.9758V16.8868H21.8311V21.1044C21.8311 22.8788 23.3205 23.5389 24.5446 23.5389C25.7687 23.5389 27.2753 22.8788 27.2753 21.1044V16.8868M28.0371 23.3589H29.4923V19.2871H29.5094L31.872 23.3589H33.4899V16.8868H32.0346V21.0272H32.0175L29.6721 16.8868H28.0371V23.3589ZM34.2517 23.3589H35.8696V16.8868H34.2517V23.3589ZM38.5146 23.3589H40.2181L42.4351 16.8868H40.7488L39.3963 21.5073H39.3621L38.0524 16.8868H36.3489L38.5146 23.3589ZM47.7595 23.3589V22.0987H44.3697V20.5729H47.2801V19.3128H44.3697V18.1212H47.4941V16.8954H42.7518V23.3674H47.7595V23.3589ZM50.0279 18.0784H51.5002C52.0138 18.0955 52.3562 18.3441 52.3562 18.9527C52.3562 19.5614 52.0224 19.8271 51.5002 19.8271H50.0279V18.087V18.0784ZM48.4272 23.3589H50.045V21.0272H51.0722L52.3306 23.3589H54.1196L52.6473 20.7615C53.4434 20.53 53.9826 19.8528 53.9826 19.0213C53.9826 17.564 53.0924 16.8868 51.6543 16.8868H48.4443V23.3589H48.4272ZM54.1624 22.2187C55.0355 23.1788 55.9771 23.5303 57.0557 23.5303C58.2627 23.5303 60.0004 23.1788 60.0004 21.2158C60.0004 19.9728 58.9389 19.5785 57.6549 19.3642L57.03 19.2613C56.4051 19.1585 56.1398 18.9956 56.1398 18.6356C56.1398 18.207 56.6876 17.9755 57.0471 17.9755C57.7234 17.9755 58.3397 18.2755 58.7677 18.7899L59.9918 17.8984C59.2642 17.084 58.2199 16.6554 57.1499 16.6554C55.7803 16.6554 54.5219 17.2983 54.5219 18.8584C54.5219 19.8185 55.1811 20.4614 56.3709 20.6329L57.7063 20.8472C58.1856 20.9329 58.4339 21.0958 58.4339 21.413C58.4339 21.9787 57.6549 22.1587 57.2269 22.1587C56.4651 22.1587 55.9343 21.8587 55.3608 21.3444L54.1538 22.2016L54.1624 22.2187ZM60.7879 23.3589H62.4057V16.8868H60.7879V23.3589ZM62.9536 18.147H64.6399V23.376H66.2578V18.147H67.9441V16.8868H62.9707V18.147H62.9536ZM70.6748 23.3589H72.2926V20.3329L74.7237 16.8868H72.8405L71.4709 19.1242L70.1012 16.8868H68.218L70.6662 20.3329V23.3589H70.6748Z" fill="black"/>
</g>
</g>
</g>
<g id="Clip path group_11">
<mask id="mask10_10074_1335" style="mask-type:luminance" maskUnits="userSpaceOnUse" x="0" y="0" width="75" height="32">
<g id="clippath-10">
<path id="Vector_20" d="M74.8784 0H0.5V32H74.8784V0Z" fill="white"/>
</g>
</mask>
<g mask="url(#mask10_10074_1335)">
<g id="Group_14">
<path id="Vector_21" d="M21.8396 28.1941H24.108V27.4484H22.7213V24.6367H21.8311V28.1941M27.3694 28.1941V27.4998H25.5033V26.6683H27.1212V25.9739H25.5033V25.331H27.2239V24.6367H24.6131V28.1941H27.3609H27.3694ZM27.7204 28.1941H28.6106V24.6367H27.7204V28.1941ZM32.1545 25.4596C31.8378 24.8767 31.3755 24.5338 30.665 24.5338C29.5608 24.5338 28.9445 25.4082 28.9445 26.4026C28.9445 27.3969 29.6036 28.2713 30.7335 28.2713C31.3413 28.2713 31.8549 27.9198 32.1545 27.3626L31.444 27.0283C31.2985 27.3455 30.9646 27.5255 30.7164 27.5255C30.023 27.5255 29.809 26.9169 29.809 26.4026C29.809 25.6053 30.2028 25.2796 30.6822 25.2796C30.9818 25.2796 31.2899 25.4768 31.4098 25.8111L32.1545 25.4596ZM35.2618 28.1941V27.4998H33.3957V26.6683H35.0135V25.9739H33.3957V25.331H35.1163V24.6367H32.5055V28.1941H35.2532H35.2618ZM35.4929 27.5512C35.9723 28.0827 36.4859 28.2799 37.0936 28.2799C37.7528 28.2799 38.7115 28.0827 38.7115 27.0197C38.7115 26.3425 38.1294 26.1282 37.4189 26.0082L37.0851 25.9568C36.7512 25.9054 36.5886 25.8111 36.5886 25.6225C36.5886 25.391 36.8882 25.271 37.0851 25.271C37.4617 25.271 37.7956 25.4339 38.0438 25.7168L38.7201 25.2367C38.3263 24.791 37.7442 24.5595 37.1621 24.5595C36.4003 24.5595 35.7069 24.911 35.7069 25.7682C35.7069 26.2825 36.0579 26.6426 36.717 26.7454L37.4446 26.874C37.71 26.9255 37.8384 27.0197 37.8384 27.1912C37.8384 27.4912 37.4104 27.6027 37.1792 27.6027C36.7512 27.6027 36.4688 27.4398 36.152 27.1569L35.51 27.5684L35.4929 27.5512ZM38.8485 25.331H39.7729V28.1941H40.6632V25.331H41.5877V24.6367H38.857V25.331H38.8485ZM44.8491 28.1941V27.4998H42.983V26.6683H44.6008V25.9739H42.983V25.331H44.7035V24.6367H42.0927V28.1941H44.8405H44.8491ZM46.0047 25.2967H46.8179C47.1004 25.2967 47.2972 25.4425 47.2972 25.7768C47.2972 26.094 47.1004 26.2568 46.8179 26.2568H46.0047V25.2967ZM45.1144 28.1941H46.0047V26.9169H46.5696L47.263 28.1941H48.256L47.4428 26.7712C47.8879 26.6426 48.1704 26.274 48.1704 25.8111C48.1704 25.0139 47.691 24.6367 46.8949 24.6367H45.123V28.1941H45.1144Z" fill="black"/>
</g>
</g>
</g>
</g>
</g>
</g>
<defs>
<clipPath id="clip0_10074_1335">
<rect width="74.3784" height="32" fill="white" transform="translate(0.5)"/>
</clipPath>
</defs>
</svg>
