<svg width="273" height="273" viewBox="0 0 273 273" fill="none" xmlns="http://www.w3.org/2000/svg">
<path d="M246.465 162.917C261.12 102.25 223.819 41.1891 163.152 26.5345C102.484 11.8799 41.4235 49.1807 26.7689 109.848C12.1143 170.516 49.4151 231.576 110.083 246.231C170.75 260.886 231.811 223.585 246.465 162.917Z" fill="#E6EFEF"/>
<path d="M141.661 186.135C141.656 187.983 141.104 189.787 140.073 191.321C139.042 192.855 137.58 194.048 135.87 194.75C134.161 195.452 132.282 195.631 130.471 195.264C128.66 194.898 126.998 194.002 125.696 192.691C124.394 191.379 123.511 189.711 123.158 187.897C122.804 186.084 122.997 184.206 123.711 182.502C124.426 180.798 125.63 179.344 127.171 178.324C128.712 177.305 130.521 176.765 132.369 176.774C134.839 176.792 137.203 177.786 138.943 179.54C140.684 181.293 141.661 183.664 141.661 186.135Z" fill="#045D5E"/>
<path d="M113.67 174.139C116.052 171.574 118.93 169.519 122.13 168.099C125.329 166.679 128.784 165.922 132.284 165.876C135.784 165.829 139.257 166.493 142.494 167.827C145.73 169.162 148.662 171.139 151.112 173.639C155.883 178.455 163.335 171.071 158.564 166.255C155.134 162.798 151.048 160.063 146.545 158.209C142.042 156.356 137.214 155.422 132.345 155.462C127.476 155.502 122.664 156.516 118.193 158.444C113.722 160.371 109.681 163.174 106.309 166.687C101.651 171.571 109.035 179.046 113.715 174.139H113.67Z" fill="#045D5E"/>
<path d="M81.9524 130.744C96.1522 118.475 113.101 110.751 132.072 110.705C151.01 110.435 169.336 117.408 183.305 130.199C188.212 134.743 195.687 127.45 190.757 122.815C174.834 108.067 153.889 99.9425 132.186 100.095C110.352 100.095 90.9494 109.183 74.6139 123.201C69.502 127.631 76.8859 135.061 82.0205 130.653L81.9524 130.744Z" fill="#045D5E"/>
<path d="M94.4716 154.759C99.2058 149.475 104.984 145.23 111.44 142.291C117.897 139.352 124.893 137.783 131.986 137.682C139.08 137.582 146.117 138.953 152.655 141.708C159.192 144.463 165.087 148.543 169.969 153.691C174.695 158.53 182.147 151.146 177.421 146.284C171.564 140.163 164.512 135.31 156.703 132.026C148.893 128.742 140.493 127.097 132.021 127.193C123.55 127.289 115.189 129.123 107.455 132.583C99.7221 136.043 92.782 141.054 87.065 147.307C82.5211 152.26 89.8595 159.734 94.4716 154.759Z" fill="#045D5E"/>
<path d="M220.55 110.95C223.305 95.3693 212.909 80.5045 197.328 77.7488C181.747 74.9931 166.882 85.3899 164.126 100.971C161.371 116.552 171.768 131.416 187.348 134.172C202.929 136.928 217.794 126.531 220.55 110.95Z" fill="#FF725E"/>
<path d="M204.147 97.9495L200.082 93.885L181.88 112.087L185.945 116.151L204.147 97.9495Z" fill="white"/>
<path d="M185.953 93.864L181.888 97.9285L200.09 116.13L204.155 112.066L185.953 93.864Z" fill="white"/>
</svg>
