<svg width="49" height="49" viewBox="0 0 49 49" fill="none" xmlns="http://www.w3.org/2000/svg">
<g id="united kingdom" clip-path="url(#clip0_10011_1354)">
<path id="Vector" d="M24.5 48.5C37.7548 48.5 48.5 37.7548 48.5 24.5C48.5 11.2452 37.7548 0.5 24.5 0.5C11.2452 0.5 0.5 11.2452 0.5 24.5C0.5 37.7548 11.2452 48.5 24.5 48.5Z" fill="#F0F0F0"/>
<g id="Group">
<path id="Vector_2" d="M5.46113 9.88831C3.57591 12.3411 2.15438 15.1681 1.32666 18.2393H13.8121L5.46113 9.88831Z" fill="#0052B4"/>
<path id="Vector_3" d="M47.6732 18.2393C46.8455 15.1682 45.4239 12.3412 43.5388 9.88843L35.188 18.2393H47.6732Z" fill="#0052B4"/>
<path id="Vector_4" d="M1.32666 30.761C2.15447 33.832 3.576 36.6591 5.46113 39.1118L13.8118 30.761H1.32666Z" fill="#0052B4"/>
<path id="Vector_5" d="M39.1116 5.46134C36.6588 3.57613 33.8319 2.15459 30.7607 1.32678V13.8121L39.1116 5.46134Z" fill="#0052B4"/>
<path id="Vector_6" d="M9.88818 43.5387C12.341 45.4239 15.168 46.8454 18.2391 47.6732V35.188L9.88818 43.5387Z" fill="#0052B4"/>
<path id="Vector_7" d="M18.239 1.32678C15.1679 2.15459 12.3409 3.57613 9.88818 5.46125L18.239 13.812V1.32678Z" fill="#0052B4"/>
<path id="Vector_8" d="M30.7607 47.6732C33.8318 46.8454 36.6588 45.4239 39.1115 43.5388L30.7607 35.188V47.6732Z" fill="#0052B4"/>
<path id="Vector_9" d="M35.188 30.761L43.5388 39.1119C45.4239 36.6592 46.8455 33.832 47.6732 30.761H35.188Z" fill="#0052B4"/>
</g>
<g id="Group_2">
<path id="Vector_10" d="M48.2968 21.3696H27.6306H27.6305V0.703156C26.6057 0.56975 25.561 0.5 24.5 0.5C23.4388 0.5 22.3943 0.56975 21.3696 0.703156V21.3694V21.3695H0.703156C0.56975 22.3943 0.5 23.439 0.5 24.5C0.5 25.5612 0.56975 26.6057 0.703156 27.6304H21.3694H21.3695V48.2968C22.3943 48.4303 23.4388 48.5 24.5 48.5C25.561 48.5 26.6057 48.4303 27.6304 48.2968V27.6306V27.6305H48.2968C48.4303 26.6057 48.5 25.5612 48.5 24.5C48.5 23.439 48.4303 22.3943 48.2968 21.3696Z" fill="#D80027"/>
<path id="Vector_11" d="M30.7607 30.761L41.4704 41.4706C41.9629 40.9783 42.4328 40.4635 42.8811 39.9299L33.7122 30.7609H30.7607V30.761Z" fill="#D80027"/>
<path id="Vector_12" d="M18.239 30.761H18.2388L7.5293 41.4705C8.02167 41.9631 8.53645 42.433 9.07008 42.8813L18.239 33.7121V30.761Z" fill="#D80027"/>
<path id="Vector_13" d="M18.239 18.2393V18.2391L7.5294 7.52936C7.03684 8.02173 6.56696 8.53651 6.11865 9.07014L15.2877 18.2392H18.239V18.2393Z" fill="#D80027"/>
<path id="Vector_14" d="M30.7607 18.2393L41.4705 7.52949C40.9781 7.03693 40.4633 6.56705 39.9297 6.11884L30.7607 15.2879V18.2393Z" fill="#D80027"/>
</g>
</g>
<defs>
<clipPath id="clip0_10011_1354">
<rect width="48" height="48" fill="white" transform="translate(0.5 0.5)"/>
</clipPath>
</defs>
</svg>
