<svg width="21" height="20" viewBox="0 0 21 20" fill="none" xmlns="http://www.w3.org/2000/svg">
<path fill-rule="evenodd" clip-rule="evenodd" d="M10.625 0C5.10215 0 0.625 4.47715 0.625 10C0.625 11.3283 0.884521 12.5985 1.35656 13.7608C1.39919 13.8658 1.42372 13.9264 1.44052 13.9711L1.44563 13.9849L1.445 13.9897C1.44 14.0266 1.43172 14.0769 1.41571 14.173L0.81794 17.7596C0.791118 17.9202 0.761108 18.0999 0.749327 18.256C0.736482 18.4261 0.732009 18.6969 0.854729 18.983C1.00644 19.3367 1.2883 19.6186 1.642 19.7703C1.92812 19.893 2.19886 19.8885 2.36904 19.8757C2.52513 19.8639 2.70485 19.8339 2.86549 19.8071L6.45205 19.2093C6.54809 19.1933 6.59839 19.185 6.6353 19.18L6.64005 19.1794L6.65387 19.1845C6.69862 19.2013 6.75923 19.2258 6.86421 19.2684C8.0265 19.7405 9.29668 20 10.625 20C16.1478 20 20.625 15.5228 20.625 10C20.625 4.47715 16.1478 0 10.625 0ZM4.625 10C4.625 9.17157 5.29657 8.5 6.125 8.5C6.95343 8.5 7.625 9.17157 7.625 10C7.625 10.8284 6.95343 11.5 6.125 11.5C5.29657 11.5 4.625 10.8284 4.625 10ZM9.125 10C9.125 9.17157 9.79657 8.5 10.625 8.5C11.4534 8.5 12.125 9.17157 12.125 10C12.125 10.8284 11.4534 11.5 10.625 11.5C9.79657 11.5 9.125 10.8284 9.125 10ZM15.125 8.5C14.2966 8.5 13.625 9.17157 13.625 10C13.625 10.8284 14.2966 11.5 15.125 11.5C15.9534 11.5 16.625 10.8284 16.625 10C16.625 9.17157 15.9534 8.5 15.125 8.5Z" fill="#045D5E"/>
</svg>
