<svg width="256" height="236" viewBox="0 0 256 236" fill="none" xmlns="http://www.w3.org/2000/svg">
<g clip-path="url(#clip0_12112_30510)">
<path d="M253.847 25.0899C253.777 25.0899 253.705 25.0724 253.639 25.0373C253.428 24.9225 253.35 24.6577 253.465 24.4454C254.696 22.1693 255.265 19.5836 255.106 16.9706C254.687 10.0741 249.199 4.49968 242.34 4.00318C236.162 3.55535 230.391 7.31514 228.305 13.1427C228.23 13.3549 228.005 13.4737 227.787 13.4172C227.112 13.242 226.414 13.1427 225.71 13.1193C220.81 12.9577 216.492 16.6241 215.858 21.4645L215.842 21.5891C215.815 21.8286 215.6 21.9999 215.359 21.9727C215.121 21.9454 214.95 21.7273 214.977 21.4878L214.994 21.3496C215.687 16.0692 220.408 12.0699 225.739 12.2471C226.375 12.2685 227.008 12.3464 227.624 12.4827C229.946 6.49543 235.968 2.66749 242.404 3.13284C249.696 3.6605 255.531 9.58737 255.975 16.9181C256.144 19.6946 255.54 22.4419 254.231 24.8621C254.151 25.0081 254.002 25.0899 253.849 25.0899H253.847Z" fill="#060F11"/>
<path d="M219.78 23.2013C219.54 23.2013 219.346 23.0066 219.346 22.7651C219.346 19.424 222.054 16.7039 225.384 16.7039C225.625 16.7039 225.819 16.8986 225.819 17.1401C225.819 17.3815 225.625 17.5762 225.384 17.5762C222.535 17.5762 220.217 19.9029 220.217 22.7632C220.217 23.0046 220.023 23.1993 219.782 23.1993L219.78 23.2013Z" fill="#060F11"/>
<path d="M250.547 14.9126C250.836 15.8355 250.993 16.8188 250.993 17.8371L250.547 14.9126Z" fill="white"/>
<path d="M250.993 18.2732C250.753 18.2732 250.559 18.0785 250.559 17.8371C250.559 16.883 250.415 15.9426 250.132 15.043C250.06 14.8133 250.186 14.568 250.415 14.4959C250.646 14.4239 250.888 14.5504 250.96 14.7802C251.271 15.7654 251.426 16.7935 251.426 17.8371C251.426 18.0785 251.232 18.2732 250.991 18.2732H250.993Z" fill="#060F11"/>
<path d="M249.044 12.4242C248.912 12.4242 248.782 12.3639 248.697 12.2509C246.932 9.90277 244.239 8.55734 241.312 8.55734C241.071 8.55734 240.877 8.36264 240.877 8.1212C240.877 7.87976 241.071 7.68506 241.312 7.68506C244.515 7.68506 247.459 9.15704 249.391 11.7252C249.537 11.918 249.498 12.1906 249.306 12.3366C249.226 12.397 249.135 12.4242 249.044 12.4242Z" fill="#060F11"/>
<path d="M80.7561 148.164C80.7561 148.625 80.7134 149.143 80.628 149.718C80.5427 150.294 80.4127 150.927 80.2401 151.616C80.0674 152.307 79.854 152.983 79.5961 153.645C79.3381 154.307 79.0219 154.897 78.6494 155.415C78.275 155.933 77.8599 156.351 77.4021 156.667C76.9424 156.984 76.4555 157.142 75.9395 157.142H63.3832L58.7393 180.622C58.6229 181.083 58.4231 181.471 58.1379 181.788C57.8508 182.105 57.3911 182.378 56.7626 182.608C56.1302 182.837 55.3427 183.009 54.398 183.126C53.4514 183.24 52.2914 183.299 50.9141 183.299C49.5368 183.299 48.3186 183.24 47.4302 183.126C46.5398 183.009 45.8531 182.837 45.3662 182.608C44.8774 182.378 44.5496 182.105 44.3769 181.788C44.2043 181.473 44.2043 181.083 44.3769 180.622L48.9355 157.142H3.01059C1.86223 157.142 1.07467 156.883 0.645969 156.365C0.215332 155.847 0.00195312 155.07 0.00195312 154.034C0.00195312 153.633 0.0310502 153.115 0.0873046 152.481C0.143559 151.848 0.244429 151.157 0.387974 150.409C0.52958 149.661 0.717741 148.871 0.946638 148.036C1.17554 147.202 1.43353 146.382 1.72062 145.574C2.00771 144.768 2.33554 143.991 2.70992 143.244C3.08236 142.496 3.52658 141.807 4.04257 141.172L57.7073 73.2351C58.0506 72.7756 58.553 72.3725 59.2126 72.026C59.8702 71.6813 60.6752 71.3932 61.6199 71.1634C62.5665 70.9336 63.6974 70.774 65.0165 70.6883C66.3355 70.6026 67.8835 70.5598 69.6604 70.5598C71.5517 70.5598 73.1714 70.6319 74.5196 70.7759C75.8658 70.92 76.9715 71.1069 77.8308 71.3367C78.6902 71.5664 79.307 71.8702 79.6795 72.244C80.0519 72.6198 80.209 73.0637 80.1528 73.5817L65.8758 144.885H78.4322C79.2915 144.885 79.8948 145.187 80.2381 145.793C80.5815 146.396 80.7541 147.189 80.7541 148.166L80.7561 148.164ZM63.4705 84.3704H63.2978L15.567 144.885H51.5154L63.4705 84.3723V84.3704Z" fill="#FF725E"/>
<path d="M255.837 148.164C255.837 148.625 255.794 149.143 255.709 149.718C255.624 150.294 255.494 150.927 255.321 151.616C255.148 152.307 254.935 152.983 254.677 153.645C254.419 154.307 254.103 154.897 253.73 155.415C253.356 155.933 252.941 156.351 252.483 156.667C252.023 156.984 251.537 157.142 251.021 157.142H238.464L233.82 180.622C233.704 181.083 233.504 181.471 233.219 181.788C232.932 182.105 232.472 182.378 231.844 182.608C231.211 182.837 230.424 183.009 229.479 183.126C228.532 183.24 227.372 183.299 225.995 183.299C224.618 183.299 223.4 183.24 222.511 183.126C221.621 183.009 220.934 182.837 220.447 182.608C219.958 182.378 219.631 182.105 219.458 181.788C219.285 181.473 219.285 181.083 219.458 180.622L224.017 157.142H178.092C176.943 157.142 176.156 156.883 175.727 156.365C175.296 155.847 175.083 155.07 175.083 154.034C175.083 153.633 175.112 153.115 175.168 152.481C175.225 151.848 175.325 151.157 175.469 150.409C175.611 149.661 175.799 148.871 176.028 148.036C176.257 147.202 176.515 146.382 176.802 145.574C177.089 144.768 177.417 143.991 177.791 143.244C178.163 142.496 178.608 141.807 179.124 141.172L232.788 73.2351C233.132 72.7756 233.634 72.3725 234.294 72.026C234.951 71.6813 235.756 71.3932 236.701 71.1634C237.648 70.9336 238.778 70.774 240.098 70.6883C241.417 70.6026 242.965 70.5598 244.741 70.5598C246.633 70.5598 248.252 70.6319 249.601 70.7759C250.947 70.92 252.053 71.1069 252.912 71.3367C253.771 71.5664 254.388 71.8702 254.761 72.244C255.133 72.6198 255.29 73.0637 255.234 73.5817L240.957 144.885H253.513C254.373 144.885 254.976 145.187 255.319 145.793C255.663 146.396 255.835 147.189 255.835 148.166L255.837 148.164ZM238.552 84.3704H238.379L190.648 144.883H226.596L238.552 84.3704Z" fill="#FF725E"/>
<path d="M186.124 70.5189C186.124 73.6945 185.926 77.5731 185.531 82.1545C185.135 86.7379 184.487 91.6796 183.589 96.9834C182.689 102.287 181.521 107.79 180.084 113.489C178.644 119.19 176.885 124.745 174.8 130.158C172.714 135.568 170.253 140.728 167.413 145.635C164.573 150.543 161.32 154.8 157.654 158.406C153.411 162.736 148.29 166.198 142.288 168.795C136.285 171.392 129.259 172.691 121.209 172.691C114.45 172.691 108.664 171.772 103.847 169.932C99.0308 168.092 95.0755 165.386 91.9854 161.815C88.8934 158.244 86.6296 153.844 85.1922 148.61C83.7529 143.38 83.0352 137.408 83.0352 130.697C83.0352 127.523 83.233 123.645 83.6287 119.061C84.0225 114.48 84.6704 109.536 85.5705 104.232C86.4686 98.9285 87.6364 93.4456 89.0757 87.7816C90.5131 82.1175 92.2919 76.5626 94.4141 71.1127C96.5343 65.6648 98.9959 60.5051 101.801 55.6355C104.604 50.7659 107.839 46.4901 111.506 42.8102C113.733 40.5749 116.159 38.5539 118.784 36.7489C121.406 34.946 124.246 33.4487 127.302 32.2571C130.357 31.0674 133.61 30.1464 137.061 29.4981C140.512 28.8477 144.178 28.5245 148.059 28.5245C154.887 28.5245 160.711 29.463 165.527 31.338C170.342 33.215 174.278 35.939 177.335 39.5099C180.39 43.0808 182.619 47.4831 184.02 52.7149C185.422 57.9467 186.122 63.8813 186.122 70.5189H186.124ZM167.254 70.735C167.254 61.5721 165.545 54.7885 162.131 50.3862C158.715 45.9858 153.27 43.7837 145.796 43.7837C141.553 43.7837 137.726 44.5236 134.312 46.0034C130.896 47.4831 127.752 49.6288 124.877 52.4423C122 55.3298 119.449 58.9007 117.22 63.157C114.992 67.4152 113.015 72.0162 111.29 76.9559C109.566 81.8995 108.127 86.9852 106.978 92.217C105.828 97.4487 104.875 102.499 104.121 107.369C103.366 112.239 102.808 116.678 102.449 120.681C102.088 124.686 101.909 127.951 101.909 130.477C101.909 139.642 103.634 146.425 107.085 150.826C110.536 155.228 115.961 157.428 123.368 157.428C127.682 157.428 131.544 156.688 134.96 155.208C138.374 153.731 141.483 151.583 144.286 148.77C147.089 145.956 149.625 142.403 151.889 138.109C154.152 133.818 156.148 129.2 157.873 124.256C159.597 119.314 161.054 114.227 162.239 108.995C163.425 103.765 164.396 98.7318 165.151 93.8953C165.906 89.0627 166.445 84.6254 166.769 80.5832C167.093 76.5431 167.254 73.2603 167.254 70.733V70.735Z" fill="#E6EFEF"/>
<path d="M142.558 215.279C149.415 219.882 156.209 223.942 161.966 219.148L160.057 192.939L141.87 192.133L142.56 215.279H142.558Z" fill="#FFC1A4"/>
<path d="M161.134 208.891L142.475 212.526L142.322 207.236L161.134 208.891Z" fill="black"/>
<path d="M161.964 218.749C161.964 218.749 163.341 222.024 166.051 223.003C168.761 223.983 171.027 225.297 172.07 227.77C173.114 230.243 172.782 236.002 172.782 236.002L141.352 235.908L141.414 214.553C141.414 214.553 142.764 213.332 146.626 215.118C150.49 216.901 155.442 219.997 161.964 218.751V218.749Z" fill="#FFD400"/>
<path d="M172.823 232.963C172.862 234.643 172.784 236.002 172.784 236.002L141.354 235.909L141.363 232.869L172.825 232.963H172.823Z" fill="#060606"/>
<path d="M157.699 221.886C152.316 221.886 148.653 220.005 146.182 218.402C143.627 216.745 141.631 217.612 141.612 217.622C141.362 217.735 141.067 217.622 140.954 217.37C140.842 217.119 140.954 216.823 141.205 216.71C141.305 216.666 143.717 215.616 146.721 217.563C149.821 219.573 154.888 222.039 163.091 220.283C163.359 220.225 163.625 220.398 163.681 220.667C163.739 220.935 163.567 221.202 163.299 221.259C161.252 221.697 159.39 221.882 157.699 221.882V221.886Z" fill="black"/>
<path d="M162.263 224.925C162.149 224.925 162.034 224.886 161.939 224.804C161.732 224.625 161.706 224.31 161.885 224.102L163.968 221.666C164.147 221.457 164.461 221.432 164.668 221.613C164.876 221.792 164.901 222.108 164.723 222.316L162.639 224.752C162.54 224.867 162.403 224.925 162.261 224.925H162.263Z" fill="black"/>
<path d="M164.067 225.965C163.952 225.965 163.838 225.926 163.743 225.844C163.535 225.665 163.51 225.35 163.688 225.141L165.772 222.705C165.95 222.497 166.265 222.472 166.472 222.653C166.68 222.832 166.705 223.147 166.526 223.356L164.443 225.791C164.344 225.906 164.206 225.965 164.065 225.965H164.067Z" fill="black"/>
<path d="M165.873 227.003C165.758 227.003 165.644 226.964 165.549 226.882C165.341 226.703 165.316 226.387 165.495 226.179L167.578 223.743C167.756 223.535 168.071 223.51 168.278 223.691C168.486 223.87 168.511 224.185 168.333 224.394L166.249 226.829C166.15 226.944 166.013 227.003 165.871 227.003H165.873Z" fill="black"/>
<path d="M150.149 233.395C149.937 233.395 149.741 233.258 149.675 233.046C147.681 226.705 141.424 226.66 141.383 226.658C141.109 226.644 140.884 226.436 140.884 226.161C140.884 225.885 141.105 225.661 141.379 225.661C141.474 225.661 148.418 225.731 150.622 232.746C150.706 233.009 150.56 233.29 150.298 233.371C150.248 233.387 150.197 233.395 150.149 233.395Z" fill="black"/>
<path d="M180.425 215.279C187.283 219.882 194.076 223.942 199.833 219.148L197.924 192.939L179.737 192.133L180.427 215.279H180.425Z" fill="#FFC1A4"/>
<path d="M199.001 208.891L180.342 212.526L180.189 207.236L199.001 208.891Z" fill="black"/>
<path d="M199.831 218.749C199.831 218.749 201.208 222.024 203.918 223.003C206.628 223.983 208.894 225.297 209.938 227.77C210.981 230.243 210.649 236.002 210.649 236.002L179.219 235.908L179.281 214.553C179.281 214.553 180.631 213.332 184.493 215.118C188.357 216.901 193.309 219.997 199.831 218.751V218.749Z" fill="#FFD400"/>
<path d="M210.69 232.963C210.729 234.643 210.651 236.002 210.651 236.002L179.221 235.909L179.23 232.869L210.692 232.963H210.69Z" fill="#060606"/>
<path d="M195.566 221.886C190.183 221.886 186.521 220.005 184.049 218.402C181.495 216.745 179.498 217.612 179.479 217.622C179.229 217.735 178.934 217.622 178.821 217.37C178.709 217.119 178.822 216.823 179.072 216.71C179.173 216.666 181.584 215.616 184.589 217.563C187.688 219.573 192.755 222.039 200.959 220.283C201.226 220.225 201.492 220.398 201.548 220.667C201.606 220.935 201.434 221.202 201.166 221.259C199.12 221.697 197.257 221.882 195.566 221.882V221.886Z" fill="black"/>
<path d="M200.13 224.925C200.016 224.925 199.901 224.886 199.806 224.804C199.599 224.625 199.573 224.31 199.752 224.102L201.835 221.666C202.014 221.457 202.328 221.432 202.536 221.613C202.743 221.792 202.768 222.108 202.59 222.316L200.507 224.752C200.408 224.867 200.27 224.925 200.128 224.925H200.13Z" fill="black"/>
<path d="M201.936 225.965C201.821 225.965 201.707 225.926 201.612 225.844C201.404 225.665 201.379 225.35 201.558 225.141L203.641 222.705C203.819 222.497 204.134 222.472 204.341 222.653C204.549 222.832 204.574 223.147 204.396 223.356L202.312 225.791C202.213 225.906 202.076 225.965 201.934 225.965H201.936Z" fill="black"/>
<path d="M203.74 227.003C203.626 227.003 203.511 226.964 203.416 226.882C203.209 226.703 203.183 226.387 203.362 226.179L205.445 223.743C205.624 223.535 205.938 223.51 206.145 223.691C206.353 223.87 206.378 224.185 206.2 224.394L204.116 226.829C204.017 226.944 203.88 227.003 203.738 227.003H203.74Z" fill="black"/>
<path d="M188.016 233.395C187.805 233.395 187.609 233.258 187.543 233.046C185.556 226.73 179.506 226.658 179.25 226.658C178.976 226.658 178.753 226.436 178.751 226.159C178.751 225.885 178.973 225.661 179.246 225.659C179.341 225.659 186.286 225.729 188.489 232.744C188.573 233.007 188.427 233.288 188.165 233.369C188.115 233.385 188.064 233.393 188.016 233.393V233.395Z" fill="black"/>
<path d="M170.629 155.748L174.292 208.848H202.714L200.945 153.076C200.603 142.288 191.579 133.841 180.833 134.248L151.078 135.181L153.629 160.843L170.629 155.748Z" fill="#141323"/>
<path d="M166.04 142.077L170.629 155.748L165.095 157.407L166.04 142.077Z" fill="#060606"/>
<path d="M182.815 201.436C182.594 201.436 182.404 201.266 182.383 201.04L176.901 144.317C176.662 141.844 174.794 139.807 172.36 139.361C169.943 138.919 167.559 140.091 166.426 142.28L163.476 147.973C163.365 148.187 163.101 148.271 162.89 148.158C162.676 148.047 162.593 147.784 162.705 147.57L165.656 141.877C166.967 139.348 169.724 137.992 172.517 138.503C175.332 139.017 177.491 141.375 177.768 144.233L183.25 200.957C183.273 201.196 183.099 201.41 182.858 201.434C182.844 201.434 182.829 201.436 182.815 201.436Z" fill="white"/>
<path d="M138.526 161.616L137.99 208.848H167.248L166.824 146.634C166.775 139.607 160.566 134.235 153.637 135.224L107.027 136.207L106.93 151.018C108.876 158.557 114.585 161.963 123.151 162.387L138.528 161.614L138.526 161.616Z" fill="#141323"/>
<path d="M111.747 154.782C111.584 154.782 111.429 154.691 111.353 154.533C111.25 154.315 111.343 154.054 111.56 153.951C116.045 151.819 119.254 147.239 119.737 142.282C119.76 142.042 119.971 141.867 120.212 141.891C120.451 141.914 120.625 142.128 120.602 142.368C120.09 147.623 116.687 152.481 111.931 154.739C111.871 154.768 111.807 154.782 111.745 154.782H111.747Z" fill="white"/>
<path d="M156.422 199.559C156.422 199.559 156.411 199.559 156.405 199.559C156.164 199.549 155.978 199.347 155.988 199.105L157.687 155.123C157.78 152.699 156.816 150.364 155.041 148.717C153.266 147.072 150.871 146.291 148.471 146.577C123.578 149.546 123.221 149.463 123.05 149.422C122.815 149.367 122.67 149.132 122.726 148.898C122.778 148.678 122.988 148.536 123.205 148.565C123.533 148.569 126.706 148.294 148.37 145.711C151.024 145.393 153.67 146.256 155.633 148.076C157.596 149.897 158.663 152.477 158.558 155.158L156.859 199.14C156.849 199.376 156.657 199.561 156.424 199.561L156.422 199.559Z" fill="white"/>
<path d="M209.928 64.1383L187.071 104.172C184.654 109.007 179.238 111.534 173.997 110.272L150.035 104.499L157.324 81.3796L174.616 85.8812L189.31 54.8119L209.93 64.1403L209.928 64.1383Z" fill="#FFC1A4"/>
<path d="M146.368 80.7682L147.371 80.7429C147.689 80.7351 148.006 80.7488 148.324 80.7332C150.838 80.6086 159.303 79.1327 163.328 81.3796L167.074 82.799L158.665 108.311L139.99 102.311L146.368 80.7702V80.7682Z" fill="#367D7E"/>
<path d="M152.549 135.107L146.37 80.7682L105.679 84.3508L104.872 139.864C121.62 139.04 137.575 137.51 152.551 135.107H152.549Z" fill="#367D7E"/>
<path d="M149.072 105.628C148.853 105.628 148.665 105.463 148.64 105.241L147.055 90.928C147.028 90.6885 147.201 90.4723 147.439 90.4451C147.678 90.4178 147.893 90.5911 147.92 90.8306L149.505 105.143C149.532 105.383 149.36 105.599 149.121 105.626C149.105 105.626 149.088 105.628 149.072 105.628Z" fill="white"/>
<path d="M157.325 101.61C157.284 101.61 157.243 101.604 157.202 101.592C156.971 101.524 156.84 101.283 156.907 101.051L160.122 90.0558C160.19 89.8241 160.43 89.6917 160.661 89.7598C160.892 89.828 161.024 90.0694 160.956 90.3011L157.742 101.296C157.685 101.487 157.513 101.61 157.325 101.61Z" fill="white"/>
<path d="M127.085 92.326C135.884 92.5051 134.891 84.1677 131.525 80.9259L131.244 72.8086L118.889 66.5215L117.896 82.9469C117.896 82.9469 117.564 92.1313 127.087 92.324L127.085 92.326Z" fill="#FFC1A4"/>
<path d="M131.466 79.2631C130.134 78.7043 126.177 76.839 125.077 73.9067L131.3 74.6057L131.466 79.2612V79.2631Z" fill="#060606"/>
<path d="M131.28 75.9706C138.775 75.9706 144.851 69.872 144.851 62.349C144.851 54.8259 138.775 48.7273 131.28 48.7273C123.785 48.7273 117.709 54.8259 117.709 62.349C117.709 69.872 123.785 75.9706 131.28 75.9706Z" fill="#FFC1A4"/>
<path d="M137.449 66.835C137.23 66.835 137.042 66.6695 137.016 66.4456C136.991 66.2061 137.164 65.99 137.402 65.9647C137.717 65.9316 138.041 65.8965 138.289 65.7602C138.522 65.6337 138.671 65.4136 138.692 65.1703C138.733 64.6854 138.316 64.1987 137.903 63.7859L135.505 61.3968C135.335 61.2275 135.335 60.951 135.503 60.7796C135.672 60.6083 135.948 60.6083 136.118 60.7777L138.516 63.1667C139.073 63.7216 139.633 64.4031 139.559 65.2462C139.513 65.7836 139.193 66.2626 138.704 66.5293C138.304 66.7474 137.874 66.7922 137.495 66.8331C137.48 66.8331 137.464 66.835 137.449 66.835Z" fill="#060606"/>
<path d="M135.841 70.2657C135.723 70.2657 135.604 70.217 135.519 70.1236C134.444 68.9378 132.73 68.3167 131.147 68.5445C130.906 68.5796 130.689 68.4121 130.654 68.1746C130.619 67.9351 130.786 67.7151 131.023 67.68C132.908 67.4074 134.879 68.1201 136.163 69.5356C136.324 69.7147 136.312 69.9892 136.134 70.1528C136.051 70.2287 135.946 70.2657 135.841 70.2657Z" fill="#060606"/>
<path d="M131.651 61.7882C131.955 62.4425 132.57 62.8027 133.022 62.5943C133.476 62.3802 133.602 61.6792 133.302 61.025C132.997 60.3649 132.384 60.0047 131.93 60.2189C131.478 60.4253 131.352 61.1282 131.651 61.7882Z" fill="#060606"/>
<path d="M138.51 58.5074C138.814 59.1616 139.429 59.5218 139.881 59.3135C140.335 59.0993 140.461 58.3983 140.161 57.7441C139.856 57.0841 139.243 56.7239 138.789 56.938C138.337 57.1444 138.211 57.8473 138.51 58.5074Z" fill="#060606"/>
<path d="M143.264 48.0731C143.08 49.5509 142.498 50.9878 141.538 52.121C140.508 53.336 139.032 54.1791 137.453 54.3601C135.878 54.5412 134.217 54.0311 133.067 52.9271C132.838 54.7379 131.54 56.3773 129.835 57.0082C128.128 57.639 125.713 57.4949 124.371 56.2585C124.477 57.9135 124.588 59.5686 124.695 61.2197C124.739 61.9031 123.024 65.034 121.773 63.9125C121.74 63.8832 122.089 63.2154 118.516 62.5729C115.259 61.9888 120.353 67.2595 119.676 67.6859C111.038 70.2716 106.137 60.8302 110.895 59.6698C110.895 59.6698 106.592 55.6316 108.573 49.1751C109.743 45.3705 113.232 43.9706 115.9 43.4644C116.794 41.3966 118.41 39.6345 120.433 38.6473C122.644 37.5648 125.166 37.3915 127.62 37.2357C128.728 37.1656 129.831 37.0955 130.939 37.0254C131.73 36.9767 132.526 36.9261 133.317 36.9631C136.25 37.1072 139.105 38.5227 140.997 40.7833C142.675 42.7887 143.588 45.4737 143.264 48.0711V48.0731Z" fill="#060606"/>
<path d="M122.119 64.1781C122.645 62.181 121.458 60.1339 119.469 59.6059C117.479 59.0779 115.44 60.2688 114.913 62.2659C114.387 64.263 115.574 66.31 117.564 66.838C119.553 67.3661 121.593 66.1751 122.119 64.1781Z" fill="#FFC1A4"/>
<path d="M88.2632 102.792C73.9765 118.236 63.969 142.551 60.2427 150.463L73.5905 156.788C72.4266 154.961 91.0313 128.222 106.926 112.155" fill="#FFC1A4"/>
<path d="M113.716 83.8407L106.323 84.3469C101.935 84.6468 97.8577 86.7301 95.0353 90.1161L82.7485 104.147L99.8751 122.367L111.787 107.445C115.626 102.636 116.971 96.2863 115.411 90.3264L113.714 83.8426L113.716 83.8407Z" fill="#367D7E"/>
<path d="M99.8771 122.803C99.782 122.803 99.685 122.772 99.6055 122.708C99.4173 122.558 99.3883 122.282 99.5376 122.095L111.45 107.172C113.353 104.787 114.67 101.943 115.258 98.9441C115.304 98.7066 115.533 98.5547 115.768 98.5995C116.005 98.6462 116.158 98.876 116.111 99.1116C115.496 102.248 114.119 105.223 112.129 107.718L100.217 122.64C100.131 122.747 100.005 122.803 99.8771 122.803Z" fill="white"/>
<path d="M73.5905 156.788L72.8903 169.266C73.2045 170.415 72.5295 171.601 71.385 171.918C70.4422 172.177 69.4665 171.762 68.9796 170.952C68.9001 170.822 68.8303 170.676 68.7798 170.522L67.8933 165.653L64.4017 171.264C63.6355 172.497 62.0448 172.915 60.7742 172.22C60.2912 171.821 60.107 171.182 60.2699 170.604C59.6841 171.241 58.7239 171.406 57.9402 170.952C57.657 170.785 57.4339 170.557 57.2787 170.3C57.0091 169.852 56.9354 169.309 57.075 168.809C56.3554 169.445 55.2807 169.545 54.4466 168.992C54.1692 168.809 53.9442 168.567 53.7812 168.299C53.37 167.613 53.3487 166.729 53.7968 166.009C53.8627 165.904 53.9015 165.843 53.9015 165.843C52.0063 167.859 49.9521 164.778 51.0267 163.561L60.2389 150.465" fill="#FFC1A4"/>
<path d="M70.8262 172.428C69.9358 172.428 69.0823 171.965 68.607 171.176C68.5023 171.001 68.4208 170.826 68.3665 170.655C68.3607 170.637 68.3549 170.618 68.3529 170.598L67.6682 166.838L64.772 171.494C64.644 171.698 64.3763 171.761 64.1726 171.632C63.969 171.504 63.9069 171.235 64.0349 171.03L67.5266 165.419C67.6216 165.267 67.802 165.187 67.9766 165.222C68.1531 165.255 68.2908 165.396 68.3238 165.573L69.2045 170.411C69.2394 170.512 69.2898 170.618 69.3539 170.725C69.7476 171.379 70.5371 171.696 71.2723 171.496C71.7127 171.375 72.0812 171.087 72.3082 170.688C72.5351 170.289 72.5933 169.825 72.4711 169.381C72.4071 169.15 72.5429 168.908 72.7757 168.844C73.0085 168.78 73.247 168.916 73.3111 169.15C73.4934 169.817 73.4061 170.516 73.0647 171.12C72.7233 171.722 72.1685 172.154 71.5032 172.339C71.2801 172.399 71.0531 172.43 70.8281 172.43L70.8262 172.428Z" fill="#060606"/>
<path d="M62.0798 172.989C61.5658 172.989 61.0478 172.865 60.5687 172.602C60.5435 172.588 60.5222 172.572 60.5008 172.555C60.1517 172.267 59.9189 171.873 59.8258 171.447C59.1662 171.739 58.3884 171.712 57.725 171.326C57.3855 171.126 57.1062 170.849 56.9083 170.522C56.7395 170.24 56.6309 169.926 56.5921 169.605C55.8201 169.907 54.9278 169.829 54.21 169.352C53.888 169.14 53.6126 168.852 53.4128 168.521C53.1102 168.016 52.988 167.442 53.0481 166.881C52.3245 167.066 51.6475 166.782 51.1917 166.363C50.3498 165.59 49.9425 164.128 50.7048 163.267L54.9006 157.751C55.0461 157.559 55.3196 157.524 55.5097 157.67C55.6998 157.816 55.7367 158.09 55.5912 158.281L51.374 163.822C50.9822 164.268 51.1878 165.178 51.7775 165.721C52.1053 166.023 52.7785 166.4 53.5874 165.54C53.7406 165.376 53.9928 165.357 54.1712 165.495C54.3478 165.633 54.3924 165.882 54.2721 166.073L54.1674 166.239C53.8182 166.799 53.8143 167.5 54.1557 168.069C54.2876 168.289 54.4719 168.482 54.6872 168.624C55.339 169.056 56.2022 168.996 56.79 168.478C56.9355 168.349 57.1469 168.334 57.3098 168.437C57.4728 168.54 57.5484 168.739 57.4961 168.924C57.3894 169.309 57.4456 169.728 57.6532 170.072C57.7754 170.275 57.9519 170.448 58.1634 170.575C58.755 170.917 59.4921 170.806 59.9538 170.306C60.0896 170.158 60.3107 170.123 60.4853 170.222C60.6599 170.322 60.7452 170.528 60.6909 170.723C60.5745 171.134 60.7045 171.576 61.0226 171.858C62.0818 172.413 63.3989 172.056 64.0332 171.034C64.1593 170.83 64.4289 170.768 64.6326 170.896C64.8363 171.025 64.8984 171.293 64.7703 171.498C64.1729 172.458 63.139 172.993 62.0779 172.993L62.0798 172.989Z" fill="#060606"/>
<path d="M53.9035 166.278C53.8065 166.278 53.7095 166.244 53.6281 166.18C53.4419 166.028 53.4147 165.754 53.566 165.567L57.3079 160.958C57.4592 160.771 57.7327 160.744 57.9189 160.896C58.1051 161.048 58.1323 161.324 57.981 161.509L54.2391 166.118C54.1538 166.223 54.0277 166.279 53.9016 166.279L53.9035 166.278Z" fill="#060606"/>
<path d="M57.077 169.243C56.9935 169.243 56.9082 169.22 56.8345 169.169C56.6347 169.035 56.5823 168.762 56.7162 168.563L59.3116 164.7C59.4455 164.5 59.717 164.447 59.9149 164.582C60.1147 164.716 60.1671 164.989 60.0332 165.187L57.4378 169.05C57.3543 169.175 57.2166 169.243 57.077 169.243Z" fill="#060606"/>
<path d="M60.2719 171.038C60.1904 171.038 60.1089 171.015 60.0371 170.968C59.8354 170.838 59.7772 170.567 59.9072 170.364L62.0487 167.035C62.1787 166.832 62.4483 166.774 62.6501 166.905C62.8518 167.035 62.91 167.306 62.78 167.508L60.6385 170.838C60.5551 170.966 60.4154 171.038 60.2719 171.038Z" fill="#060606"/>
<path d="M98.8896 114.875C98.7848 114.875 98.6801 114.838 98.5967 114.76C95.5938 112.013 92.8374 108.962 90.4068 105.695C90.2633 105.502 90.302 105.227 90.496 105.083C90.6881 104.939 90.9616 104.978 91.1051 105.171C93.5027 108.395 96.2223 111.403 99.1844 114.114C99.3629 114.275 99.3745 114.552 99.2135 114.731C99.1282 114.826 99.0098 114.873 98.8915 114.873L98.8896 114.875Z" fill="white"/>
<path d="M166.781 83.8407L165.095 108.126L158.931 106.641L166.781 83.8407Z" fill="#F7B094"/>
<path d="M85.0063 106.547L95.7548 124.562L98.6917 121.106L85.0063 106.547Z" fill="#F7B094"/>
<path d="M50.8229 27.8781C50.7531 27.8781 50.6813 27.8606 50.6153 27.8256C50.4039 27.7107 50.3263 27.4459 50.4408 27.2337C51.7404 24.831 52.3398 22.1031 52.173 19.3441C51.7327 12.066 45.9404 6.18197 38.6991 5.65821C32.1775 5.18507 26.0865 9.15319 23.8868 15.3059C23.8111 15.5182 23.5861 15.6369 23.3688 15.5805C22.6569 15.3955 21.9179 15.2903 21.173 15.265C15.9995 15.0956 11.4371 18.9664 10.7659 24.0794L10.7485 24.2118L9.88525 24.1067L9.90271 23.9645C10.6321 18.4115 15.5883 14.2078 21.2001 14.3927C21.8752 14.4142 22.5483 14.4998 23.202 14.6439C25.6404 8.33348 31.9796 4.29721 38.7593 4.78787C46.4312 5.34279 52.5707 11.5792 53.0382 19.2916C53.2147 22.2141 52.5804 25.1036 51.2031 27.6503C51.1236 27.7964 50.9742 27.8781 50.821 27.8781H50.8229Z" fill="#060F11"/>
<path d="M14.9248 25.8863C14.6842 25.8863 14.4902 25.6915 14.4902 25.4501C14.4902 21.9415 17.334 19.0871 20.8295 19.0871C21.0701 19.0871 21.264 19.2818 21.264 19.5232C21.264 19.7647 21.0701 19.9594 20.8295 19.9594C17.8131 19.9594 15.3593 22.4224 15.3593 25.4501C15.3593 25.6915 15.1653 25.8863 14.9248 25.8863Z" fill="#060F11"/>
<path d="M47.3467 17.1751C47.6512 18.1486 47.8161 19.1845 47.8161 20.2573L47.3467 17.1751Z" fill="white"/>
<path d="M47.8163 20.6935C47.5758 20.6935 47.3818 20.4987 47.3818 20.2573C47.3818 19.2507 47.2305 18.2557 46.9317 17.3056C46.86 17.0758 46.9861 16.8305 47.2169 16.7584C47.4458 16.6864 47.6902 16.8129 47.762 17.0427C48.0879 18.0785 48.2527 19.1592 48.2527 20.2573C48.2527 20.4987 48.0588 20.6935 47.8182 20.6935H47.8163Z" fill="#060F11"/>
<path d="M45.7638 14.529C45.6319 14.529 45.5019 14.4687 45.4166 14.3558C43.5505 11.8752 40.7087 10.4538 37.6147 10.4538C37.3742 10.4538 37.1802 10.2591 37.1802 10.0177C37.1802 9.77625 37.3742 9.58154 37.6147 9.58154C40.9822 9.58154 44.0781 11.1295 46.1091 13.83C46.2546 14.0228 46.2158 14.2954 46.0237 14.4414C45.9462 14.5018 45.853 14.529 45.7619 14.529H45.7638Z" fill="#060F11"/>
<path d="M136.411 52.6877C136.19 52.6877 136.002 52.5202 135.978 52.2963C135.953 52.0568 136.128 51.8426 136.366 51.8173C137.428 51.7083 138.436 51.1845 139.137 50.3765C139.837 49.5704 140.215 48.4937 140.176 47.4247C140.167 47.1833 140.355 46.9808 140.595 46.973C140.834 46.9633 141.038 47.1521 141.045 47.3936C141.092 48.6825 140.636 49.9773 139.792 50.9509C138.948 51.9225 137.732 52.5553 136.456 52.6857C136.44 52.6857 136.427 52.6877 136.411 52.6877Z" fill="white"/>
<path d="M127.691 55.7582C127.271 55.7582 126.85 55.6997 126.448 55.5829C126.217 55.5167 126.085 55.2733 126.151 55.0416C126.217 54.8099 126.458 54.6775 126.691 54.7437C127.497 54.9793 128.399 54.917 129.168 54.5763C129.936 54.2356 130.588 53.6047 130.956 52.8473C131.061 52.6312 131.323 52.5416 131.538 52.6468C131.753 52.7519 131.843 53.0147 131.738 53.2309C131.28 54.1694 130.471 54.9521 129.521 55.3746C128.95 55.6277 128.32 55.7562 127.691 55.7562V55.7582Z" fill="white"/>
<path d="M111.007 56.1417C110.815 56.1417 110.639 56.0113 110.587 55.8166C109.981 53.4976 110.583 50.9353 112.156 49.1304C112.313 48.9493 112.588 48.9298 112.769 49.0895C112.949 49.2491 112.969 49.5237 112.81 49.7047C111.425 51.2955 110.895 53.5521 111.428 55.5946C111.489 55.8283 111.351 56.0658 111.118 56.1281C111.081 56.1379 111.044 56.1417 111.007 56.1417Z" fill="white"/>
<path d="M121.329 42.3195C121.195 42.3195 121.061 42.2572 120.976 42.1384C120.834 41.9437 120.879 41.6692 121.073 41.529C123.374 39.8604 126.31 39.0737 129.133 39.3678C129.371 39.3931 129.546 39.6072 129.521 39.8467C129.496 40.0862 129.278 40.2595 129.044 40.2361C126.431 39.9636 123.713 40.6918 121.585 42.2358C121.507 42.2922 121.418 42.3195 121.331 42.3195H121.329Z" fill="white"/>
<path d="M175.601 47.4812C172.647 47.1522 169.877 50.287 169.413 54.4829C168.95 58.6788 170.969 62.3451 173.923 62.6742L193.444 64.8452C190.489 64.5161 188.47 60.8498 188.934 56.6539C189.397 52.4579 192.167 49.3251 195.122 49.6522L175.601 47.4812Z" fill="#141323"/>
<path d="M193.446 65.2813C193.43 65.2813 193.413 65.2813 193.397 65.2794L173.877 63.1084C170.69 62.754 168.494 58.8638 168.981 54.4361C169.47 50.0085 172.457 46.6946 175.648 47.049L195.168 49.22C195.407 49.2472 195.579 49.4614 195.552 49.7028C195.525 49.9423 195.314 50.1156 195.071 50.0884C192.363 49.7885 189.801 52.7539 189.364 56.7045C188.928 60.6531 190.78 64.1111 193.49 64.4129C193.729 64.4402 193.901 64.6544 193.874 64.8958C193.849 65.1197 193.661 65.2852 193.442 65.2852L193.446 65.2813ZM175.174 47.896C172.608 47.896 170.263 50.7679 169.848 54.5316C169.411 58.4802 171.264 61.9382 173.974 62.24L190.881 64.1189C189.149 62.5827 188.158 59.7283 188.503 56.6052C188.848 53.4821 190.437 50.9139 192.462 49.7963L175.555 47.9174C175.429 47.9037 175.301 47.896 175.174 47.896Z" fill="#060F11"/>
<path d="M187.473 46.8855C184.518 46.5564 181.655 50.5382 181.077 55.7797C180.499 61.0192 182.425 65.5345 185.38 65.8635L204.9 68.0345C201.946 67.7054 200.019 63.1921 200.597 57.9506C201.175 52.7111 204.039 48.7293 206.993 49.0564L187.473 46.8855Z" fill="white"/>
<path d="M204.9 68.4687C204.884 68.4687 204.867 68.4687 204.851 68.4667L185.333 66.2977C182.092 65.9375 180.033 61.2957 180.646 55.7329C180.934 53.1258 181.781 50.7309 183.032 48.9902C184.336 47.1775 185.93 46.276 187.521 46.4532L207.041 48.6242C207.28 48.6514 207.453 48.8656 207.425 49.107C207.398 49.3465 207.185 49.5198 206.944 49.4926C204.231 49.1908 201.579 53.009 201.028 58.0012C200.477 62.9935 202.235 67.3004 204.946 67.6022C205.185 67.6295 205.358 67.8437 205.33 68.0851C205.305 68.309 205.117 68.4745 204.898 68.4745L204.9 68.4687ZM187.131 47.3021C185.958 47.3021 184.765 48.0712 183.737 49.4984C182.573 51.1184 181.781 53.3653 181.51 55.8264C180.959 60.8187 182.716 65.1256 185.428 65.4274L202.541 67.3296C200.702 65.5675 199.715 61.983 200.165 57.9C200.615 53.8189 202.361 50.5362 204.539 49.22L187.426 47.3177C187.327 47.306 187.23 47.3021 187.131 47.3021Z" fill="#060F11"/>
<path d="M226.278 60.8044C227.06 53.7194 225.299 47.7096 222.345 47.3812C219.392 47.0529 216.363 52.5302 215.582 59.6153C214.8 66.7004 216.561 72.7102 219.514 73.0385C222.468 73.3669 225.496 67.8895 226.278 60.8044Z" fill="white"/>
<path d="M219.767 73.4902C219.666 73.4902 219.567 73.4843 219.466 73.4726C217.852 73.2935 216.526 71.6989 215.728 68.9847C214.97 66.3951 214.764 63.05 215.148 59.5686C215.969 52.1309 219.158 46.5895 222.394 46.9497C224.007 47.1288 225.334 48.7235 226.132 51.4377C226.89 54.0273 227.096 57.3724 226.712 60.8537C225.916 68.0618 222.904 73.4902 219.767 73.4902ZM222.089 47.8045C219.484 47.8045 216.737 53.1219 216.014 59.6641C215.641 63.0344 215.837 66.2568 216.564 68.7374C217.245 71.0583 218.337 72.468 219.563 72.6043C222.244 72.9022 225.105 67.4737 225.848 60.7564C226.221 57.386 226.025 54.1636 225.297 51.683C224.617 49.3621 223.524 47.9524 222.299 47.8162C222.229 47.8084 222.159 47.8045 222.089 47.8045Z" fill="#060F11"/>
<path d="M202.827 45.2109C199.872 44.8819 196.844 50.359 196.062 57.4443C195.281 64.5297 197.042 70.5384 199.996 70.8674L219.517 73.0384C216.562 72.7093 214.801 66.7007 215.583 59.6153C216.364 52.5299 219.392 47.0528 222.347 47.3819L202.827 45.2109Z" fill="#E7EBFB"/>
<path d="M219.515 73.4745C219.499 73.4745 219.482 73.4746 219.466 73.4726L199.946 71.3016C198.332 71.1225 197.005 69.5278 196.208 66.8136C195.449 64.224 195.244 60.879 195.628 57.3976C196.448 49.9598 199.639 44.4185 202.873 44.7787L222.393 46.9497C222.632 46.9769 222.805 47.1911 222.777 47.4325C222.75 47.672 222.537 47.8453 222.296 47.8181C219.621 47.5221 216.754 52.9486 216.013 59.666C215.641 63.0363 215.837 66.2587 216.564 68.7393C217.243 71.0602 218.337 72.4699 219.561 72.6062C219.8 72.6334 219.972 72.8495 219.945 73.089C219.92 73.3129 219.732 73.4784 219.513 73.4784L219.515 73.4745ZM202.569 45.6335C199.963 45.6335 197.217 50.9509 196.493 57.493C196.121 60.8634 196.317 64.0858 197.044 66.5664C197.725 68.8873 198.817 70.2969 200.043 70.4332L217.458 72.3686C216.75 71.6015 216.161 70.4585 215.728 68.9807C214.97 66.3911 214.764 63.0461 215.148 59.5647C215.781 53.8326 217.815 49.2258 220.199 47.5805L202.776 45.6432C202.706 45.6354 202.636 45.6315 202.567 45.6315L202.569 45.6335Z" fill="#060F11"/>
<path d="M228.952 60.7933C228.374 66.0329 224.003 70.1568 221.425 69.8686C218.847 69.5805 217.229 65.1022 217.808 59.8626C218.386 54.6231 220.942 50.6063 223.52 50.8925C226.096 51.1787 229.53 55.5518 228.952 60.7933Z" fill="#4A4DDC"/>
<path d="M221.679 70.3203C221.576 70.3203 221.478 70.3145 221.379 70.3048C218.521 69.9874 216.762 65.3806 217.377 59.8159C217.664 57.2166 218.436 54.8217 219.549 53.0713C220.721 51.2294 222.149 50.3025 223.569 50.4603C225.008 50.6199 226.626 51.8836 227.79 53.7566C229.091 55.8536 229.658 58.3692 229.386 60.844C229.115 63.2992 227.978 65.7973 226.263 67.6996C224.781 69.3429 223.058 70.3223 221.681 70.3223L221.679 70.3203ZM223.26 51.315C222.251 51.315 221.202 52.0958 220.283 53.5405C219.239 55.1799 218.513 57.4424 218.242 59.9113C217.701 64.8199 219.181 69.1813 221.476 69.4364C222.608 69.5629 224.232 68.6498 225.617 67.1116C227.212 65.3436 228.269 63.0227 228.521 60.7466C228.773 58.4666 228.251 56.1496 227.051 54.2181C226.04 52.5923 224.637 51.4572 223.474 51.3286C223.402 51.3209 223.332 51.317 223.26 51.317V51.315Z" fill="#060F11"/>
<path d="M158.801 56.7161C155.846 56.387 153.076 59.5218 152.613 63.7177C152.149 67.9137 154.168 71.58 157.123 71.909L176.643 74.08C173.689 73.751 171.669 70.0846 172.133 65.8887C172.597 61.6928 175.367 58.56 178.321 58.8871L158.801 56.7161Z" fill="#141323"/>
<path d="M176.645 74.5142C176.629 74.5142 176.612 74.5142 176.596 74.5123L157.078 72.3433C155.505 72.168 154.131 71.1497 153.208 69.4752C152.314 67.8494 151.949 65.7894 152.182 63.671C152.415 61.5526 153.22 59.6211 154.448 58.2329C155.712 56.8018 157.276 56.1086 158.849 56.2839L178.369 58.4548C178.608 58.4821 178.78 58.6963 178.753 58.9377C178.726 59.1772 178.513 59.3505 178.272 59.3232C176.988 59.1811 175.69 59.7691 174.618 60.9841C173.508 62.2399 172.779 64.0001 172.565 65.9394C172.352 67.8786 172.678 69.7576 173.487 71.2256C174.268 72.6451 175.407 73.5057 176.691 73.6478C176.93 73.6751 177.102 73.8892 177.075 74.1307C177.05 74.3546 176.862 74.5201 176.643 74.5201L176.645 74.5142ZM158.374 57.1289C157.216 57.1289 156.065 57.715 155.097 58.8092C153.988 60.0651 153.258 61.8252 153.045 63.7645C152.832 65.7038 153.158 67.5827 153.966 69.0508C154.748 70.4702 155.887 71.3308 157.171 71.4729L174.061 73.3499C173.553 72.8982 173.101 72.3238 172.724 71.6423C171.83 70.0165 171.465 67.9546 171.698 65.8381C171.931 63.7197 172.736 61.7882 173.964 60.4C174.48 59.8158 175.044 59.3563 175.64 59.0273L158.75 57.1503C158.624 57.1367 158.498 57.1289 158.372 57.1289H158.374Z" fill="#060F11"/>
<path d="M170.672 56.1203C167.718 55.7913 164.854 59.773 164.276 65.0145C163.698 70.2541 165.624 74.7693 168.579 75.0984L188.099 77.2694C185.145 76.9403 183.219 72.427 183.797 67.1855C184.375 61.9459 187.238 57.9642 190.192 58.2913L170.672 56.1203Z" fill="white"/>
<path d="M188.097 77.7036C188.082 77.7036 188.064 77.7036 188.049 77.7016L168.528 75.5306C165.287 75.1704 163.229 70.5286 163.842 64.9659C164.457 59.4031 167.473 55.3259 170.718 55.6861L190.239 57.8571C190.477 57.8844 190.65 58.0985 190.623 58.34C190.596 58.5795 190.38 58.7528 190.142 58.7255C187.422 58.4237 184.778 62.2419 184.227 67.2342C183.676 72.2265 185.434 76.5334 188.146 76.8352C188.384 76.8624 188.557 77.0766 188.53 77.318C188.504 77.542 188.316 77.7075 188.097 77.7075V77.7036ZM170.323 56.537C167.719 56.537 165.238 60.2539 164.709 65.0613C164.158 70.0535 165.915 74.3604 168.627 74.6622L185.74 76.5645C183.901 74.8024 182.914 71.2159 183.364 67.1349C183.814 63.0538 185.56 59.7711 187.738 58.4549L170.625 56.5526C170.524 56.5409 170.424 56.5351 170.325 56.5351L170.323 56.537Z" fill="#060F11"/>
<path d="M209.476 70.0381C210.258 62.953 208.497 56.9432 205.544 56.6149C202.59 56.2865 199.562 61.7639 198.78 68.8489C197.998 75.934 199.759 81.9438 202.713 82.2722C205.666 82.6005 208.695 77.1232 209.476 70.0381Z" fill="white"/>
<path d="M202.966 82.7231C202.865 82.7231 202.766 82.7172 202.665 82.7056C199.424 82.3453 197.527 76.2374 198.347 68.7996C198.731 65.3163 199.662 62.0998 200.966 59.738C202.333 57.2632 203.976 55.9996 205.59 56.1787C207.204 56.3579 208.531 57.9525 209.328 60.6667C210.087 63.2563 210.294 66.6014 209.908 70.0827C209.113 77.2908 206.099 82.7192 202.964 82.7192L202.966 82.7231ZM205.297 57.0393C204.124 57.0393 202.836 58.1628 201.728 60.1644C200.477 62.4249 199.585 65.5266 199.212 68.897C198.471 75.6163 200.097 81.5412 202.76 81.8372C205.433 82.1351 208.304 76.7066 209.045 69.9893C209.418 66.6189 209.222 63.3965 208.494 60.9159C207.813 58.595 206.721 57.1854 205.495 57.0491C205.429 57.0413 205.363 57.0374 205.295 57.0374L205.297 57.0393Z" fill="#060F11"/>
<path d="M186.026 54.4458C183.071 54.1168 180.043 59.5939 179.262 66.6793C178.48 73.7646 180.241 79.7733 183.196 80.1023L202.716 82.2733C199.762 81.9443 198 75.9356 198.782 68.8502C199.564 61.7649 202.592 56.2878 205.546 56.6168L186.026 54.4458Z" fill="#E7EBFB"/>
<path d="M202.714 82.7095C202.698 82.7095 202.681 82.7095 202.665 82.7075L183.145 80.5365C179.904 80.1763 178.007 74.0684 178.827 66.6306C179.211 63.1473 180.142 59.9307 181.446 57.569C182.813 55.0942 184.458 53.8306 186.07 54.0097L205.589 56.1787C205.827 56.206 206 56.4202 205.973 56.6616C205.946 56.9011 205.73 57.0744 205.492 57.0471C204.27 56.9108 202.892 58.046 201.723 60.1624C200.471 62.423 199.579 65.5247 199.207 68.895C198.466 75.6144 200.091 81.5393 202.755 81.8352C202.993 81.8625 203.166 82.0767 203.139 82.3181C203.113 82.542 202.925 82.7075 202.706 82.7075L202.714 82.7095ZM185.777 54.8684C184.604 54.8684 183.316 55.9918 182.208 57.9934C180.957 60.254 180.065 63.3556 179.692 66.726C178.951 73.4453 180.577 79.3703 183.24 79.6682L200.663 81.6055C198.696 79.4754 197.715 74.5337 198.347 68.8016C198.731 65.3183 199.663 62.1017 200.966 59.7399C201.709 58.3945 202.535 57.4073 203.393 56.8154L185.977 54.88C185.911 54.8723 185.845 54.8684 185.777 54.8684Z" fill="#060F11"/>
<path d="M212.151 70.0283C211.573 75.2678 207.202 79.3917 204.624 79.1035C202.048 78.8173 200.429 74.3371 201.007 69.0976C201.585 63.858 204.141 59.8412 206.719 60.1274C209.295 60.4136 212.729 64.7868 212.151 70.0283Z" fill="#4A4DDC"/>
<path d="M204.877 79.5533C204.774 79.5533 204.675 79.5475 204.576 79.5377C201.717 79.2204 199.959 74.6136 200.574 69.0489C201.189 63.4842 203.913 59.3759 206.766 59.6932C208.205 59.8529 209.823 61.1165 210.987 62.9896C212.289 65.0866 212.855 67.6022 212.583 70.0769C212.312 72.5322 211.175 75.0303 209.46 76.9326C207.978 78.5759 206.256 79.5553 204.879 79.5553L204.877 79.5533ZM206.458 60.548C204.231 60.548 201.963 64.3876 201.437 69.1443C200.896 74.0529 202.376 78.4143 204.671 78.6693C205.798 78.7959 207.427 77.8827 208.812 76.3446C210.407 74.5766 211.464 72.2557 211.716 69.9796C211.969 67.6996 211.447 65.3826 210.246 63.4511C209.235 61.8253 207.831 60.6901 206.669 60.5616C206.597 60.5538 206.527 60.5499 206.456 60.5499L206.458 60.548Z" fill="#060F11"/>
<g opacity="0.4">
<path d="M226.379 55.581C226.674 57.1932 226.127 58.7236 225.159 58.9981C224.189 59.2727 223.163 58.1901 222.868 56.576C222.574 54.9638 223.121 53.4334 224.089 53.1589C225.058 52.8843 226.085 53.9669 226.379 55.581Z" fill="white"/>
</g>
<g opacity="0.4">
<path d="M226.961 61.3911C226.936 62.462 226.37 63.4862 225.696 63.677C225.023 63.8678 224.498 63.1532 224.523 62.0823C224.548 61.0114 225.114 59.9873 225.788 59.7965C226.461 59.6056 226.986 60.3202 226.961 61.3911Z" fill="white"/>
</g>
<g opacity="0.4">
<path d="M209.924 65.9492C210.219 67.5614 209.672 69.0918 208.704 69.3663C207.736 69.6408 206.708 68.5583 206.413 66.9442C206.118 65.332 206.665 63.8016 207.633 63.527C208.603 63.2525 209.629 64.3351 209.924 65.9492Z" fill="white"/>
</g>
<g opacity="0.4">
<path d="M214.748 71.7611C214.723 72.832 214.157 73.8561 213.484 74.047C212.81 74.2378 212.285 73.5232 212.31 72.4523C212.335 71.3814 212.902 70.3573 213.575 70.1665C214.248 69.9756 214.774 70.6902 214.748 71.7611Z" fill="white"/>
</g>
<path d="M190.625 52.3936C188.994 49.1946 188.559 42.6408 192.891 41.3324C195.95 40.4095 196.512 43.7681 196.512 43.7681C196.512 43.7681 197.224 41.9437 198.834 41.8678C200.462 41.7899 200.982 44.0388 200.982 44.0388C200.982 44.0388 202.753 42.5123 203.895 42.9192C205.042 43.3262 205.544 44.9695 205.544 44.9695C205.544 44.9695 208.12 41.8211 210.11 44.6696C212.052 47.45 210.178 52.0841 208.754 52.75C206.368 53.8695 205.992 51.1728 205.992 51.1728" fill="#FFC1A4"/>
<path d="M205.992 51.1748C205.992 51.1748 204.46 53.3361 203.073 52.9174C201.69 52.5008 201.686 51.0619 201.686 51.0619C201.686 51.0619 200.115 53.5541 198.32 53.8501C196.553 54.1421 196.217 51.6674 196.217 51.6674C196.217 51.6674 194.349 54.3836 192.652 54.2862C191.907 54.2434 191.189 53.5016 190.625 52.3956" fill="#FFC1A4"/>
<path d="M198.033 54.3115C197.63 54.3115 197.263 54.1908 196.937 53.9493C196.002 53.2562 195.793 51.7881 195.785 51.7258C195.752 51.4863 195.919 51.2682 196.157 51.2351C196.398 51.202 196.615 51.3695 196.648 51.607C196.693 51.9302 196.927 52.8551 197.457 53.2484C197.682 53.4139 197.942 53.4704 198.248 53.4197C199.827 53.1588 201.304 50.8516 201.317 50.8282C201.42 50.6646 201.62 50.5887 201.806 50.6432C201.992 50.6978 202.12 50.8671 202.12 51.0619C202.12 51.0657 202.138 51.7764 202.656 52.2145C202.84 52.3703 202.863 52.6448 202.708 52.8298C202.553 53.0148 202.279 53.0381 202.095 52.8824C201.804 52.637 201.614 52.3469 201.488 52.0724C200.836 52.8843 199.686 54.0681 198.388 54.2823C198.266 54.3018 198.148 54.3115 198.031 54.3115H198.033Z" fill="#060606"/>
<path d="M207.693 53.4607C207.369 53.4607 207.071 53.3867 206.795 53.2368C205.775 52.6799 205.569 51.2936 205.561 51.2352C205.528 50.9957 205.693 50.7757 205.932 50.7426C206.17 50.7095 206.39 50.875 206.423 51.1144C206.463 51.3948 206.684 52.1873 207.212 52.4716C207.555 52.6565 208.013 52.6176 208.57 52.3567C208.789 52.2554 209.047 52.3489 209.148 52.567C209.249 52.785 209.156 53.0459 208.939 53.1472C208.492 53.3575 208.075 53.4607 207.693 53.4607Z" fill="#060606"/>
<path d="M192.65 54.7224C192.615 54.7224 192.578 54.7185 192.541 54.7087C190.792 54.259 189.133 50.6686 189.061 47.1755C188.995 43.9278 190.346 41.6459 192.764 40.9157C193.76 40.6159 194.631 40.6918 195.354 41.1416C195.998 41.5446 196.394 42.1716 196.629 42.7031C197.059 42.1268 197.771 41.4804 198.815 41.4317C200.182 41.3655 200.89 42.5551 201.201 43.3203C201.874 42.8453 203.075 42.1657 204.041 42.5084C204.875 42.8044 205.406 43.6105 205.693 44.1926C206.24 43.6922 207.189 43.003 208.267 43.0439C209.111 43.075 209.85 43.5384 210.467 44.4204C211.402 45.7581 211.629 47.6876 211.092 49.7106C210.649 51.3695 209.784 52.7519 208.941 53.1472C208.723 53.2484 208.463 53.155 208.362 52.9369C208.262 52.7188 208.355 52.4579 208.572 52.3567C209.078 52.1191 209.841 51.0307 210.252 49.4847C210.723 47.711 210.543 46.0482 209.755 44.9208C209.305 44.2763 208.793 43.9376 208.238 43.9142C207.032 43.8675 205.893 45.2324 205.881 45.246C205.781 45.3687 205.618 45.4271 205.462 45.3959C205.305 45.3648 205.177 45.2499 205.131 45.098C205.007 44.6989 204.518 43.6007 203.753 43.3301C203.016 43.0672 201.678 44.0174 201.267 44.3698C201.152 44.4691 200.993 44.5003 200.85 44.4535C200.706 44.4068 200.595 44.2861 200.561 44.1381C200.557 44.1186 200.116 42.2436 198.857 42.304C197.554 42.3663 196.925 43.9142 196.92 43.9298C196.848 44.1108 196.663 44.2238 196.47 44.2024C196.276 44.1809 196.118 44.0349 196.087 43.8422C196.085 43.8305 195.841 42.4695 194.894 41.8815C194.394 41.5719 193.763 41.5271 193.019 41.753C190.256 42.5863 189.901 45.4972 189.934 47.16C190 50.396 191.544 53.5522 192.761 53.8637C192.993 53.9241 193.133 54.1616 193.075 54.3953C193.024 54.5919 192.848 54.7243 192.654 54.7243L192.65 54.7224Z" fill="#060606"/>
<path d="M205.656 48.9513C205.637 48.9513 205.617 48.9513 205.596 48.9474C205.358 48.9143 205.191 48.6943 205.224 48.4567C205.422 46.9964 205.101 45.0202 205.098 45.0007C205.059 44.7631 205.218 44.5373 205.456 44.4983C205.693 44.4594 205.918 44.6191 205.957 44.8585C205.971 44.9442 206.302 46.9867 206.087 48.5755C206.058 48.7936 205.87 48.9532 205.656 48.9532V48.9513Z" fill="#060606"/>
<path d="M200.991 49.5256C200.972 49.5256 200.954 49.5256 200.935 49.5218C200.696 49.4906 200.527 49.2725 200.558 49.033C200.758 47.4832 200.549 44.1011 200.547 44.0661C200.531 43.8246 200.714 43.6182 200.954 43.6027C201.197 43.5871 201.4 43.7701 201.416 44.0116C201.426 44.1537 201.631 47.5124 201.422 49.144C201.393 49.364 201.206 49.5256 200.991 49.5256Z" fill="#060606"/>
<path d="M196.369 49.0914C196.328 49.0914 196.287 49.0856 196.246 49.0739C196.016 49.0058 195.884 48.7643 195.95 48.5326C196.338 47.195 196.081 43.8363 196.078 43.8032C196.058 43.5637 196.239 43.3534 196.477 43.334C196.714 43.3145 196.925 43.4956 196.945 43.735C196.956 43.8791 197.216 47.2865 196.784 48.778C196.727 48.9688 196.555 49.0934 196.367 49.0934L196.369 49.0914Z" fill="#060606"/>
<path d="M88.4648 11.548C88.4648 11.548 80.6532 17.0796 78.9946 20.0548L86.0691 40.0083L89.9545 35.8163L93.2561 45.0493L96.9495 40.4191L102.517 51.0637L99.9115 31.6184L96.8408 33.9549L94.8642 24.7472L92.0204 26.9669L88.4628 11.548H88.4648Z" fill="#FFD400"/>
<path d="M118.355 0C118.355 0 110.286 0.142136 107.721 1.42915L103.229 18.7288L107.923 17.6521L105.865 25.6701L110.633 24.1962L109.488 34.2781L116.863 19.4609L113.614 19.6303L116.586 12.2607L113.552 12.4573L118.355 0Z" fill="#FFD400"/>
<path d="M142.558 215.279C149.415 219.882 156.209 223.942 161.966 219.148L160.057 192.939L141.87 192.133L142.56 215.279H142.558Z" fill="#FFC1A4"/>
<path d="M161.134 208.891L142.475 212.526L142.322 207.236L161.134 208.891Z" fill="black"/>
<path d="M161.964 218.749C161.964 218.749 163.341 222.024 166.051 223.003C168.761 223.983 171.027 225.297 172.07 227.77C173.114 230.243 172.782 236.002 172.782 236.002L141.352 235.908L141.414 214.553C141.414 214.553 142.764 213.332 146.626 215.118C150.49 216.901 155.442 219.997 161.964 218.751V218.749Z" fill="#FFD400"/>
<path d="M172.823 232.963C172.862 234.643 172.784 236.002 172.784 236.002L141.354 235.909L141.363 232.869L172.825 232.963H172.823Z" fill="#060606"/>
<path d="M157.699 221.886C152.316 221.886 148.653 220.005 146.182 218.402C143.627 216.745 141.631 217.612 141.612 217.622C141.362 217.735 141.067 217.622 140.954 217.37C140.842 217.119 140.954 216.823 141.205 216.71C141.305 216.666 143.717 215.616 146.721 217.563C149.821 219.573 154.888 222.039 163.091 220.283C163.359 220.225 163.625 220.398 163.681 220.667C163.739 220.935 163.567 221.202 163.299 221.259C161.252 221.697 159.39 221.882 157.699 221.882V221.886Z" fill="black"/>
<path d="M162.263 224.925C162.149 224.925 162.034 224.886 161.939 224.804C161.732 224.625 161.706 224.31 161.885 224.102L163.968 221.666C164.147 221.457 164.461 221.432 164.668 221.613C164.876 221.792 164.901 222.108 164.723 222.316L162.639 224.752C162.54 224.867 162.403 224.925 162.261 224.925H162.263Z" fill="black"/>
<path d="M164.067 225.965C163.952 225.965 163.838 225.926 163.743 225.844C163.535 225.665 163.51 225.35 163.688 225.141L165.772 222.705C165.95 222.497 166.265 222.472 166.472 222.653C166.68 222.832 166.705 223.147 166.526 223.356L164.443 225.791C164.344 225.906 164.206 225.965 164.065 225.965H164.067Z" fill="black"/>
<path d="M165.873 227.003C165.758 227.003 165.644 226.964 165.549 226.882C165.341 226.703 165.316 226.387 165.495 226.179L167.578 223.743C167.756 223.535 168.071 223.51 168.278 223.691C168.486 223.87 168.511 224.185 168.333 224.394L166.249 226.829C166.15 226.944 166.013 227.003 165.871 227.003H165.873Z" fill="black"/>
<path d="M150.149 233.395C149.937 233.395 149.741 233.258 149.675 233.046C147.681 226.705 141.424 226.66 141.383 226.658C141.109 226.644 140.884 226.436 140.884 226.161C140.884 225.885 141.105 225.661 141.379 225.661C141.474 225.661 148.418 225.731 150.622 232.746C150.706 233.009 150.56 233.29 150.298 233.371C150.248 233.387 150.197 233.395 150.149 233.395Z" fill="black"/>
<path d="M180.425 215.279C187.282 219.882 194.075 223.942 199.833 219.148L197.924 192.939L179.736 192.133L180.427 215.279H180.425Z" fill="#FFC1A4"/>
<path d="M199.001 208.891L180.342 212.526L180.188 207.236L199.001 208.891Z" fill="black"/>
<path d="M199.831 218.749C199.831 218.749 201.208 222.024 203.918 223.003C206.628 223.983 208.893 225.297 209.937 227.77C210.981 230.243 210.649 236.002 210.649 236.002L179.218 235.908L179.28 214.553C179.28 214.553 180.63 213.332 184.493 215.118C188.357 216.901 193.309 219.997 199.831 218.751V218.749Z" fill="#FFD400"/>
<path d="M210.69 232.963C210.728 234.643 210.651 236.002 210.651 236.002L179.22 235.909L179.23 232.869L210.692 232.963H210.69Z" fill="#060606"/>
<path d="M195.565 221.886C190.182 221.886 186.52 220.005 184.049 218.402C181.494 216.745 179.498 217.612 179.479 217.622C179.228 217.735 178.934 217.622 178.821 217.37C178.708 217.119 178.821 216.823 179.071 216.71C179.172 216.666 181.583 215.616 184.588 217.563C187.688 219.573 192.755 222.039 200.958 220.283C201.226 220.225 201.492 220.398 201.548 220.667C201.606 220.935 201.433 221.202 201.166 221.259C199.119 221.697 197.257 221.882 195.565 221.882V221.886Z" fill="black"/>
<path d="M200.13 224.925C200.015 224.925 199.901 224.886 199.806 224.804C199.598 224.625 199.573 224.31 199.751 224.102L201.835 221.666C202.013 221.457 202.328 221.432 202.535 221.613C202.743 221.792 202.768 222.108 202.589 222.316L200.506 224.752C200.407 224.867 200.269 224.925 200.128 224.925H200.13Z" fill="black"/>
<path d="M201.935 225.965C201.821 225.965 201.706 225.926 201.611 225.844C201.404 225.665 201.379 225.35 201.557 225.141L203.64 222.705C203.819 222.497 204.133 222.472 204.341 222.653C204.548 222.832 204.574 223.147 204.395 223.356L202.312 225.791C202.213 225.906 202.075 225.965 201.933 225.965H201.935Z" fill="black"/>
<path d="M203.74 227.003C203.625 227.003 203.511 226.964 203.416 226.882C203.208 226.703 203.183 226.387 203.361 226.179L205.445 223.743C205.623 223.535 205.937 223.51 206.145 223.691C206.352 223.87 206.378 224.185 206.199 224.394L204.116 226.829C204.017 226.944 203.879 227.003 203.738 227.003H203.74Z" fill="black"/>
<path d="M188.015 233.395C187.804 233.395 187.608 233.258 187.542 233.046C185.556 226.73 179.506 226.658 179.25 226.658C178.976 226.658 178.753 226.436 178.751 226.159C178.751 225.885 178.972 225.661 179.246 225.659C179.341 225.659 186.285 225.729 188.489 232.744C188.572 233.007 188.427 233.288 188.165 233.369C188.114 233.385 188.064 233.393 188.015 233.393V233.395Z" fill="black"/>
<path d="M170.629 155.748L174.291 208.848H202.713L200.944 153.076C200.603 142.288 191.579 133.841 180.832 134.248L151.078 135.181L153.628 160.843L170.629 155.748Z" fill="#141323"/>
<path d="M166.039 142.077L170.629 155.748L165.095 157.407L166.039 142.077Z" fill="#060606"/>
<path d="M182.815 201.436C182.594 201.436 182.404 201.266 182.382 201.04L176.9 144.317C176.662 141.844 174.794 139.807 172.359 139.361C169.942 138.919 167.558 140.091 166.425 142.28L163.475 147.973C163.364 148.187 163.101 148.271 162.889 148.158C162.676 148.047 162.592 147.784 162.705 147.57L165.655 141.877C166.967 139.348 169.723 137.992 172.516 138.503C175.331 139.017 177.49 141.375 177.768 144.233L183.249 200.957C183.273 201.196 183.098 201.41 182.858 201.434C182.844 201.434 182.828 201.436 182.815 201.436Z" fill="white"/>
<path d="M138.525 161.616L137.99 208.848H167.248L166.823 146.634C166.775 139.607 160.565 134.235 153.636 135.224L107.027 136.207L106.93 151.018C108.875 158.557 114.584 161.963 123.15 162.387L138.527 161.614L138.525 161.616Z" fill="#141323"/>
<path d="M111.746 154.782C111.583 154.782 111.428 154.691 111.352 154.533C111.25 154.315 111.343 154.054 111.56 153.951C116.045 151.819 119.253 147.239 119.736 142.282C119.76 142.042 119.971 141.867 120.212 141.891C120.45 141.914 120.625 142.128 120.601 142.368C120.089 147.623 116.687 152.481 111.93 154.739C111.87 154.768 111.806 154.782 111.744 154.782H111.746Z" fill="white"/>
<path d="M156.422 199.559C156.422 199.559 156.41 199.559 156.404 199.559C156.164 199.549 155.978 199.347 155.987 199.105L157.687 155.123C157.78 152.699 156.816 150.364 155.041 148.717C153.266 147.072 150.87 146.291 148.471 146.577C123.577 149.546 123.22 149.463 123.049 149.422C122.815 149.367 122.669 149.132 122.725 148.898C122.778 148.678 122.987 148.536 123.205 148.565C123.532 148.569 126.706 148.294 148.37 145.711C151.023 145.393 153.669 146.256 155.632 148.076C157.595 149.897 158.662 152.477 158.558 155.158L156.858 199.14C156.849 199.376 156.657 199.561 156.424 199.561L156.422 199.559Z" fill="white"/>
</g>
<defs>
<clipPath id="clip0_12112_30510">
<rect width="256" height="236" fill="white"/>
</clipPath>
</defs>
</svg>
