<svg width="45" height="45" viewBox="0 0 45 45" fill="none" xmlns="http://www.w3.org/2000/svg">
<rect x="0.5" y="0.5" width="44" height="44" rx="15.5" fill="#EEF1F1"/>
<rect x="0.5" y="0.5" width="44" height="44" rx="15.5" stroke="#E9E9E9"/>
<path d="M19.126 17.365L12.9321 15.1494V27.4454C12.9321 32.5154 17.0467 36.6259 22.1216 36.6259C27.1965 36.6259 31.3111 32.5154 31.3111 27.4454V15.1494L25.2066 17.365L25.1613 20.1252H26.3447V27.4466C26.3447 29.7778 24.4539 31.6668 22.1204 31.6668C19.787 31.6668 17.8961 29.7778 17.8961 27.4466V20.1252H19.0795L19.1249 17.365H19.126Z" fill="#045D5E"/>
<path d="M22.1218 8.5L10 12.6502L22.1218 16.8015L34.2437 12.6502L22.1218 8.5Z" fill="#FC7300"/>
</svg>
