<svg width="15" height="15" viewBox="0 0 15 15" fill="none" xmlns="http://www.w3.org/2000/svg">
<g id="elements">
<path id="Vector (Stroke)" fill-rule="evenodd" clip-rule="evenodd" d="M10.6953 10.6953C10.9556 10.4349 11.3777 10.4349 11.6381 10.6953L14.6381 13.6953C14.8984 13.9556 14.8984 14.3777 14.6381 14.6381C14.3777 14.8984 13.9556 14.8984 13.6953 14.6381L10.6953 11.6381C10.4349 11.3777 10.4349 10.9556 10.6953 10.6953Z" fill="black"/>
<path id="Vector (Stroke)_2" fill-rule="evenodd" clip-rule="evenodd" d="M0.166992 6.83329C0.166992 3.15139 3.15176 0.166626 6.83366 0.166626C10.5156 0.166626 13.5003 3.15139 13.5003 6.83329C13.5003 10.5152 10.5156 13.5 6.83366 13.5C3.15176 13.5 0.166992 10.5152 0.166992 6.83329ZM6.83366 1.49996C3.88814 1.49996 1.50033 3.88777 1.50033 6.83329C1.50033 9.77881 3.88814 12.1666 6.83366 12.1666C9.77918 12.1666 12.167 9.77881 12.167 6.83329C12.167 3.88777 9.77918 1.49996 6.83366 1.49996Z" fill="black"/>
</g>
</svg>
