<svg width="33" height="33" viewBox="0 0 33 33" fill="none" xmlns="http://www.w3.org/2000/svg">
<g id="Frame 34562">
<rect x="0.5" y="0.501465" width="32" height="32" rx="16" fill="#076461"/>
<path id="Path 2520" d="M24.5923 24.5015H21.2407V19.3044C21.2407 18.0652 21.2184 16.4698 19.4975 16.4698C17.7519 16.4698 17.4848 17.8201 17.4848 19.2142V24.5011H14.1332V13.8139H17.3508V15.2745H17.3958C17.7178 14.7293 18.1831 14.2809 18.7421 13.9769C19.3012 13.6729 19.933 13.5247 20.5704 13.5481C23.9674 13.5481 24.5937 15.7605 24.5937 18.6387L24.5923 24.5015ZM10.3516 12.3531C9.96688 12.3531 9.59082 12.2403 9.27093 12.0287C8.95104 11.8172 8.70172 11.5164 8.55444 11.1646C8.40717 10.8127 8.36857 10.4255 8.44355 10.0519C8.51853 9.67832 8.70372 9.33514 8.97567 9.06577C9.24763 8.79639 9.59416 8.61291 9.97143 8.53854C10.3487 8.46416 10.7398 8.50223 11.0952 8.64793C11.4506 8.79362 11.7544 9.0404 11.9682 9.35706C12.182 9.67372 12.2961 10.046 12.2962 10.4269C12.2962 10.6798 12.246 10.9303 12.1483 11.1639C12.0506 11.3976 11.9073 11.6099 11.7268 11.7888C11.5462 11.9676 11.3318 12.1095 11.0958 12.2064C10.8599 12.3032 10.607 12.353 10.3516 12.3531ZM12.0273 24.5015H8.67228V13.8139H12.0273V24.5015Z" fill="white"/>
</g>
</svg>
