<svg width="33" height="33" viewBox="0 0 33 33" fill="none" xmlns="http://www.w3.org/2000/svg">
<g id="Frame 34567">
<rect x="0.5" y="0.501465" width="32" height="32" rx="16" fill="#076461"/>
<g id="Messenger_4_">
<path id="Bubble_Solid_3_" d="M9.8739 22.4233L9.87206 22.4216C8.1974 20.9236 7.16276 18.7531 7.16276 16.2217C7.16276 11.4118 10.9152 7.83476 15.8295 7.83476C20.7439 7.83476 24.4963 11.4118 24.4963 16.2217C24.4963 21.0317 20.7439 24.6087 15.8295 24.6087C14.9433 24.6087 14.096 24.4924 13.3045 24.274L13.3026 24.2735C12.989 24.188 12.6576 24.2134 12.3608 24.3441L12.3604 24.3443L10.5104 25.1605C10.5102 25.1605 10.5101 25.1606 10.5099 25.1607C10.4566 25.1837 10.3982 25.1457 10.3963 25.089C10.3963 25.089 10.3963 25.0889 10.3963 25.0888L10.3456 23.4296L10.3455 23.4255C10.3311 23.0332 10.1544 22.6761 9.8739 22.4233ZM12.6295 24.9542C12.7873 24.8847 12.9619 24.8716 13.1272 24.9167L12.6295 24.9542Z" stroke="white" stroke-width="1.33333"/>
<path id="Bolt_4_" fill-rule="evenodd" clip-rule="evenodd" d="M10.2251 18.8697L12.9669 14.5203C13.4026 13.8292 14.3378 13.6565 14.9913 14.1466L17.1716 15.7823C17.3726 15.9325 17.6467 15.9307 17.8458 15.7804L20.7904 13.5457C21.1829 13.2471 21.6975 13.7184 21.4327 14.1353L18.6928 18.4828C18.2571 19.1739 17.3219 19.3467 16.6683 18.8565L14.488 17.2208C14.2871 17.0706 14.0129 17.0725 13.8138 17.2227L10.8673 19.4593C10.4748 19.7579 9.96026 19.2866 10.2251 18.8697Z" fill="white"/>
</g>
</g>
</svg>
