<svg width="25" height="24" viewBox="0 0 25 24" fill="none" xmlns="http://www.w3.org/2000/svg">
<path d="M8.375 17H16.375M11.3927 2.76401L4.61039 8.03914C4.15702 8.39176 3.93034 8.56807 3.76703 8.78887C3.62237 8.98446 3.5146 9.2048 3.44903 9.43907C3.375 9.70353 3.375 9.99071 3.375 10.5651V17.8C3.375 18.9201 3.375 19.4802 3.59299 19.908C3.78473 20.2843 4.09069 20.5903 4.46702 20.782C4.89484 21 5.45489 21 6.575 21H18.175C19.2951 21 19.8552 21 20.283 20.782C20.6593 20.5903 20.9653 20.2843 21.157 19.908C21.375 19.4802 21.375 18.9201 21.375 17.8V10.5651C21.375 9.99071 21.375 9.70353 21.301 9.43907C21.2354 9.2048 21.1276 8.98446 20.983 8.78887C20.8197 8.56807 20.593 8.39176 20.1396 8.03914L13.3573 2.76401C13.006 2.49076 12.8303 2.35413 12.6363 2.30162C12.4652 2.25528 12.2848 2.25528 12.1137 2.30162C11.9197 2.35413 11.744 2.49076 11.3927 2.76401Z" stroke="#045D5E" stroke-width="2" stroke-linecap="round" stroke-linejoin="round"/>
</svg>
