<svg width="12" height="16" viewBox="0 0 12 16" fill="none" xmlns="http://www.w3.org/2000/svg">
<path fill-rule="evenodd" clip-rule="evenodd" d="M0 6.66663C0 3.35292 2.68629 0.666626 6 0.666626C9.31371 0.666626 12 3.35292 12 6.66663C12 8.35074 11.2354 9.82678 10.1949 11.178C9.3253 12.3071 8.21222 13.4105 7.10043 14.5126L7.09965 14.5134C6.88964 14.7216 6.67968 14.9298 6.4714 15.138C6.21106 15.3984 5.78895 15.3984 5.5286 15.138C5.32018 14.9296 5.1096 14.7209 4.89944 14.5125C3.78764 13.4104 2.6747 12.3071 1.80515 11.178C0.764554 9.82678 0 8.35074 0 6.66663ZM8 6.66663C8 7.7712 7.10457 8.66663 6 8.66663C4.89543 8.66663 4 7.7712 4 6.66663C4 5.56206 4.89543 4.66663 6 4.66663C7.10457 4.66663 8 5.56206 8 6.66663Z" fill="#FC7300"/>
</svg>
