<svg width="66" height="69" viewBox="0 0 66 69" fill="none" xmlns="http://www.w3.org/2000/svg">
<path d="M2.125 59.4583V26.3429C2.12482 25.1222 2.42595 23.9203 3.00169 22.8439C3.57742 21.7674 4.40996 20.8498 5.42542 20.1723L31.3838 2.86918C32.6025 2.05602 34.0349 1.62207 35.5 1.62207C36.9651 1.62207 38.3975 2.05602 39.6162 2.86918L65.5746 20.1723C66.59 20.8498 67.4226 21.7674 67.9983 22.8439C68.574 23.9203 68.8752 25.1222 68.875 26.3429V59.4583M2.125 59.4583C2.125 61.4254 2.9064 63.3118 4.29729 64.7027C5.68819 66.0936 7.57464 66.875 9.54167 66.875H61.4583C63.4254 66.875 65.3118 66.0936 66.7027 64.7027C68.0936 63.3118 68.875 61.4254 68.875 59.4583M2.125 59.4583L27.1562 42.7708M68.875 59.4583L43.8437 42.7708M27.1562 42.7708L2.125 26.0833M27.1562 42.7708L31.3838 45.5892C32.6025 46.4023 34.0349 46.8363 35.5 46.8363C36.9651 46.8363 38.3975 46.4023 39.6162 45.5892L43.8437 42.7708M43.8437 42.7708L68.875 26.0833" stroke="#FEC799" stroke-width="3" stroke-linecap="round" stroke-linejoin="round"/>
</svg>
