<svg width="76" height="92" viewBox="0 0 76 92" fill="none" xmlns="http://www.w3.org/2000/svg">
<path d="M-16 80V35.35C-16.0002 33.7041 -15.5942 32.0835 -14.8179 30.6322C-14.0417 29.1808 -12.9192 27.9435 -11.55 27.03L23.45 3.69999C25.0933 2.6036 27.0245 2.01849 29 2.01849C30.9755 2.01849 32.9067 2.6036 34.55 3.69999L69.55 27.03C70.9192 27.9435 72.0417 29.1808 72.8179 30.6322C73.5942 32.0835 74.0002 33.7041 74 35.35V80M-16 80C-16 82.6522 -14.9464 85.1957 -13.0711 87.0711C-11.1957 88.9464 -8.65216 90 -6 90H64C66.6522 90 69.1957 88.9464 71.0711 87.0711C72.9464 85.1957 74 82.6522 74 80M-16 80L17.75 57.5M74 80L40.25 57.5M17.75 57.5L-16 35M17.75 57.5L23.45 61.3C25.0933 62.3964 27.0245 62.9815 29 62.9815C30.9755 62.9815 32.9067 62.3964 34.55 61.3L40.25 57.5M40.25 57.5L74 35" stroke="#FEC799" stroke-width="3" stroke-linecap="round" stroke-linejoin="round"/>
</svg>
