<svg width="198" height="167" viewBox="0 0 198 167" fill="none" xmlns="http://www.w3.org/2000/svg">
<g id="Layer_1" clip-path="url(#clip0_10350_14741)">
<g id="Group">
<path id="Vector" d="M192.013 57.3183H171.667C169.732 57.3183 168.163 58.8835 168.163 60.8138V73.8854C168.163 75.8162 169.732 77.3815 171.668 77.3815H177.518L180.131 80.7897C180.993 81.9138 182.689 81.9138 183.551 80.7897L186.164 77.3815H192.014C193.95 77.3815 195.518 75.8162 195.518 73.8859V60.8138C195.518 58.883 193.949 57.3177 192.014 57.3177L192.013 57.3183Z" fill="#FD8F33"/>
<path id="Vector_2" d="M177.468 68.7469C176.451 67.7517 176.01 66.6612 176.01 65.6857C176.01 64.0204 177.122 62.9113 178.81 62.9113C180.383 62.9113 180.92 63.6388 181.841 64.6904C182.761 63.6388 183.298 62.9113 184.871 62.9113C186.559 62.9113 187.671 64.0204 187.671 65.6857C187.671 66.6607 187.23 67.7512 186.214 68.7469L181.841 73.0897L177.468 68.7469Z" fill="white"/>
</g>
<path id="Vector_3" d="M23.0585 141.18C21.8607 140.007 21.3411 138.722 21.3411 137.573C21.3411 135.611 22.652 134.304 24.6405 134.304C26.4935 134.304 27.1263 135.162 28.211 136.4C29.2957 135.161 29.9285 134.304 31.7815 134.304C33.7694 134.304 35.0809 135.611 35.0809 137.573C35.0809 138.722 34.5612 140.007 33.3634 141.18L28.2115 146.297L23.0596 141.18H23.0585Z" fill="#FC7300"/>
<path id="Vector_4" d="M34.6965 146.955C33.9639 146.238 33.6465 145.452 33.6465 144.75C33.6465 143.55 34.4479 142.751 35.6633 142.751C36.796 142.751 37.1828 143.276 37.846 144.033C38.5092 143.276 38.896 142.751 40.0287 142.751C41.2442 142.751 42.0455 143.55 42.0455 144.75C42.0455 145.452 41.7275 146.238 40.9955 146.955L37.846 150.083L34.6965 146.955Z" fill="#FC7300"/>
<g id="Group_2">
<path id="Vector_5" d="M166.836 1.16077H143.493C141.272 1.16077 139.472 2.95644 139.472 5.17149V20.1691C139.472 22.3842 141.272 24.1798 143.493 24.1798H150.205L153.202 28.0905C154.191 29.38 156.137 29.38 157.126 28.0905L160.123 24.1798H166.835C169.056 24.1798 170.856 22.3842 170.856 20.1691V5.17149C170.856 2.95644 169.056 1.16077 166.835 1.16077H166.836Z" fill="#CDDFDF"/>
<g id="Group_3">
<path id="Vector_6" d="M147.833 18.7007H150.478V9.32214H147.393L147.833 18.7007Z" fill="#045D5E"/>
<path id="Vector_7" d="M162.744 10.7873C162.609 10.3717 162.188 9.50098 161.789 9.32216C160.629 8.80326 158.092 8.96877 155.845 9.26415C155.94 9.08533 156.018 8.92513 156.063 8.80858C156.256 8.30298 156.567 7.23431 156.53 6.69412C156.496 6.19863 156.265 5.09377 155.844 4.82873C155.62 4.68769 154.968 4.63766 154.785 4.82873C154.34 5.29334 154.65 6.76117 154.473 7.37854C154.311 7.94587 153.57 8.94483 152.938 9.72824C152.153 9.87353 151.652 9.9821 151.652 9.9821V18.2617C151.652 18.2617 158.432 20.102 160.614 19.507C161.453 19.2782 161.848 17.8279 162.156 17.0158C162.709 15.558 163.223 12.2717 162.744 10.7879V10.7873Z" fill="#045D5E"/>
</g>
</g>
<g id="Group_4">
<path id="Vector_8" d="M107.795 14.1887C107.547 11.1412 104.996 8.79419 101.93 8.79419H97.7027C94.6375 8.79419 92.0861 11.1412 91.8385 14.1887L91.4832 17.7667H108.15L107.795 14.1887Z" fill="#FD8F33"/>
<path id="Vector_9" d="M103.713 5.58407C104.127 3.43725 102.718 1.36178 100.566 0.948373C98.414 0.534962 96.3333 1.94016 95.9189 4.08697C95.5044 6.23379 96.9132 8.30926 99.0654 8.72267C101.218 9.13608 103.298 7.73088 103.713 5.58407Z" fill="#FD8F33"/>
</g>
<path id="Vector_10" d="M21.0802 69.3684C20.4453 69.3684 19.8632 69.5914 19.4064 69.9618L16.2206 67.4003C16.4031 67.041 16.5082 66.636 16.5082 66.2055C16.5082 64.743 15.32 63.5577 13.8538 63.5577C12.3877 63.5577 11.1995 64.7435 11.1995 66.2055C11.1995 67.6675 12.3882 68.8532 13.8538 68.8532C14.4888 68.8532 15.0709 68.6302 15.5276 68.2598L18.7134 70.8213C18.5309 71.1806 18.4258 71.5856 18.4258 72.0161C18.4258 72.4467 18.5309 72.8517 18.7134 73.2109L15.5276 75.7725C15.0709 75.402 14.4888 75.179 13.8538 75.179C12.3877 75.179 11.1995 76.3648 11.1995 77.8268C11.1995 79.2887 12.3882 80.4745 13.8538 80.4745C15.3195 80.4745 16.5082 79.2887 16.5082 77.8268C16.5082 77.3962 16.4031 76.9912 16.2206 76.632L19.4064 74.0704C19.8632 74.4409 20.4453 74.6639 21.0802 74.6639C22.5464 74.6639 23.7346 73.4781 23.7346 72.0161C23.7346 70.5542 22.5458 69.3684 21.0802 69.3684Z" fill="#367D7E"/>
<g id="Group_5">
<path id="Vector_11" d="M133.63 27.7227H121.601L109.472 166.017H121.499C127.074 166.017 131.989 161.509 132.478 155.948L142.841 37.7926C143.328 32.2315 139.204 27.7232 133.629 27.7232L133.63 27.7227Z" fill="#367D7E"/>
<g id="Group_6">
<path id="Vector_12" d="M141.078 41.5929C141.124 41.0602 141.596 40.6281 142.13 40.6281C142.664 40.6281 143.059 41.0602 143.013 41.5929L142.2 50.8582C142.153 51.3914 141.682 51.823 141.148 51.823C140.614 51.823 140.219 51.3909 140.265 50.8582L141.078 41.5929Z" fill="#367D7E"/>
<path id="Vector_13" opacity="0.3" d="M141.078 41.5929C141.124 41.0602 141.596 40.6281 142.13 40.6281C142.664 40.6281 143.059 41.0602 143.013 41.5929L142.2 50.8582C142.153 51.3914 141.682 51.823 141.148 51.823C140.614 51.823 140.219 51.3909 140.265 50.8582L141.078 41.5929Z" fill="#367D7E"/>
</g>
</g>
<path id="Vector_14" d="M119.035 166.017H69.4761C63.9011 166.017 59.7768 161.509 60.2645 155.948L70.6275 37.7926C71.1152 32.231 76.0302 27.7227 81.6057 27.7227H131.165C136.74 27.7227 140.864 32.231 140.376 37.7926L130.013 155.948C129.525 161.509 124.61 166.017 119.034 166.017H119.035Z" fill="#367D7E"/>
<path id="Vector_15" d="M130.961 30.033H118.079C117.236 30.033 116.469 30.6583 116.289 31.4933L116.202 31.8957C115.762 33.9346 113.889 35.462 111.828 35.462H99.5819C97.5213 35.462 95.9164 33.9346 95.8343 31.8957L95.8182 31.4933C95.7846 30.6583 95.1273 30.033 94.2838 30.033H81.4024C77.1063 30.033 73.3192 33.5072 72.9431 37.7926L62.58 155.948C62.2039 160.233 65.3822 163.708 69.6783 163.708H119.237C123.533 163.708 127.321 160.233 127.696 155.948L138.059 37.7926C138.435 33.5072 135.257 30.033 130.961 30.033H130.961Z" fill="#367D7E"/>
<path id="Vector_16" d="M138.063 37.7916L137.921 39.4265L137.173 47.9621L135.188 70.5729V70.5756L134.281 80.902L127.701 155.949C127.479 158.497 126.048 160.758 124.022 162.172C122.644 163.137 120.985 163.708 119.242 163.708H69.6841C65.3864 163.708 62.2097 160.234 62.5853 155.949L72.9489 37.7916C73.3245 33.5073 77.1121 30.032 81.4072 30.032H94.2896C95.1337 30.032 95.7889 30.6579 95.8246 31.4918L95.8412 31.8963C95.9233 33.9331 97.5266 35.4616 99.5882 35.4616H111.835C113.896 35.4616 115.768 33.9331 116.207 31.8963L116.294 31.4918C116.475 30.6579 117.242 30.032 118.087 30.032H130.967C135.264 30.032 138.441 33.5073 138.066 37.7916H138.063Z" fill="white"/>
<g id="Group_7">
<path id="Vector_17" d="M103.069 31.3422C103.022 31.8845 102.543 32.3241 101.999 32.3241C101.455 32.3241 101.053 31.8845 101.1 31.3422C101.148 30.7998 101.627 30.3602 102.171 30.3602C102.714 30.3602 103.117 30.7998 103.069 31.3422H103.069Z" fill="#367D7E"/>
<path id="Vector_18" d="M110.135 30.3602H106.76C106.216 30.3602 105.737 30.7998 105.69 31.3422C105.642 31.8845 106.044 32.3241 106.588 32.3241H109.963C110.506 32.3241 110.986 31.8845 111.033 31.3422C111.081 30.7998 110.678 30.3602 110.135 30.3602H110.135Z" fill="#367D7E"/>
</g>
<g id="Group_8">
<path id="Vector_19" d="M78.5435 35.4428H79.5855L79.6767 34.4034H78.6347L78.5435 35.4428Z" fill="#367D7E"/>
<path id="Vector_20" d="M80.717 34.4035L80.6257 35.4429H81.6683L81.7595 34.4035L81.8508 33.3635H80.8082L80.717 34.4035Z" fill="#367D7E"/>
<path id="Vector_21" d="M82.9871 32.3242L82.8958 33.3636L82.8046 34.4036L82.7134 35.443H83.7559L83.8472 34.4036L83.9379 33.3636L84.0291 32.3242H82.9871Z" fill="#367D7E"/>
</g>
<path id="Vector_22" d="M127.798 32.3934L127.731 33.1555H127.222L127.088 34.6803H127.597L127.53 35.4424H132.116L132.384 32.3928H127.798V32.3934ZM129.635 34.6808H128.107L128.241 33.156H129.769L129.635 34.6808Z" fill="#367D7E"/>
<g id="Group_9">
<path id="Vector_23" d="M125.842 133.063L124.017 162.172C122.638 163.137 120.98 163.708 119.237 163.708H114.237C113.316 157.417 112.299 149.229 112.661 145.898C113.286 140.16 116.301 134.043 116.301 134.043L103.975 108.056L101.089 107.876L100.497 134.106L79.1231 163.708H69.1965C69.1965 163.708 77.6265 146.076 79.7095 142.267C81.7898 138.456 89.1687 129.986 89.1687 129.986C89.1687 129.986 87.1871 111.211 87.5489 105.456C87.8556 100.543 90.3393 95.9086 91.0601 94.6536C91.186 94.4349 91.2575 94.3199 91.2575 94.3199C91.2575 94.3199 104.981 95.0006 109.479 96.2013C109.66 96.2503 109.824 96.2998 109.975 96.3487C121.369 112.031 125.842 133.062 125.842 133.062L125.842 133.063Z" fill="#261F35"/>
<path id="Vector_24" d="M159.149 38.7383L161.154 38.4328C163.367 38.0954 165.399 39.7155 165.555 41.9438C165.702 44.0359 164.132 45.8555 162.036 46.0221L160.263 46.1626L159.148 38.7378L159.149 38.7383Z" fill="#F0532D"/>
<path id="Vector_25" d="M135.507 44.0966C135.884 46.3276 137.943 47.8763 140.197 47.623L140.687 47.5682L143.595 61.7084C143.777 62.5961 144.599 63.206 145.504 63.1241C146.515 63.0331 147.247 62.1203 147.113 61.1166L145.211 46.7997L163.032 52.3772L161.164 27.5688L144.982 37.8543L138.789 39.2311C136.572 39.724 135.129 41.8618 135.506 44.0966H135.507Z" fill="#FC7300"/>
<path id="Vector_26" d="M110.916 56.2171C110.916 56.2171 95.0135 53.6487 88.7337 57.1969C82.4544 60.7451 79.8635 64.2609 79.8635 64.2609L85.7325 71.4569L90.3888 68.5952L90.3541 94.3355C90.3541 94.3355 99.2888 98.8331 109.453 96.3158C109.453 96.3158 111.05 89.5461 114.373 85.0649C117.537 80.7971 117.685 74.2393 118.964 70.6415C119.932 72.0152 124.702 75.7279 124.702 75.7279L130.654 69.0071C130.654 69.0071 120.572 57.6083 110.916 56.2171Z" fill="#045D5E"/>
<path id="Vector_27" d="M101.094 58.0037L104.223 49.4952L111.096 52.2957L111.034 60.0234C111.034 60.0234 104.776 62.1666 101.094 58.0037Z" fill="#F9C1AC"/>
<path id="Vector_28" d="M125.065 75.335C125.065 75.335 136.584 83.5614 140.339 82.4826C144.094 81.4033 142.324 59.2283 142.324 59.2283L145.662 58.9425C147.297 58.8025 148.618 57.554 148.846 55.9329C149.152 53.7556 147.399 51.8375 145.197 51.9392C142.856 52.0472 140.271 52.3766 139.538 53.2755C138.111 55.0254 134.569 73.7171 134.569 73.7171L130.388 68.9906L125.065 75.3356V75.335Z" fill="#F9C1AC"/>
<path id="Vector_29" d="M167.118 33.4566L170.184 22.3531L174.02 24.1685L167.118 33.4566Z" fill="#F0532D"/>
<path id="Vector_30" d="M85.7281 71.4562L79.8591 64.2603C79.8591 64.2603 70.7473 78.3808 70.5013 82.2984C70.2553 86.216 72.7315 98.1699 72.7315 98.1699C72.7315 98.1699 73.8024 103.958 78.0867 104.225C82.3711 104.492 78.8908 97.1241 78.8908 97.1241C78.8908 97.1241 80.5197 99.7287 82.0595 98.0368C83.5993 96.3455 77.686 93.4732 77.686 93.4732L75.8794 82.2766L85.7281 71.4562Z" fill="#F9C1AC"/>
<path id="Vector_31" d="M111.097 54.9967C111.097 56.1638 109.789 57.11 108.176 57.11C106.563 57.11 105.256 52.4516 105.256 51.2845C105.256 50.1174 106.563 52.8832 108.176 52.8832C109.789 52.8832 111.097 53.8295 111.097 54.9967Z" fill="#DAA997"/>
<g id="Group_10">
<path id="Vector_32" d="M99.6578 48.6655C99.5623 47.451 100.247 47.3802 100.247 47.3802L101.364 46.2913L103.221 42.4791C103.221 42.4791 104.042 42.4717 105.073 42.4658L104.808 42.1806L106.345 37.7744L110.681 38.0458L113.288 39.9048L114.533 41.9224L114.424 43.3647L114.41 43.4978L114.61 44.6058C114.61 44.6058 114.693 45.2743 115.191 46.104C115.69 46.9337 115.642 48.7517 115.254 50.3691C114.865 51.986 114.331 54.0014 114.296 54.4208C114.26 54.8402 113.508 56.1478 111.596 55.8301C109.685 55.5129 108.614 55.3564 107.191 54.6587C105.769 53.961 104.809 52.0871 104.577 52.0913C104.345 52.0961 104.309 52.6071 103.301 52.1627C103.301 52.1627 101.989 52.2643 101.128 51.4218C100.267 50.5793 99.7528 49.8806 99.6573 48.6661L99.6578 48.6655Z" fill="#F9C1AC"/>
<path id="Vector_33" d="M97.0399 40.552C97.2907 39.3817 98.0136 38.3982 98.862 37.6313L98.8838 37.5765L98.8566 37.5616C98.402 37.6435 97.9427 37.7446 97.543 37.9825C97.1434 38.2199 96.8057 38.6143 96.723 39.1002C96.7059 38.2199 97.36 37.4871 98.1054 37.1464C98.8508 36.8058 99.6874 36.7627 100.495 36.6361C100.495 36.6361 100.504 36.5967 100.519 36.5376C100.301 36.5472 100.07 36.4732 99.8506 36.4173C99.3523 36.2901 98.8353 36.2635 98.3343 36.3385C98.7675 36.2305 99.0727 35.8266 99.4755 35.6302C99.9072 35.42 100.448 35.4753 100.85 35.7702C100.712 35.0815 100.964 34.3332 101.474 33.9159C101.147 34.4045 101.11 35.1017 101.375 35.6504C101.385 35.2975 101.529 34.9585 101.729 34.6823C101.959 34.3662 102.258 34.1187 102.555 33.875C103.058 33.4609 103.561 33.0474 104.064 32.6333C103.87 32.9282 103.673 33.2278 103.559 33.57C103.447 33.9058 103.422 34.2938 103.564 34.6248C103.786 33.8489 104.298 33.1783 104.97 32.8089C105.565 32.4811 106.27 32.3795 106.812 31.9611C107.258 31.6173 107.559 31.0686 107.625 30.4768C107.771 31.1037 107.713 31.7759 107.465 32.3502C107.489 32.3347 107.513 32.3204 107.538 32.3065C108.812 31.596 110.387 31.6306 111.78 32.1378C113.172 32.645 114.405 33.5854 115.52 34.6291C114.568 34.1538 113.569 33.6679 112.534 33.7153L112.253 33.719C113.452 33.8819 114.614 34.5652 115.481 35.5131C116.632 36.7718 117.317 38.4413 117.722 40.1337C117.219 39.3578 116.507 38.7393 115.703 38.362L115.713 38.3822C116.042 38.915 116.175 39.5595 116.19 40.1885C116.206 40.8176 116.11 41.4392 116.014 42.0566C115.955 42.4371 115.893 42.8267 115.712 43.1561C115.646 42.625 115.488 42.104 115.25 41.6271C115.236 42.3552 115.123 43.0822 114.978 43.7911C114.947 43.4228 114.868 43.0577 114.746 42.7085L114.812 43.0098C114.661 43.5186 114.598 44.0604 114.627 44.6C114.484 44.2546 114.339 43.9028 114.299 43.5303C114.279 43.3403 114.286 43.1498 114.293 42.9598C114.304 42.6676 114.316 42.3754 114.327 42.0832C114.327 42.0832 114.328 41.9778 114.335 41.8442C114.244 41.6968 114.145 41.5547 114.037 41.4206C113.163 40.3312 111.828 39.7665 110.93 38.7047C111.089 39.4344 111.019 40.2221 110.804 40.9299C110.506 41.9145 109.956 42.7777 109.409 43.6223C109.563 42.6367 109.128 41.6287 108.571 40.8006C108.014 39.9725 107.325 39.2444 106.843 38.3652L107.148 38.9416C107.355 39.5717 107.465 40.2556 107.329 40.8958C107.193 41.5361 106.778 42.1226 106.191 42.3073C106.36 42.1833 106.452 41.9688 106.509 41.7564C106.628 41.3147 106.631 40.8341 106.52 40.3817L106.447 40.6324C106.291 42.9161 103.954 44.4473 103.839 46.7352L103.945 46.9449C103.947 47.7001 104.197 48.4607 104.642 49.0626C104.744 49.2004 104.862 49.3345 105.013 49.3984C104.528 49.4415 104.019 49.2201 103.689 48.822V48.7949L103.685 48.797L103.689 48.8215L103.67 48.805L103.661 48.8098C103.641 49.0471 103.559 49.2765 103.421 49.4596C103.345 49.0285 103.055 48.6672 102.731 48.3915C102.407 48.1158 102.041 47.9034 101.719 47.6251C101.595 47.5176 101.476 47.3962 101.373 47.2637C101.001 47.21 100.622 47.2366 100.265 47.343C100.132 46.9556 99.9531 46.5857 99.7322 46.2456L99.6836 46.0636L99.6489 46.1088C99.196 45.9428 98.8289 45.5553 98.584 45.1115C98.3391 44.6676 98.203 44.1679 98.0921 43.6692C97.9677 43.112 97.8712 42.5484 97.8029 41.9821C97.5254 42.568 97.5953 43.3334 97.9752 43.8741C97.0906 43.0928 96.7881 41.7218 97.0383 40.552H97.0399Z" fill="#2B2419"/>
</g>
</g>
<g id="Group_11">
<path id="Vector_34" opacity="0.4" d="M52.1617 90.7766H15.5157C12.7018 90.7766 10.4209 93.0518 10.4209 95.8587V123.644C10.4209 126.451 12.7018 128.726 15.5157 128.726H43.1864C43.729 133.17 47.5177 136.614 52.119 136.614C52.3228 136.614 52.5224 136.597 52.7224 136.584C51.2909 134.702 50.1225 131.975 49.3568 128.726H52.1611C54.9751 128.726 57.256 126.451 57.256 123.644V95.8587C57.256 93.0518 54.9751 90.7766 52.1611 90.7766H52.1617Z" fill="#FEC799"/>
</g>
<g id="Group_12">
<g id="Group_13">
<path id="Vector_35" d="M59.5015 102.583L62.3549 99.9524L64.7894 104.452C64.7894 104.452 61.967 106.607 60.2922 105.282L59.5015 102.583V102.583Z" fill="#FFD0BB"/>
<path id="Vector_36" d="M59.5013 102.583L57.5608 106.699L60.2242 108.894L62.5494 105.135L59.5013 102.583Z" fill="#FFD0BB"/>
<path id="Vector_37" d="M65.0632 100.561L65.5333 102.262C65.7654 103.094 65.4506 104.021 64.789 104.452L63.7417 105.135L60.8269 100.036L63.3244 99.4079C64.0799 99.203 64.8285 99.6996 65.0627 100.561H65.0632Z" fill="#FFD0BB"/>
<path id="Vector_38" d="M59.5015 102.583C59.5015 102.583 60.5173 99.4116 60.3685 98.4403C60.2794 97.8608 60.8732 97.956 61.3657 98.1274C61.7482 98.2604 62.0075 98.6101 62.0235 99.0135C62.0651 100.052 62.0385 102.042 61.2355 102.172C60.1455 102.347 59.5015 102.583 59.5015 102.583V102.583Z" fill="#FFD0BB"/>
</g>
<g id="Group_14">
<path id="Vector_39" d="M62.8318 105.883C62.0587 105.022 61.0124 104.39 59.7911 104.137L58.9236 103.957C58.4301 103.854 58.3127 103.972 58.2497 104.105L58.0027 104.489L57.4964 105.258C57.1528 105.767 56.815 106.28 56.4623 106.779C55.7783 107.79 55.0618 108.768 54.3394 109.699C53.6218 110.628 52.8679 111.508 52.122 112.216C52.0505 112.284 51.9795 112.349 51.9085 112.413C51.645 112.122 51.3841 111.823 51.1301 111.509C50.3917 110.585 49.6901 109.586 49.0226 108.544C48.3589 107.498 46.2076 104.406 45.6207 103.291C45.3257 102.734 45.0408 102.171 44.7681 101.605L44.3722 100.756C44.2501 100.487 44.1092 100.167 44.0254 99.9608C44.01 99.9231 43.9865 99.8677 43.9694 99.8299C43.0987 97.8884 40.8151 97.0188 38.8687 97.8868C36.9224 98.7554 36.0505 101.033 36.9208 102.975C37.108 103.393 37.2531 103.689 37.4223 104.035L37.9211 105.021C38.2599 105.671 38.6094 106.312 38.9728 106.946C39.7005 108.214 42.0289 111.446 42.882 112.661C43.7378 113.875 44.671 115.059 45.7168 116.193C46.7646 117.327 47.9224 118.42 49.2734 119.405L49.4366 119.523C50.2108 120.08 51.2245 120.291 52.2137 120.009C53.5113 119.638 54.3655 119.058 55.0885 118.509C55.8066 117.951 56.3791 117.38 56.8977 116.809C57.9349 115.668 58.7587 114.512 59.5276 113.35C60.2857 112.184 60.95 110.996 61.5774 109.801C61.881 109.197 62.1798 108.595 62.4567 107.982L62.867 107.058L63.0676 106.591C63.1519 106.439 63.1818 106.271 62.8313 105.882L62.8318 105.883Z" fill="#09A89F"/>
<path id="Vector_40" d="M18.4517 119.858C18.6747 124.975 17.8594 124.754 17.8402 128.726H42.9222C44.2843 116.605 43.6467 114.741 43.6713 106.698C43.6851 102.167 42.9755 97.5479 38.458 97.0769C33.4363 96.5526 27.1591 96.6069 22.5018 97.1801C19.1608 97.591 16.7934 100.659 17.2848 103.981C18.2964 110.826 17.7458 114.703 18.4517 119.858Z" fill="#019088"/>
<path id="Vector_41" opacity="0.9" d="M36.1718 96.8847C32.9172 96.6676 29.3553 96.6622 26.1343 96.8565C26.2063 97.8773 26.989 100.47 32.6857 102.671C32.6857 102.671 33.9544 99.9199 35.0269 101.16C35.0269 101.16 35.8848 99.5777 37.7287 102.487C37.7287 102.487 40.4786 99.5527 36.1718 96.8847Z" fill="white"/>
<path id="Vector_42" d="M28.5952 87.7605C28.6005 92.0538 27.7879 94.5249 26.8244 96.8464C26.732 97.0694 26.7822 97.3291 26.962 97.4909C28.6053 98.9688 31.1173 100.176 34.5277 100.222C37.8981 100.267 37.7044 99.2163 36.9067 98.0342C36.7931 97.8661 36.6389 97.7288 36.4639 97.625C34.1579 96.2604 34.0763 94.4344 34.7197 93.3322L28.5947 87.761L28.5952 87.7605Z" fill="#FFD0BB"/>
<path id="Vector_43" d="M10.8192 120.69C10.8251 120.882 10.8533 121.075 10.9046 121.268C11.4018 123.127 12.0479 124.576 12.7111 126.049C13.0857 126.865 13.473 127.662 13.8673 128.449C14.3849 128.626 14.9382 128.726 15.5155 128.726H21.0627C20.8792 128.317 20.6951 127.907 20.5126 127.5C19.9044 126.159 19.3356 124.814 18.8229 123.485C18.3854 122.349 17.9826 121.179 17.7414 120.18C17.7819 119.861 17.8705 119.386 18.0007 118.909C18.165 118.288 18.3785 117.622 18.6255 116.946C19.1185 115.595 19.7064 114.206 20.3264 112.819C20.9501 111.432 21.6261 110.05 22.3149 108.669C22.9973 107.297 23.7262 105.891 24.44 104.589L24.4646 104.544C24.4785 104.518 24.4918 104.493 24.5051 104.467C25.4773 102.574 24.7271 100.254 22.8293 99.284C20.9315 98.3143 18.6052 99.0626 17.6331 100.956C16.8578 102.466 16.1626 103.905 15.4674 105.401C14.7813 106.89 14.1336 108.401 13.5131 109.943C12.8931 111.486 12.3121 113.059 11.8127 114.729C11.5608 115.563 11.3303 116.426 11.1399 117.356C10.9579 118.298 10.784 119.267 10.8171 120.58L10.8192 120.692V120.69Z" fill="#09A89F"/>
</g>
<path id="Vector_44" d="M34.5335 93.9821C34.7608 95.3781 35.3274 100.48 31.2927 94.8161C30.5799 93.8155 28.9675 90.6154 28.9675 89.7676C28.9675 88.9197 31.074 92.4467 32.3049 92.4467C33.5357 92.4467 34.3969 93.145 34.5335 93.9821Z" fill="#DFB6A4"/>
<g id="Group_15">
<path id="Vector_45" d="M24.6024 87.9772C24.6077 86.8229 25.312 86.7952 25.312 86.7952L25.3926 86.7319C25.6054 86.6946 25.9981 86.6414 26.4164 86.6627C25.972 85.8489 25.6913 84.9117 25.5916 83.8627C25.3488 81.3033 26.0232 78.7594 28.1403 77.2362C29.9517 75.9334 34.9793 74.7593 37.7516 78.0696C38.9926 79.5513 39.6035 80.752 39.8959 81.644L39.9242 81.6945C39.9332 81.7339 39.9429 81.7738 39.953 81.8148C39.9589 81.8382 39.9642 81.8622 39.9701 81.8856C40.1312 82.4566 40.0773 83.0325 40.064 83.6163C40.0533 84.0793 40.1451 84.528 40.1931 84.9894C40.1931 84.9894 40.2203 85.6265 40.6583 86.4397C41.0964 87.2529 40.8931 88.9693 40.3601 90.477C39.8271 91.9842 39.1111 93.8597 39.0396 94.2546C38.9675 94.6495 38.0899 95.8427 36.168 95.434C34.2462 95.0253 33.1668 94.8161 31.7754 94.0753C30.3839 93.3344 29.5649 91.5074 29.328 91.4983C29.0911 91.4893 29.0105 91.9709 28.0208 91.493C28.0208 91.493 26.6747 91.5143 25.868 90.6686C25.0612 89.8224 24.5965 89.1327 24.6019 87.9783L24.6024 87.9772Z" fill="#FFD0BB"/>
<path id="Vector_46" d="M35.3264 77.3713C35.2816 77.7002 35.7869 77.8785 35.8514 78.2228C36.028 77.8327 36.2233 78.0126 36.337 78.2643C36.258 78.7178 36.1305 79.209 36.481 79.5906C36.7617 79.8955 37.2499 80.0382 37.579 79.7332C37.8255 79.5044 37.9232 79.1403 38.3319 79.4692C38.7502 79.8056 38.4909 80.5789 38.0656 80.1111C38.1798 80.4043 38.4765 80.4725 38.6691 80.1696C38.7006 80.1196 38.7262 80.0653 38.7459 80.0084C38.875 80.3325 39.0916 80.3772 39.4171 80.6672C39.6487 80.8732 39.8109 81.3458 39.9117 81.6311C40.0435 82.0026 40.1646 82.4768 40.0744 82.853C40.1112 82.8387 40.1502 82.8232 40.1865 82.8046C40.1593 82.3155 40.1993 81.8158 40.1064 81.3213C40.059 81.0691 39.9949 80.8168 39.9165 80.5672C39.9277 80.3352 39.9176 80.1015 39.8402 79.8902C40.2137 79.8072 40.3359 79.2463 40.3076 78.8471C40.5642 78.8285 40.8822 78.9599 41.0268 79.1132C41.2872 79.3894 41.1602 79.6587 41.2749 79.9493C41.4126 80.2995 41.873 80.4182 41.7663 80.8934C41.6206 81.5417 40.7254 81.2133 40.9847 80.8493C40.6933 81.0244 40.9948 81.5018 41.3064 81.5135C41.9317 81.5374 42.255 80.7332 42.2033 80.2425C42.159 79.8184 41.8218 79.324 41.6078 78.9514C41.4152 78.6156 41.0337 78.3064 40.6571 78.217C40.4751 78.1739 40.2324 78.1611 40.0483 78.2079C39.7687 77.8412 39.3056 77.5427 38.8873 77.779C38.7315 77.8673 38.6152 78.0206 38.5448 78.1983C38.2796 77.9237 37.9845 77.6805 37.6601 77.4793C37.5454 76.7103 36.7062 76.259 35.9091 76.9812C35.6284 76.9657 35.368 77.0764 35.3275 77.3718L35.3264 77.3713ZM36.9537 78.6182C36.9857 78.5107 37.0418 78.441 37.109 78.3883C37.2573 78.6241 37.4569 78.8455 37.6927 78.9951C37.292 79.093 36.791 79.1616 36.9537 78.6182ZM25.4158 84.8057C25.5273 85.158 25.5988 85.6338 25.7925 85.9462C25.8427 86.0271 26.0257 86.1735 26.0513 86.249C26.1265 86.4736 26.1137 86.4699 25.9915 86.711C27.3334 86.4811 27.8136 87.8366 28.7569 89.1193C28.6923 89.1134 28.599 89.1331 28.5328 89.1208C28.6993 89.3284 28.9623 89.5317 29.0802 89.7355C29.0418 89.7574 29.0034 89.7504 28.9644 89.7675C29.268 90.1698 29.8805 90.4274 30.2033 89.925C30.0454 89.9224 29.9152 89.8782 29.7776 89.7936C29.8763 89.7914 29.9254 89.7302 29.9942 89.7084C29.5412 89.4332 29.4868 88.8872 29.3256 88.4178C29.1736 87.975 28.8935 87.5279 28.7937 87.0867C28.7489 87.0836 28.711 87.0979 28.6667 87.091C28.425 86.4375 28.1983 85.3081 29.0055 84.9052C28.9116 84.6716 28.966 84.4358 29.0477 84.2022C28.9943 84.2474 28.8977 84.2841 28.8316 84.3523C28.8551 83.8036 29.3139 83.5279 29.5081 83.0931C29.3806 83.1484 29.308 83.1154 29.2013 83.1303C29.7317 82.6726 29.5097 81.9371 29.5615 81.3022C29.8891 80.746 30.3773 80.1601 30.9268 80.0233C30.874 80.0094 30.7678 79.9381 30.7155 79.9216C30.9754 79.6694 31.4011 79.7747 31.7026 79.5576C31.5388 79.4927 31.4593 79.4091 31.3478 79.2798C31.6076 79.4059 31.8659 79.3277 32.1385 79.2947C31.9854 79.2149 31.8328 79.1318 31.6818 79.0445C32.2788 79.2558 32.7035 78.7412 33.2803 78.8444L32.8801 77.383C32.7873 77.0834 31.4358 76.1871 30.8409 76.2771C29.8443 76.4282 29.1821 77.6879 28.9874 78.5645C28.9047 78.9365 28.8593 79.3766 28.8631 79.8285L28.5115 79.4309C27.3659 78.6262 25.7493 78.2212 24.8476 79.6763C24.3493 80.4804 24.6667 81.6098 24.7649 82.4874C24.8588 83.3283 25.1656 84.0095 25.4174 84.8057H25.4158Z" fill="#2B2419"/>
<path id="Vector_47" d="M26.0892 84.0143C25.6016 84.3719 25.1737 83.7918 25.1571 83.3091C25.4719 83.6157 25.7424 83.3304 25.8433 83.0127C26.1202 83.1079 26.4184 83.1154 26.7103 82.9903C25.0189 82.3873 25.7029 79.2345 27.3553 80.0233C28.8951 80.7582 26.5273 82.3485 26.0978 81.1164C27.0213 84.0957 29.7365 81.3878 30.1964 79.5735C30.4056 78.7486 30.5134 77.4096 31.6856 77.7172C32.336 77.888 33.0546 78.8018 33.7568 79.0983C33.7136 79.0259 33.617 78.9083 33.5727 78.8471C33.713 78.6667 33.8128 78.6241 33.9985 78.5161C34.0806 78.7311 34.1164 78.6528 34.1484 78.8481C34.6099 78.6832 35.2438 78.4218 35.3046 77.8737C35.3035 78.0371 35.3601 78.2425 35.3275 78.474C35.5831 78.2861 35.6898 78.0445 35.7907 77.7726C35.7683 77.6869 35.733 77.606 35.6877 77.5283C36.1188 77.3867 36.4026 77.6709 36.8321 77.9998C36.7302 77.6773 36.7975 77.3425 37.0061 77.0626C36.7617 78.1158 37.6442 79.0573 38.6398 79.086C39.4823 79.11 40.1268 78.1254 40.7969 78.185C41.8709 78.2808 41.6063 80.0105 40.8535 80.3931C41.9584 80.6859 42.3991 79.4229 42.2108 78.5581C42.1238 78.1579 41.9344 77.5698 41.538 77.3771C41.2606 77.2425 40.965 77.4814 40.8033 77.416C40.4058 77.2552 40.3477 77.2143 40.2281 77.0323C40.5509 76.8178 40.8977 75.9881 40.5296 75.2643C40.1134 74.4457 38.1612 73.0694 37.6234 74.4707C37.4142 73.7863 35.9545 71.6176 35.549 73.3318C35.6653 72.9513 35.4871 72.3281 35.024 72.1764C35.3153 72.542 35.1616 72.9513 34.7353 73.0833C34.1569 73.2621 33.9014 72.6628 33.4959 72.402C32.5937 71.8225 31.6882 72.327 31.207 73.1732C30.0193 72.4345 28.3424 73.4931 28.4566 75.0008C27.621 73.9151 25.1651 74.9572 25.9244 76.2339C24.4496 75.541 24.3024 78.3915 24.7073 79.1531C23.8451 79.1739 23.7896 80.4166 24.2426 80.919C23.7091 81.217 23.9561 81.9855 24.3317 82.5252C23.2204 83.5986 25.5114 85.331 26.0892 84.0122V84.0143ZM38.4248 75.9689C38.4536 74.5048 40.7003 75.2957 40.1929 76.7576C40.1412 76.7672 40.099 76.772 40.0579 76.7731C40.0211 76.7188 39.979 76.6586 39.9283 76.5895C39.5532 76.0785 39.0949 75.5043 38.4248 75.9689ZM31.9806 73.4904C31.9961 73.4787 32.0126 73.4675 32.0292 73.4569C31.8126 72.6266 32.8615 72.501 33.3684 72.815C33.9633 73.1839 34.3362 73.5069 35.0757 73.2137C35.0768 73.2121 35.0778 73.211 35.0794 73.2094C35.0949 73.1902 35.096 73.1908 35.0826 73.2115C35.0805 73.2126 35.0784 73.2131 35.0762 73.2142C34.9418 73.3771 34.8047 73.533 34.7332 73.7347C34.2156 73.1328 32.6998 73.0125 32.0302 73.4574C32.0313 73.4622 32.0324 73.4659 32.0334 73.4707C32.0126 73.4915 31.9283 73.567 31.9822 73.4909L31.9806 73.4904ZM26.0508 75.9215C26.2765 75.2515 27.0624 74.3861 27.7491 75.1259L27.7555 75.1722C27.2107 75.1275 26.4355 75.392 26.0503 75.921L26.0508 75.9215Z" fill="#2B2419"/>
</g>
</g>
<path id="Vector_48" d="M47.9153 18.7672H11.2699C8.45595 18.7672 6.17505 21.0424 6.17505 23.8493V51.6348C6.17505 54.4417 8.45595 56.7168 11.2699 56.7168H38.9405C39.4832 61.1602 43.2719 64.6047 47.8731 64.6047C48.077 64.6047 48.2765 64.5877 48.4766 64.5744C47.0451 62.693 45.8761 59.966 45.111 56.7168H47.9153C50.7292 56.7168 53.0101 54.4417 53.0101 51.6348V23.8493C53.0101 21.0424 50.7292 18.7672 47.9153 18.7672Z" fill="#367D7E"/>
<path id="Vector_49" d="M47.9153 18.7672H11.2699C8.45595 18.7672 6.17505 21.0424 6.17505 23.8493V51.6348C6.17505 54.4417 8.45595 56.7168 11.2699 56.7168H38.9405C39.4832 61.1602 43.2719 64.6047 47.8731 64.6047C48.077 64.6047 48.2765 64.5877 48.4766 64.5744C47.0451 62.693 45.8761 59.966 45.111 56.7168H47.9153C50.7292 56.7168 53.0101 54.4417 53.0101 51.6348V23.8493C53.0101 21.0424 50.7292 18.7672 47.9153 18.7672Z" fill="#045D5E"/>
<g id="Group_16">
<path id="Vector_50" d="M42.0322 56.7163C41.5786 51.8195 42.0599 45.5703 42.0599 45.5703C42.4542 39.0342 39.6003 30.9958 37.8145 30.3087C35.6408 29.4726 34.8592 28.3566 34.2008 29.562C33.5632 30.7297 33.6704 32.9437 33.6977 35.2997C33.7628 41.0034 34.9462 48.1222 35.5512 51.4086C35.7657 52.5747 36.2955 56.7158 36.2955 56.7158H42.0322V56.7163Z" fill="#FD8F33"/>
<path id="Vector_51" d="M38.0524 31.0416C37.9047 30.0869 37.2078 29.3072 36.272 29.0474C34.6671 28.619 31.9081 27.924 29.3882 27.4748C26.4324 26.9974 23.4477 26.7233 20.4567 26.6605C18.5631 26.5833 19.277 28.7106 17.7991 28.7947C17.623 28.8085 17.447 28.8367 17.2784 28.8862C15.969 29.2582 15.2023 30.6201 15.5753 31.9262C19.3693 45.4379 17.5766 49.836 17.7788 56.7164H36.2966C37.1582 50.472 38.8554 45.3501 39.0102 41.6778C39.2284 36.3068 38.3203 32.6212 38.053 31.0416H38.0524Z" fill="#FDAC4D"/>
<path id="Vector_52" d="M30.4484 24.356C29.233 25.9968 28.3393 27.9393 30.2494 30.1065C30.6527 30.5642 30.9222 31.1395 30.936 31.7489C30.9579 32.7239 30.3897 33.6733 27.2034 31.8C22.5855 29.0889 22.9713 26.025 22.9713 26.025C25.4 25.2911 26.8518 20.2053 27.4136 17.2952L30.4489 24.3565L30.4484 24.356Z" fill="#F9C1AC"/>
<path id="Vector_53" d="M29.4682 26.3071C29.4682 27.1128 28.852 28.8053 27.5859 28.8053C26.3198 28.8053 24.1909 24.6482 24.1909 23.8424C24.1909 23.0367 25.91 24.8483 27.1761 24.8483C28.4422 24.8483 29.4687 25.5013 29.4687 26.3071H29.4682Z" fill="#DAA997"/>
<g id="Group_17">
<g id="Group_18">
<path id="Vector_54" d="M34.4579 21.4937C34.5363 21.3687 34.6457 21.266 34.7294 21.1452C34.8095 21.0307 34.866 20.8993 34.9434 20.7817C35.128 20.5001 35.2603 20.1238 35.3782 19.7912C35.4257 19.6576 35.4631 19.5022 35.494 19.3633C35.5228 19.2335 35.5132 19.1228 35.5271 18.9956C35.5394 18.8806 35.565 18.8508 35.518 18.7694C35.4865 18.7156 35.4588 18.6991 35.3969 18.7092C35.1712 18.7465 34.8671 19.1914 34.7422 19.4549C34.6089 19.7353 34.5246 20.0866 34.4275 20.3862C34.3325 20.6779 34.2503 20.9658 34.1746 21.2633L34.4579 21.4937Z" fill="#FFD0BB"/>
<path id="Vector_55" d="M22.3197 17.7561C22.6804 16.9073 23.2081 17.1031 23.2081 17.1031L23.287 17.0813C23.4556 17.1191 23.7613 17.2005 24.0628 17.3447C23.987 16.6087 24.0697 15.8317 24.3205 15.028C24.9319 13.0679 26.2151 11.4005 28.2453 10.9295C29.9825 10.5261 34.0497 11.2068 35.0693 14.4979C35.526 15.9706 35.605 17.0435 35.5447 17.7907L35.5495 17.8365C35.5441 17.8684 35.5388 17.9009 35.5335 17.9339C35.5308 17.953 35.5271 17.9722 35.5239 17.9914C35.4662 18.4613 35.2486 18.869 35.0581 19.2953C34.9071 19.6332 34.8367 19.9919 34.7294 20.3469C34.7294 20.3469 34.5528 20.8248 34.6243 21.5582C34.6958 22.2921 34.0155 23.4944 33.1576 24.4412C32.2991 25.388 31.1926 26.5498 31.0176 26.8186C30.8425 27.0873 29.8272 27.6967 28.5376 26.8047C27.2481 25.9128 26.5171 25.4268 25.7211 24.4534C24.925 23.4795 24.8855 21.8818 24.7137 21.8025C24.5419 21.7232 24.3338 22.0532 23.7523 21.3964C23.7523 21.3964 22.754 20.9983 22.4211 20.1271C22.0882 19.2559 21.959 18.6045 22.3197 17.7556V17.7561Z" fill="#F9C1AC"/>
</g>
<g id="Group_19">
<path id="Vector_56" d="M25.9094 16.3143C25.9094 16.3143 25.5413 17.7305 25.6944 18.9333L24.7356 19.0339C24.7356 19.0339 24.7863 17.9424 23.9166 17.2521C23.9166 17.2521 23.7043 16.4995 24.026 15.7108C24.3478 14.9221 24.6231 14.7608 24.7869 14.8029C24.9507 14.8454 25.6464 15.0833 25.6464 15.0833L25.9089 16.3143H25.9094Z" fill="#2B2419"/>
<path id="Vector_57" d="M23.6822 11.9683C24.029 11.814 24.3171 11.7442 24.5423 11.7607C24.6089 11.2828 24.8725 10.7863 25.293 10.3509C25.3207 10.3227 25.3602 10.3126 25.3965 10.3217C25.4109 10.3254 25.4242 10.3318 25.4365 10.3419C25.4797 10.3765 25.4893 10.4377 25.4583 10.4834C25.3068 10.7112 25.2743 11.0135 25.3084 11.2818C25.675 10.4222 26.5036 9.66757 27.361 9.45096C27.3786 9.4467 27.3967 9.4467 27.4138 9.45096C27.4415 9.45841 27.4661 9.47651 27.481 9.50312C27.5045 9.5457 27.4954 9.59892 27.4597 9.63191C27.3076 9.77188 27.1732 10.0236 27.0963 10.2966C27.6432 9.89695 28.3667 9.84213 29.0214 9.84746C29.3698 9.85012 29.7577 9.88152 30.169 9.91452C31.5306 10.0242 33.0736 10.1487 33.9694 9.31685C33.9967 9.2913 34.0345 9.28278 34.0687 9.29183C34.0826 9.29556 34.0964 9.30194 34.1082 9.31152C34.1493 9.34452 34.1605 9.40253 34.1338 9.44777C34.0548 9.58455 33.9828 9.73623 33.9065 9.89642C33.803 10.1146 33.6968 10.3382 33.5645 10.5399C33.7213 10.4829 33.8622 10.4169 33.9908 10.3397C34.4155 10.0843 35.2996 9.55315 35.4228 8.90651C35.4314 8.86074 35.4692 8.82562 35.5157 8.82083C35.529 8.81923 35.5418 8.82083 35.5546 8.82349C35.5856 8.83147 35.6122 8.85329 35.6256 8.88416C36.0519 9.86023 35.9254 10.9172 35.744 11.6314C35.7077 11.7746 35.6635 11.9114 35.6106 12.0449C36.1543 11.8177 36.6681 11.2232 36.7497 10.6852C36.7583 10.6293 36.809 10.5899 36.8655 10.5952C36.8714 10.5957 36.8767 10.5968 36.8821 10.5979C36.9301 10.6101 36.9642 10.6548 36.9616 10.7054C36.9546 10.8629 36.9504 11.0242 36.9461 11.1806C36.9269 11.9268 36.9066 12.6953 36.5657 13.3723C36.8517 13.244 37.0517 13.0705 37.1734 12.8459C37.1969 12.8023 37.247 12.7815 37.294 12.7938C37.2993 12.7954 37.3046 12.797 37.3094 12.7991C37.3601 12.8209 37.3857 12.8779 37.3681 12.93C37.3511 12.9816 37.334 13.0338 37.3169 13.0865C37.1067 13.7278 36.8719 14.4447 36.2738 14.8438C36.4755 14.8726 36.6927 14.8619 36.9045 14.7416C36.9296 14.7278 36.9578 14.7246 36.984 14.731C37.0069 14.7369 37.0283 14.7507 37.0432 14.7709C37.0752 14.8146 37.0693 14.8752 37.0293 14.912C36.9509 14.9843 36.8682 15.0764 36.7812 15.1738C36.5134 15.4724 36.1869 15.8369 35.7739 15.8279C35.7702 16.1584 35.6869 16.5144 35.6074 16.8274C35.5946 16.8769 35.5487 16.9104 35.4981 16.9072C35.4911 16.9072 35.4842 16.9056 35.4772 16.904C35.4362 16.8934 35.4041 16.8588 35.3983 16.8151C35.3508 16.466 34.9453 15.062 34.6977 14.8268C34.5211 14.8603 34.3536 14.8641 34.1989 14.8374C34.1962 14.8374 34.193 14.8364 34.1903 14.8358C34.1557 14.8268 34.1274 14.8007 34.1162 14.7667C34.1039 14.7294 34.113 14.6884 34.1397 14.6602C34.1429 14.657 34.1461 14.6533 34.1493 14.6501C33.9086 14.69 33.6461 14.6634 33.4439 14.6107C33.4258 14.6059 33.4076 14.6011 33.39 14.5958C33.3127 14.5729 33.2396 14.5431 33.1718 14.508C32.7508 14.6389 32.2941 14.6469 31.8481 14.5314C31.6373 14.4766 31.433 14.3957 31.2377 14.2903C31.2388 14.3212 31.2414 14.3494 31.2484 14.3712C31.2617 14.4133 31.2478 14.4596 31.2132 14.4867C31.1865 14.508 31.1518 14.5144 31.1203 14.5064C31.1107 14.5037 31.1011 14.5 31.092 14.4947C30.9821 14.4287 30.893 14.3627 30.8242 14.2957C30.8151 14.3888 30.805 14.4846 30.7794 14.5809C30.7703 14.6155 30.7436 14.6437 30.7095 14.6549C30.6898 14.6613 30.6689 14.6618 30.6497 14.6565C30.6353 14.6528 30.6215 14.6458 30.6097 14.6363C30.5516 14.5894 30.4918 14.5405 30.4304 14.4894C30.0623 14.1855 29.6445 13.8406 29.1937 13.7241C29.0795 13.6948 28.9675 13.681 28.8586 13.6841C28.8528 13.7198 28.8464 13.7555 28.84 13.7901C28.7786 14.1307 28.7258 14.425 29.0528 14.6783C29.0961 14.7118 29.1067 14.772 29.0779 14.8183C29.0528 14.8587 29.0048 14.8768 28.9605 14.8656C28.9541 14.8641 28.9477 14.8619 28.9413 14.8587C28.8213 14.8018 28.6895 14.7518 28.5625 14.7039C28.2461 14.5841 27.9014 14.4537 27.672 14.1807C27.6822 14.2334 27.695 14.2855 27.7088 14.3366C27.7825 14.6027 27.8966 14.806 28.0215 14.8944C28.0642 14.9247 28.0786 14.9811 28.0556 15.028C28.0332 15.0737 27.982 15.0966 27.9329 15.0844C27.9313 15.0844 27.9303 15.0839 27.9287 15.0833C27.6976 15.0141 27.4976 14.8992 27.321 14.7773C27.3956 15.4229 27.155 16.0243 26.6391 16.4788C26.6119 16.5027 26.5751 16.5107 26.542 16.5022C26.5281 16.4985 26.5148 16.4921 26.503 16.483C26.4625 16.4511 26.4507 16.3952 26.4748 16.35C26.5478 16.2111 26.5628 16.0104 26.5196 15.7507C26.4219 15.9327 26.2987 16.0865 26.1781 16.2366C26.1066 16.326 26.0324 16.4186 25.9642 16.516C25.9465 16.541 25.9199 16.557 25.8895 16.5607C25.8761 16.5623 25.8628 16.5613 25.85 16.5581C25.834 16.5538 25.819 16.5464 25.8068 16.5352C25.5843 16.3404 25.4269 16.2302 25.3404 16.2079C25.3111 16.2004 25.3079 16.2026 25.2764 16.226C25.2503 16.2446 25.2177 16.251 25.1868 16.243C25.1814 16.2414 25.1766 16.2398 25.1713 16.2377C25.1366 16.2228 25.1126 16.1908 25.1078 16.1541C25.0945 16.0551 25.0939 15.9407 25.1051 15.8124C25.0054 15.8087 24.9008 15.7991 24.785 15.7885C24.7343 15.7837 24.6815 15.7789 24.6266 15.7747L24.5876 15.7715C24.3267 15.7491 24.1624 15.7443 24.0743 15.9226C24.0551 15.9615 24.0146 15.9849 23.9714 15.9817C23.965 15.9817 23.958 15.9801 23.9522 15.9785C23.9175 15.9694 23.8892 15.9434 23.8775 15.9088C23.7974 15.6661 23.8017 15.4431 23.8534 15.235C23.8273 15.2637 23.7873 15.276 23.7489 15.2664H23.7478C23.7083 15.2558 23.6779 15.2238 23.6699 15.1839C23.544 14.5495 23.6672 13.8108 23.9788 13.2669C23.8951 13.2866 23.815 13.3127 23.7393 13.3542C23.7302 13.3638 23.7201 13.3717 23.7078 13.3776C23.6913 13.3856 23.6608 13.4005 23.6208 13.3904C23.5808 13.3803 23.5504 13.3473 23.5424 13.3068C23.5355 13.2706 23.5456 13.2387 23.5733 13.211C23.7158 12.8294 23.9329 12.591 24.2344 12.4883C24.1026 12.3568 23.9639 12.2296 23.7921 12.1854C23.7665 12.1791 23.7403 12.1743 23.7142 12.1711C23.7089 12.1705 23.7035 12.1695 23.6987 12.1684C23.6582 12.1578 23.6267 12.1242 23.6203 12.0822C23.6128 12.0348 23.6379 11.988 23.6822 11.9683Z" fill="#2B2419"/>
<path id="Vector_58" d="M23.6597 13.2824C23.6597 13.2824 23.6613 13.2776 23.6624 13.2749C23.6608 13.276 23.6592 13.2765 23.6581 13.2776C23.6421 13.2893 23.6426 13.2909 23.6597 13.2824Z" fill="url(#paint0_linear_10350_14741)"/>
<path id="Vector_59" d="M26.6633 13.9572C26.7001 14.0226 26.7433 14.0822 26.7924 14.1349C26.8292 14.4494 26.9274 14.7533 26.9338 15.0828C26.9407 15.4622 26.8884 15.8545 26.7187 16.1914C26.7321 16.0514 26.7299 15.8992 26.7091 15.7299C26.6873 15.549 26.6782 15.2627 26.6296 15.0061C26.6585 14.6666 26.6328 14.2658 26.6633 13.9572Z" fill="#2B2419"/>
</g>
</g>
<g id="Group_20">
<path id="Vector_60" d="M20.9246 22.5071L21.7585 17.6289L25.6715 18.828C25.6715 18.828 24.2389 22.2368 22.8832 23.1245L20.9246 22.5077V22.5071Z" fill="#FACFBE"/>
<path id="Vector_61" d="M24.9978 15.4522C25.7037 15.8189 26.0846 16.6039 25.9358 17.3841L25.6626 18.8125L21.7603 17.6289L22.5974 16.1595C23.0765 15.3181 24.1372 15.0056 24.9978 15.4527V15.4522Z" fill="#FACFBE"/>
</g>
<path id="Vector_62" d="M23.1531 31.2379C22.9258 34.1677 23.2764 47.6842 17.3957 47.9929C16.4796 48.037 15.5448 47.6906 14.8309 47.0855C14.8245 47.0855 14.8122 47.0727 14.8058 47.0668C8.6594 44.0604 17.926 21.7454 21.6293 21.7625C22.5529 21.7667 24.4022 21.523 24.9458 22.2665C25.489 23.0036 23.5266 26.3927 23.1537 31.2379H23.1531Z" fill="#FD8F33"/>
</g>
<g id="Group_21">
<path id="Vector_63" d="M162.834 78.8068H148.67C147.323 78.8068 146.23 79.8962 146.23 81.2405V90.3408C146.23 91.6846 147.322 92.7746 148.67 92.7746H152.743L154.562 95.1477C155.162 95.93 156.343 95.93 156.943 95.1477L158.762 92.7746H162.835C164.182 92.7746 165.275 91.6851 165.275 90.3408V81.2405C165.275 79.8967 164.182 78.8068 162.835 78.8068H162.834Z" fill="#367D7E"/>
<path id="Vector_64" opacity="0.7" d="M162.834 78.8068H148.67C147.323 78.8068 146.23 79.8962 146.23 81.2405V90.3408C146.23 91.6846 147.322 92.7746 148.67 92.7746H152.743L154.562 95.1477C155.162 95.93 156.343 95.93 156.943 95.1477L158.762 92.7746H162.835C164.182 92.7746 165.275 91.6851 165.275 90.3408V81.2405C165.275 79.8967 164.182 78.8068 162.835 78.8068H162.834Z" fill="#CDDFDF"/>
<path id="Vector_65" d="M162.013 85.0581L157.48 82.2986V83.9532H155.403C152.629 83.9532 150.381 86.1959 150.381 88.9629C150.381 89.3429 150.428 89.7122 150.508 90.0678C151.013 87.8335 153.01 86.1629 155.403 86.1629H157.48V87.8176L162.013 85.0581Z" fill="white"/>
</g>
<g id="Group_22">
<path id="Vector_66" d="M60.5718 14.2227H71.4326C72.4655 14.2227 73.3032 15.0582 73.3032 16.0886V23.0664C73.3032 24.0967 72.4655 24.9323 71.4326 24.9323H68.3098L66.9151 26.7519C66.4552 27.3517 65.5492 27.3517 65.0893 26.7519L63.6946 24.9323H60.5718C59.5383 24.9323 58.7012 24.0967 58.7012 23.0664V16.0886C58.7012 15.0582 59.5388 14.2227 60.5718 14.2227Z" fill="#367D7E"/>
<path id="Vector_67" opacity="0.7" d="M60.5718 14.2227H71.4326C72.4655 14.2227 73.3032 15.0582 73.3032 16.0886V23.0664C73.3032 24.0967 72.4655 24.9323 71.4326 24.9323H68.3098L66.9151 26.7519C66.4552 27.3517 65.5492 27.3517 65.0893 26.7519L63.6946 24.9323H60.5718C59.5383 24.9323 58.7012 24.0967 58.7012 23.0664V16.0886C58.7012 15.0582 59.5388 14.2227 60.5718 14.2227Z" fill="#CDDFDF"/>
<path id="Vector_68" d="M61.1997 19.0163L64.6758 16.9003V18.1691H66.2684C68.3951 18.1691 70.1195 19.8891 70.1195 22.0105C70.1195 22.3022 70.0843 22.5848 70.0224 22.8578C69.635 21.1446 68.1032 19.8636 66.2684 19.8636H64.6758V21.1324L61.1997 19.0163Z" fill="white"/>
</g>
</g>
<defs>
<linearGradient id="paint0_linear_10350_14741" x1="23.6664" y1="13.287" x2="23.6652" y2="13.3004" gradientUnits="userSpaceOnUse">
<stop stop-color="#4B4067"/>
<stop offset="0.55" stop-color="#433860"/>
<stop offset="1" stop-color="#392F57"/>
</linearGradient>
<clipPath id="clip0_10350_14741">
<rect width="197.192" height="165.14" fill="white" transform="translate(0.600586 0.877563)"/>
</clipPath>
</defs>
</svg>
