<svg width="113" height="112" viewBox="0 0 113 112" fill="none" xmlns="http://www.w3.org/2000/svg">
<path fill-rule="evenodd" clip-rule="evenodd" d="M56.5004 111.2C71.2464 111.2 85.3885 105.384 95.8155 95.0323C106.243 84.6803 112.1 70.64 112.1 56C112.1 41.3601 106.243 27.3198 95.8155 16.9678C85.3885 6.61575 71.2464 0.800049 56.5004 0.800049C41.7544 0.800049 27.6123 6.61575 17.1853 16.9678C6.75823 27.3198 0.900391 41.3601 0.900391 56C0.900391 70.64 6.75823 84.6803 17.1853 95.0323C27.6123 105.384 41.7544 111.2 56.5004 111.2ZM82.264 47.0783C83.53 45.777 84.2306 44.034 84.2147 42.2249C84.1989 40.4157 83.468 38.6851 82.1794 37.4058C80.8908 36.1265 79.1476 35.4008 77.3254 35.3851C75.5031 35.3694 73.7475 36.0649 72.4367 37.3218L49.5504 60.0435L40.564 51.1217C39.2533 49.8649 37.4977 49.1694 35.6754 49.1851C33.8531 49.2008 32.11 49.9265 30.8214 51.2058C29.5328 52.4851 28.8019 54.2157 28.7861 56.0249C28.7702 57.834 29.4707 59.577 30.7367 60.8783L44.6367 74.6783C45.9401 75.9719 47.7075 76.6986 49.5504 76.6986C51.3933 76.6986 53.1607 75.9719 54.464 74.6783L82.264 47.0783Z" fill="url(#paint0_linear_8405_22888)"/>
<defs>
<linearGradient id="paint0_linear_8405_22888" x1="82.5045" y1="10.974" x2="36.5834" y2="107.22" gradientUnits="userSpaceOnUse">
<stop stop-color="#2D9F8B"/>
<stop offset="1" stop-color="#045D5E"/>
</linearGradient>
</defs>
</svg>
