<svg width="21" height="19" viewBox="0 0 21 19" fill="none" xmlns="http://www.w3.org/2000/svg">
<path d="M9.5 13.7233L5.5 9.72327M5.5 9.72327L9.5 5.72327M5.5 9.72327H19.5M14.5 13.7233V14.7233C14.5 15.5189 14.1839 16.282 13.6213 16.8446C13.0587 17.4072 12.2956 17.7233 11.5 17.7233H4.5C3.70435 17.7233 2.94129 17.4072 2.37868 16.8446C1.81607 16.282 1.5 15.5189 1.5 14.7233V4.72327C1.5 3.92762 1.81607 3.16456 2.37868 2.60195C2.94129 2.03934 3.70435 1.72327 4.5 1.72327H11.5C12.2956 1.72327 13.0587 2.03934 13.6213 2.60195C14.1839 3.16456 14.5 3.92762 14.5 4.72327V5.72327" stroke="#045D5E" stroke-width="2" stroke-linecap="round" stroke-linejoin="round"/>
</svg>
