<svg width="60" height="24" viewBox="0 0 60 24" fill="none" xmlns="http://www.w3.org/2000/svg">
<mask id="mask0_9583_5212" style="mask-type:luminance" maskUnits="userSpaceOnUse" x="0" y="0" width="60" height="24">
<path d="M60 0H0V23.4783H60V0Z" fill="white"/>
</mask>
<g mask="url(#mask0_9583_5212)">
<path d="M0 8.69543C6.3836 9.86077 6.64248 16.421 6.64248 16.421V23.478C3.08296 23.2118 0.247107 20.195 0.00588351 16.4269" fill="#EC1C24"/>
<path d="M14.1552 8.69543C7.77745 9.86077 7.5127 16.421 7.5127 16.421V23.478C11.0722 23.2118 13.9139 20.2009 14.1493 16.4269" fill="#EC1C24"/>
<path d="M15.0205 0C21.3982 1.16534 21.663 7.72553 21.663 7.72553V23.4783C18.1035 23.2121 15.2676 20.2011 15.0264 16.4271" fill="#EC1C24"/>
<path d="M29.183 8.69543C22.7994 9.86077 22.5405 16.421 22.5405 16.421V23.478C26.0942 23.2118 28.9359 20.2009 29.1771 16.4269" fill="#EC1C24"/>
<path d="M32.3174 13.339V15.9063C32.3468 16.622 32.7527 17.0598 33.4117 17.0598C34.0707 17.0598 34.4707 16.628 34.5001 15.9063V13.339H34.8532V15.9122C34.8414 16.764 34.3648 17.391 33.4117 17.391C32.4586 17.391 31.9761 16.764 31.9644 15.9122V13.339" fill="black"/>
<path d="M35.8301 17.3024H35.5065V15.1669C35.5065 14.9539 35.4888 14.7351 35.4771 14.5458H35.8124L35.8301 14.9539L35.8418 14.9658C36.036 14.6227 36.3478 14.4689 36.7008 14.4689C37.5951 14.4689 37.6657 15.2615 37.6657 15.581V17.3024H37.3362V15.5218C37.3362 15.0427 37.0656 14.7646 36.6185 14.7646C36.0772 14.7646 35.8301 15.2201 35.8301 15.717" fill="black"/>
<path d="M38.7374 13.8952H38.3608V13.4811H38.7374M38.7139 14.5459V17.3024H38.3844V14.5459H38.7139Z" fill="black"/>
<path d="M39.4258 14.5459L40.373 16.847L41.285 14.5459H41.6498L40.5554 17.3025H40.1906L39.0669 14.5459" fill="black"/>
<path d="M42.1841 16.0013C42.1958 16.5869 42.4606 17.0838 43.1313 17.0838C43.5196 17.0838 43.8373 16.7999 43.9256 16.4213H44.2668C44.0962 17.0838 43.6902 17.3796 43.0313 17.3796C42.2076 17.3796 41.8311 16.6698 41.8311 15.9185C41.8311 15.1672 42.237 14.4574 43.0489 14.4574C43.9668 14.4574 44.3021 15.1318 44.3021 15.9954M43.9491 15.6937C43.9079 15.1613 43.6255 14.7591 43.0548 14.7591C42.5194 14.7591 42.237 15.2087 42.1958 15.6937H43.9491Z" fill="black"/>
<path d="M45.1899 17.3025H44.8663V15.1671C44.8663 14.9541 44.8487 14.7352 44.8369 14.546H45.1723L45.1899 14.9541H45.2017C45.2958 14.6761 45.5429 14.475 45.8195 14.4631C45.9254 14.4631 46.0372 14.4631 46.1431 14.4631V14.7826C46.0842 14.7767 46.0136 14.7589 45.943 14.7589C45.4547 14.7589 45.2017 15.1138 45.184 15.6403" fill="black"/>
<path d="M47.4317 14.4631C47.9554 14.4631 48.3907 14.6465 48.4319 15.2262H48.0789C48.0436 14.8831 47.7377 14.7648 47.4023 14.7648C47.0964 14.7648 46.7845 14.889 46.7845 15.2085C46.7845 15.6166 47.3141 15.5752 48.0554 15.8414C48.3378 15.942 48.5202 16.1845 48.5202 16.4862C48.5202 17.1073 47.9495 17.3853 47.367 17.3853C46.8905 17.3853 46.3492 17.1606 46.3374 16.5513H46.6963C46.7198 16.9594 47.0787 17.0837 47.4553 17.0837C47.8024 17.0837 48.1672 16.918 48.1672 16.5335C48.1672 16.149 47.7377 16.0721 47.3023 15.9716C46.8728 15.871 46.4315 15.7409 46.4315 15.2321C46.4315 14.6643 46.9552 14.4631 47.4317 14.4631Z" fill="black"/>
<path d="M49.4459 13.8952H49.0635V13.4811H49.4459M49.4224 14.5459V17.3024H49.0929V14.5459H49.4224Z" fill="black"/>
<path d="M50.3699 14.8479H49.8228V14.5462H50.3699V13.9606L50.6994 13.8186V14.5462H51.3172V14.8479H50.6994V16.6935C50.6994 16.9479 50.823 17.0839 51.0701 17.0839C51.1701 17.0839 51.2701 17.078 51.3583 17.0484V17.3324C51.2524 17.3619 51.1289 17.3797 51.023 17.3797C50.3346 17.3797 50.3699 16.936 50.3699 16.5634" fill="black"/>
<path d="M52.0876 14.5459L53.0113 16.8529L53.9232 14.5459H54.2821L52.8054 18.2549H52.4406L52.823 17.3025L51.6875 14.5459" fill="black"/>
<path d="M58.1233 15.9242C58.1233 16.6518 57.7232 17.3853 56.8465 17.3853C55.9699 17.3853 55.5698 16.6518 55.5698 15.9242C55.5698 15.1966 55.9758 14.4631 56.8465 14.4631C57.7173 14.4631 58.1233 15.1966 58.1233 15.9242ZM56.8465 14.7648C56.1876 14.7648 55.9287 15.4155 55.9287 15.9242C55.9287 16.433 56.1876 17.0837 56.8465 17.0837C57.5055 17.0837 57.7703 16.433 57.7703 15.9242C57.7703 15.4155 57.5114 14.7648 56.8465 14.7648Z" fill="black"/>
<path d="M58.869 17.3024V14.8475H58.3159V14.5459H58.869V14.1022C58.869 13.629 59.0631 13.416 59.5279 13.416C59.6338 13.416 59.7456 13.4574 59.8397 13.4752V13.7354C59.775 13.7236 59.7044 13.7118 59.6338 13.7118C59.1867 13.7118 59.1749 13.9366 59.1984 14.3329V14.5399H59.8221V14.8416H59.1984V17.2965" fill="black"/>
<path d="M31.9819 22.7802V18.8169H33.3999C33.9823 18.8169 34.5001 19.1777 34.5001 19.8107C34.5001 20.2484 34.1824 20.6033 33.7705 20.7098V20.7217C34.3059 20.8104 34.6648 21.1594 34.6648 21.7273C34.6648 22.2478 34.3471 22.7861 33.4881 22.7861M33.1998 20.5679C33.6587 20.5679 34.1176 20.3845 34.1176 19.8462C34.1176 19.2724 33.647 19.1541 33.1822 19.1482H32.3408V20.5679H33.1998ZM32.3408 22.4549H33.2116C33.8882 22.4667 34.2824 22.2833 34.2824 21.674C34.2824 20.9997 33.7411 20.8932 32.9998 20.8932H32.3467V22.4549H32.3408Z" fill="black"/>
<path d="M35.4839 21.479C35.4956 22.0706 35.7663 22.5616 36.437 22.5616C36.8194 22.5616 37.143 22.2835 37.2313 21.905H37.5725C37.4019 22.5616 36.9959 22.8633 36.3311 22.8633C35.5133 22.8633 35.1309 22.1534 35.1309 21.4021C35.1309 20.6509 35.5368 19.941 36.3546 19.941C37.2725 19.941 37.6078 20.6154 37.6078 21.479M37.2489 21.1774C37.2136 20.645 36.9312 20.2427 36.3605 20.2427C35.8251 20.2427 35.5368 20.6923 35.4956 21.1774H37.2489Z" fill="black"/>
<path d="M40.0022 22.3721L39.9904 22.3484C39.7668 22.6797 39.4315 22.8571 39.0549 22.8571C38.2371 22.8571 37.9253 22.0763 37.9253 21.3842C37.9253 20.6921 38.2371 19.9349 39.0549 19.9349C39.4197 19.9349 39.7962 20.1124 39.9904 20.4377L40.0022 20.4259V18.9589H40.3316V22.1532C40.3316 22.3721 40.3434 22.585 40.3552 22.7743H40.0198M39.1079 20.2366C38.4842 20.2366 38.2783 20.8163 38.2783 21.3487C38.2783 21.8811 38.4313 22.5554 39.0608 22.5554C39.7727 22.5554 39.9904 21.958 39.9904 21.3309C39.9904 20.769 39.7433 20.2366 39.1079 20.2366Z" fill="black"/>
<path d="M41.1663 22.7803V20.3255H40.6133V20.0238H41.1663V19.5801C41.1663 19.1069 41.3605 18.8939 41.8253 18.8939C41.9253 18.8939 42.043 18.9294 42.1371 18.9531V19.2134C42.0724 19.2015 41.9959 19.1897 41.9312 19.1897C41.4899 19.1897 41.4723 19.4145 41.4958 19.8108V20.0178H42.1136V20.3195H41.4958V22.7744" fill="black"/>
<path d="M44.8913 21.4021C44.8913 22.1238 44.4854 22.8633 43.6146 22.8633C42.7439 22.8633 42.3379 22.1238 42.3379 21.4021C42.3379 20.6805 42.738 19.941 43.6146 19.941C44.4913 19.941 44.8913 20.6805 44.8913 21.4021ZM43.6146 20.2427C42.9557 20.2427 42.6909 20.8934 42.6909 21.4021C42.6909 21.9109 42.9557 22.5616 43.6146 22.5616C44.2736 22.5616 44.5383 21.9109 44.5383 21.4021C44.5383 20.8934 44.2736 20.2427 43.6146 20.2427Z" fill="black"/>
<path d="M45.6792 22.7804H45.3497V20.645C45.3497 20.432 45.3321 20.2131 45.3262 20.0239H45.6615L45.6792 20.432H45.691C45.7851 20.1481 46.0322 19.9529 46.3028 19.941C46.4146 19.941 46.5264 19.941 46.6323 19.947V20.2664C46.5676 20.2664 46.497 20.2427 46.4264 20.2427C45.9381 20.2427 45.6909 20.5977 45.6792 21.1182" fill="black"/>
<path d="M48.8396 22.3721L48.8278 22.3484C48.6042 22.6797 48.2689 22.8571 47.8864 22.8571C47.0745 22.8571 46.7627 22.0763 46.7627 21.3842C46.7627 20.6921 47.0745 19.9349 47.8864 19.9349C48.2512 19.9349 48.6336 20.1124 48.8278 20.4377L48.8396 20.4259V18.9589H49.1632V22.1532C49.1632 22.3721 49.1808 22.585 49.1926 22.7743H48.8513M47.9394 20.2366C47.3216 20.2366 47.1157 20.8163 47.1157 21.3487C47.1157 21.8811 47.2687 22.5554 47.8923 22.5554C48.6042 22.5554 48.8278 21.958 48.8278 21.3309C48.8278 20.769 48.5807 20.2366 47.9394 20.2366Z" fill="black"/>
<path d="M50.6739 19.941C51.1975 19.941 51.6329 20.1244 51.6741 20.7041H51.3211C51.2858 20.3551 50.9798 20.2427 50.6445 20.2427C50.3385 20.2427 50.0267 20.367 50.0267 20.6864C50.0267 21.0945 50.5562 21.0531 51.2976 21.3193C51.5858 21.4199 51.7682 21.6624 51.7682 21.9582C51.7682 22.5793 51.1916 22.8573 50.6151 22.8573C50.1326 22.8573 49.5913 22.6326 49.5854 22.0233H49.9385C49.962 22.4373 50.3209 22.5557 50.6916 22.5557C51.0387 22.5557 51.4035 22.39 51.4035 22.0055C51.4035 21.621 50.9798 21.5441 50.5386 21.4495C50.1091 21.343 49.6678 21.2188 49.6678 20.71C49.6678 20.1422 50.1915 19.941 50.668 19.941" fill="black"/>
<path d="M52.6102 20.4377H52.622C52.8103 20.0946 53.1221 19.9349 53.4751 19.9349C54.3753 19.9349 54.4459 20.7335 54.4459 21.0529V22.7802H54.1164V20.9997C54.1164 20.5205 53.8399 20.2425 53.3986 20.2425C52.8573 20.2425 52.6102 20.698 52.6102 21.1949V22.7802H52.2808V18.9589H52.6102" fill="black"/>
<path d="M55.4581 19.3728H55.0757V18.9646H55.4581M55.4287 20.0294V22.786H55.1051V20.0294H55.4287Z" fill="black"/>
<path d="M56.417 22.7804H56.0875V20.645C56.0934 20.432 56.0757 20.2131 56.064 20.0239H56.3993L56.417 20.432H56.4287C56.5229 20.1481 56.77 19.9529 57.0465 19.941C57.1524 19.941 57.2642 19.941 57.3701 19.947V20.2664C57.3054 20.2664 57.2407 20.2427 57.1701 20.2427C56.6817 20.2427 56.4287 20.5977 56.4111 21.1182" fill="black"/>
<path d="M57.8818 21.479C57.8936 22.0706 58.1583 22.5616 58.8291 22.5616C59.2174 22.5616 59.541 22.2835 59.6233 21.905H59.9705C59.794 22.5616 59.388 22.8633 58.729 22.8633C57.9054 22.8633 57.5288 22.1534 57.5288 21.4021C57.5288 20.6509 57.9348 19.941 58.7526 19.941C59.6704 19.941 59.9999 20.6154 59.9999 21.479M59.6469 21.1774C59.6116 20.645 59.3233 20.2427 58.7585 20.2427C58.1936 20.2427 57.9348 20.6923 57.8936 21.1774H59.6469Z" fill="black"/>
</g>
</svg>
