<svg width="14" height="16" viewBox="0 0 14 16" fill="none" xmlns="http://www.w3.org/2000/svg">
<path fill-rule="evenodd" clip-rule="evenodd" d="M9.66683 0.666626C10.035 0.666626 10.3335 0.965103 10.3335 1.33329V2.00104C10.6505 2.00322 10.9275 2.00977 11.168 2.02942C11.5428 2.06004 11.8872 2.12575 12.2108 2.29061C12.7126 2.54627 13.1205 2.95422 13.3762 3.45599C13.541 3.77954 13.6067 4.12401 13.6374 4.49874C13.6668 4.85954 13.6668 5.30244 13.6668 5.83908V11.4942C13.6668 12.0308 13.6668 12.4737 13.6374 12.8345C13.6067 13.2092 13.541 13.5537 13.3762 13.8773C13.1205 14.379 12.7126 14.787 12.2108 15.0426C11.8872 15.2075 11.5428 15.2732 11.168 15.3038C10.8073 15.3333 10.3644 15.3333 9.82771 15.3333H4.17261C3.63597 15.3333 3.19307 15.3333 2.83228 15.3038C2.45755 15.2732 2.11308 15.2075 1.78952 15.0426C1.28776 14.787 0.879809 14.379 0.624146 13.8773C0.459286 13.5537 0.393576 13.2092 0.362959 12.8345C0.333481 12.4737 0.333488 12.0308 0.333496 11.4942V5.83909C0.333488 5.30245 0.333481 4.85954 0.362959 4.49874C0.393576 4.12401 0.459286 3.77954 0.624146 3.45599C0.879809 2.95422 1.28776 2.54627 1.78952 2.29061C2.11308 2.12575 2.45755 2.06004 2.83228 2.02942C3.07282 2.00977 3.34985 2.00322 3.66683 2.00104V1.33329C3.66683 0.965103 3.96531 0.666626 4.3335 0.666626C4.70169 0.666626 5.00016 0.965103 5.00016 1.33329V1.99996H9.00016V1.33329C9.00016 0.965103 9.29864 0.666626 9.66683 0.666626ZM3.66683 3.33447V3.99996C3.66683 4.36815 3.96531 4.66663 4.3335 4.66663C4.70169 4.66663 5.00016 4.36815 5.00016 3.99996V3.33329H9.00016V3.99996C9.00016 4.36815 9.29864 4.66663 9.66683 4.66663C10.035 4.66663 10.3335 4.36815 10.3335 3.99996V3.33447C10.6305 3.33655 10.8637 3.34234 11.0595 3.35833C11.3517 3.38221 11.5012 3.42549 11.6055 3.47862C11.8564 3.60645 12.0603 3.81042 12.1882 4.06131C12.2413 4.16557 12.2846 4.31504 12.3085 4.60732C12.333 4.90738 12.3335 5.29557 12.3335 5.86663V5.99996H1.66683V5.86663C1.66683 5.29557 1.66735 4.90738 1.69186 4.60732C1.71574 4.31504 1.75903 4.16557 1.81215 4.06131C1.93999 3.81042 2.14396 3.60645 2.39484 3.47862C2.49911 3.42549 2.64858 3.38221 2.94086 3.35833C3.13658 3.34234 3.36981 3.33655 3.66683 3.33447Z" fill="#FC7300"/>
</svg>
