<svg width="16" height="16" viewBox="0 0 16 16" fill="none" xmlns="http://www.w3.org/2000/svg">
<path fill-rule="evenodd" clip-rule="evenodd" d="M0.666504 8.00002C0.666504 3.94993 3.94975 0.666687 7.99984 0.666687C12.0499 0.666687 15.3332 3.94993 15.3332 8.00002C15.3332 12.0501 12.0499 15.3334 7.99984 15.3334C3.94975 15.3334 0.666504 12.0501 0.666504 8.00002ZM8.6665 4.00002C8.6665 3.63183 8.36803 3.33335 7.99984 3.33335C7.63165 3.33335 7.33317 3.63183 7.33317 4.00002V8.00002C7.33317 8.25253 7.47584 8.48338 7.70169 8.5963L10.3684 9.92964C10.6977 10.0943 11.0981 9.96081 11.2628 9.6315C11.4274 9.30218 11.294 8.90173 10.9646 8.73707L8.6665 7.588V4.00002Z" fill="#FC7300"/>
</svg>
