<svg width="375" height="248" viewBox="0 0 375 248" fill="none" xmlns="http://www.w3.org/2000/svg">
<path d="M-16 223V178.35C-16.0002 176.704 -15.5942 175.084 -14.8179 173.632C-14.0417 172.181 -12.9192 170.943 -11.55 170.03L23.45 146.7C25.0933 145.604 27.0245 145.018 29 145.018C30.9755 145.018 32.9067 145.604 34.55 146.7L69.55 170.03C70.9192 170.943 72.0417 172.181 72.8179 173.632C73.5942 175.084 74.0002 176.704 74 178.35V223M-16 223C-16 225.652 -14.9464 228.196 -13.0711 230.071C-11.1957 231.946 -8.65216 233 -6 233H64C66.6522 233 69.1957 231.946 71.0711 230.071C72.9464 228.196 74 225.652 74 223M-16 223L17.75 200.5M74 223L40.25 200.5M17.75 200.5L-16 178M17.75 200.5L23.45 204.3C25.0933 205.396 27.0245 205.981 29 205.981C30.9755 205.981 32.9067 205.396 34.55 204.3L40.25 200.5M40.25 200.5L74 178" stroke="#FEC799" stroke-width="3" stroke-linecap="round" stroke-linejoin="round"/>
<path d="M311.125 70.4583V37.3429C311.125 36.1222 311.426 34.9203 312.002 33.8439C312.577 32.7674 313.41 31.8498 314.425 31.1723L340.384 13.8692C341.603 13.056 343.035 12.6221 344.5 12.6221C345.965 12.6221 347.397 13.056 348.616 13.8692L374.575 31.1723C375.59 31.8498 376.423 32.7674 376.998 33.8439C377.574 34.9203 377.875 36.1222 377.875 37.3429V70.4583M311.125 70.4583C311.125 72.4254 311.906 74.3118 313.297 75.7027C314.688 77.0936 316.575 77.875 318.542 77.875H370.458C372.425 77.875 374.312 77.0936 375.703 75.7027C377.094 74.3118 377.875 72.4254 377.875 70.4583M311.125 70.4583L336.156 53.7708M377.875 70.4583L352.844 53.7708M336.156 53.7708L311.125 37.0833M336.156 53.7708L340.384 56.5892C341.603 57.4023 343.035 57.8363 344.5 57.8363C345.965 57.8363 347.397 57.4023 348.616 56.5892L352.844 53.7708M352.844 53.7708L377.875 37.0833" stroke="#FEC799" stroke-width="3" stroke-linecap="round" stroke-linejoin="round"/>
<path fill-rule="evenodd" clip-rule="evenodd" d="M187.5 160.2C202.246 160.2 216.389 154.384 226.816 144.032C237.243 133.68 243.1 119.64 243.1 105C243.1 90.3601 237.243 76.3198 226.816 65.9678C216.389 55.6157 202.246 49.8 187.5 49.8C172.754 49.8 158.612 55.6157 148.185 65.9678C137.758 76.3198 131.9 90.3601 131.9 105C131.9 119.64 137.758 133.68 148.185 144.032C158.612 154.384 172.754 160.2 187.5 160.2ZM213.264 96.0783C214.53 94.777 215.231 93.034 215.215 91.2249C215.199 89.4157 214.468 87.6851 213.179 86.4058C211.891 85.1265 210.148 84.4008 208.325 84.3851C206.503 84.3694 204.748 85.0649 203.437 86.3218L180.55 109.043L171.564 100.122C170.253 98.8649 168.498 98.1694 166.675 98.1851C164.853 98.2008 163.11 98.9265 161.821 100.206C160.533 101.485 159.802 103.216 159.786 105.025C159.77 106.834 160.471 108.577 161.737 109.878L175.637 123.678C176.94 124.972 178.707 125.699 180.55 125.699C182.393 125.699 184.161 124.972 185.464 123.678L213.264 96.0783Z" fill="url(#paint0_linear_9926_2842)"/>
<defs>
<linearGradient id="paint0_linear_9926_2842" x1="213.505" y1="59.974" x2="167.583" y2="156.22" gradientUnits="userSpaceOnUse">
<stop stop-color="#2D9F8B"/>
<stop offset="1" stop-color="#045D5E"/>
</linearGradient>
</defs>
</svg>
