<svg width="20" height="17" viewBox="0 0 20 17" fill="none" xmlns="http://www.w3.org/2000/svg">
<path d="M14.1665 10.0833V7.57866C14.1665 7.4291 14.1665 7.35431 14.1437 7.28829C14.1236 7.22991 14.0907 7.17673 14.0475 7.1326C13.9986 7.08271 13.9318 7.04927 13.798 6.98238L9.99984 5.08331M3.33317 5.91664V11.5888C3.33317 11.8987 3.33317 12.0537 3.38152 12.1894C3.42426 12.3093 3.49392 12.4179 3.58515 12.5067C3.68835 12.6072 3.82923 12.6718 4.11096 12.8009L9.4443 15.2454C9.64866 15.339 9.75084 15.3859 9.85729 15.4043C9.95162 15.4207 10.0481 15.4207 10.1424 15.4043C10.2488 15.3859 10.351 15.339 10.5554 15.2454L15.8887 12.8009C16.1704 12.6718 16.3113 12.6072 16.4145 12.5067C16.5058 12.4179 16.5754 12.3093 16.6182 12.1894C16.6665 12.0537 16.6665 11.8987 16.6665 11.5888V5.91664M1.6665 5.08331L9.7017 1.06571C9.81101 1.01105 9.86567 0.983722 9.923 0.972965C9.97378 0.963439 10.0259 0.963439 10.0767 0.972965C10.134 0.983722 10.1887 1.01105 10.298 1.06571L18.3332 5.08331L10.298 9.1009C10.1887 9.15556 10.134 9.18289 10.0767 9.19365C10.0259 9.20317 9.97378 9.20317 9.923 9.19365C9.86567 9.18289 9.81101 9.15556 9.7017 9.1009L1.6665 5.08331Z" stroke="#367D7E" stroke-width="1.5" stroke-linecap="round" stroke-linejoin="round"/>
</svg>
