<svg width="19" height="18" viewBox="0 0 19 18" fill="none" xmlns="http://www.w3.org/2000/svg">
<g id="graduation-hat-02">
<g id="Solid">
<path d="M14.4287 8.06974C14.4951 8.13754 14.5283 8.17145 14.5299 8.17304C14.6779 8.32055 14.7703 8.33604 14.9583 8.24484C15.3913 8.03481 15.8195 7.81427 16.25 7.59904V7.5886L17.3354 7.04587C17.5895 6.91883 17.75 6.65913 17.75 6.37505C17.75 6.09097 17.5895 5.83127 17.3354 5.70423L10.0846 2.07866C10.0146 2.04296 9.86978 1.96906 9.70745 1.9386C9.57034 1.91288 9.42966 1.91288 9.29255 1.9386C9.13022 1.96906 8.98541 2.04296 8.91544 2.07866L1.66459 5.70423C1.4105 5.83127 1.25 6.09097 1.25 6.37505C1.25 6.65913 1.4105 6.91883 1.66459 7.04587L8.96334 10.7057C9.16012 10.8041 9.2585 10.8533 9.3617 10.8726C9.4531 10.8898 9.5469 10.8898 9.6383 10.8726C9.7415 10.8533 9.83988 10.8041 10.0367 10.7057L12.18 9.63403C12.5245 9.46176 12.6968 9.37563 12.7522 9.25894C12.8005 9.1574 12.8006 9.03956 12.7526 8.93789C12.6975 8.82106 12.5254 8.7345 12.1813 8.56138L9.91457 7.42098C9.54409 7.23574 9.39392 6.78524 9.57916 6.41475C9.7644 6.04427 10.2149 5.8941 10.5854 6.07934L14.0273 7.80008C14.1128 7.84179 14.2902 7.92829 14.4287 8.06974Z" fill="#252525"/>
<path d="M12.826 10.9881C13.0208 10.8907 13.25 11.0324 13.25 11.2502C13.25 11.6644 13.5858 12.0002 14 12.0002C14.4142 12.0002 14.75 11.6644 14.75 11.2502V10.3969C14.75 10.2623 14.75 10.195 14.7705 10.1356C14.7886 10.083 14.8182 10.0352 14.8571 9.99545C14.9011 9.95055 14.9613 9.92045 15.0817 9.86025L15.3817 9.71022C15.6692 9.56646 15.813 9.49458 15.9298 9.51185C16.0319 9.52692 16.1232 9.58336 16.1823 9.66789C16.25 9.76468 16.25 9.92541 16.25 10.2469L16.2501 12.2889C16.251 12.5031 16.252 12.7722 16.1629 13.0222C16.086 13.2381 15.9606 13.4335 15.7964 13.5934C15.6063 13.7786 15.3611 13.8897 15.166 13.9782L10.274 16.2203C10.1317 16.2861 9.95248 16.3689 9.75655 16.4029C9.58676 16.4323 9.41316 16.4323 9.24337 16.4029C9.04746 16.3689 8.86827 16.2861 8.72594 16.2204L3.83388 13.9782C3.63878 13.8897 3.39366 13.7786 3.20352 13.5934C3.03931 13.4335 2.91392 13.2381 2.83698 13.0222C2.74791 12.7722 2.74896 12.5031 2.7498 12.2889L2.74987 10.2468C2.74988 9.92536 2.74989 9.76464 2.81759 9.66784C2.87671 9.58332 2.96803 9.52688 3.07008 9.5118C3.18693 9.49454 3.33069 9.56642 3.6182 9.71017L8.89626 12.3492L8.91544 12.3589C8.98541 12.3946 9.13022 12.4685 9.29255 12.499C9.42966 12.5247 9.57034 12.5247 9.70745 12.499C9.86978 12.4685 10.0146 12.3946 10.0846 12.3589L10.1037 12.3492L12.826 10.9881Z" fill="#252525"/>
</g>
</g>
</svg>
