<svg width="49" height="48" viewBox="0 0 49 48" fill="none" xmlns="http://www.w3.org/2000/svg">
<g id="united states" clip-path="url(#clip0_10011_1393)">
<path id="Vector" d="M24.5 48C37.7548 48 48.5 37.2548 48.5 24C48.5 10.7452 37.7548 0 24.5 0C11.2452 0 0.5 10.7452 0.5 24C0.5 37.2548 11.2452 48 24.5 48Z" fill="#F0F0F0"/>
<g id="Group">
<path id="Vector_2" d="M23.4565 24H48.5C48.5 21.8338 48.2112 19.7353 47.6732 17.7391H23.4565V24Z" fill="#D80027"/>
<path id="Vector_3" d="M23.4565 11.4783H44.9774C43.5083 9.08088 41.6298 6.96185 39.4396 5.21735H23.4565V11.4783Z" fill="#D80027"/>
<path id="Vector_4" d="M24.4997 48C30.148 48 35.3396 46.0477 39.4393 42.7826H9.56006C13.6597 46.0477 18.8513 48 24.4997 48Z" fill="#D80027"/>
<path id="Vector_5" d="M4.02244 36.5217H44.9773C46.1568 34.5971 47.0715 32.4934 47.6731 30.2608H1.32666C1.92825 32.4934 2.84297 34.5971 4.02244 36.5217Z" fill="#D80027"/>
</g>
<path id="Vector_6" d="M11.6173 3.74794H13.8043L11.77 5.22591L12.5471 7.61737L10.5128 6.13941L8.4785 7.61737L9.14975 5.55141C7.35856 7.04344 5.78862 8.7915 4.49487 10.7393H5.19566L3.90069 11.68C3.69894 12.0166 3.50544 12.3585 3.32 12.7055L3.93837 14.6087L2.78469 13.7705C2.49791 14.3781 2.23559 14.9993 1.99981 15.6336L2.68109 17.7306H5.19566L3.16128 19.2085L3.93837 21.6L1.90409 20.122L0.685531 21.0074C0.563562 21.9878 0.5 22.9865 0.5 24H24.5C24.5 10.7452 24.5 9.18262 24.5 0C19.7589 0 15.3392 1.37531 11.6173 3.74794ZM12.5471 21.6L10.5128 20.122L8.4785 21.6L9.25559 19.2085L7.22122 17.7306H9.73578L10.5128 15.3391L11.2898 17.7306H13.8043L11.77 19.2085L12.5471 21.6ZM11.77 12.2172L12.5471 14.6087L10.5128 13.1307L8.4785 14.6087L9.25559 12.2172L7.22122 10.7393H9.73578L10.5128 8.34778L11.2898 10.7393H13.8043L11.77 12.2172ZM21.1558 21.6L19.1215 20.122L17.0872 21.6L17.8643 19.2085L15.8299 17.7306H18.3445L19.1215 15.3391L19.8985 17.7306H22.413L20.3787 19.2085L21.1558 21.6ZM20.3787 12.2172L21.1558 14.6087L19.1215 13.1307L17.0872 14.6087L17.8643 12.2172L15.8299 10.7393H18.3445L19.1215 8.34778L19.8985 10.7393H22.413L20.3787 12.2172ZM20.3787 5.22591L21.1558 7.61737L19.1215 6.13941L17.0872 7.61737L17.8643 5.22591L15.8299 3.74794H18.3445L19.1215 1.35647L19.8985 3.74794H22.413L20.3787 5.22591Z" fill="#0052B4"/>
</g>
<defs>
<clipPath id="clip0_10011_1393">
<rect width="48" height="48" fill="white" transform="translate(0.5)"/>
</clipPath>
</defs>
</svg>
