<svg width="21" height="19" viewBox="0 0 21 19" fill="none" xmlns="http://www.w3.org/2000/svg">
<g id="book search">
<path id="Union" fill-rule="evenodd" clip-rule="evenodd" d="M9.25 2.37808C7.13095 0.922278 4.18953 0.259328 1.99433 0.0112717C0.896423 -0.112791 0 0.804023 0 1.93518V13.2C0 14.3311 0.896423 15.2483 1.99433 15.3723C4.18953 15.6204 7.13095 16.2833 9.25 17.7391V2.37808ZM10.75 17.7391C11.4409 17.2645 12.2191 16.8742 13.0305 16.555C13.0103 16.3728 13 16.1876 13 16C13 13.2386 15.2386 11 18 11C18.7111 11 19.3875 11.1484 20 11.416V1.93518C20 0.804023 19.1036 -0.112791 18.0057 0.0112717C15.8105 0.259328 12.869 0.922278 10.75 2.37808V17.7391ZM2.25884 5.13986C2.32223 4.73052 2.70545 4.45008 3.11478 4.51347C4.41756 4.71523 5.88471 5.05247 7.27051 5.58836C7.65684 5.73775 7.84892 6.17205 7.69952 6.55838C7.55012 6.94471 7.11583 7.13679 6.7295 6.98739C5.47085 6.50067 4.11399 6.1861 2.88522 5.9958C2.47588 5.93241 2.19544 5.54919 2.25884 5.13986ZM3.11478 8.51347C2.70545 8.45008 2.32223 8.73052 2.25884 9.13986C2.19544 9.54919 2.47588 9.93241 2.88522 9.9958C3.50446 10.0917 4.15813 10.2195 4.81653 10.3856C5.21815 10.4869 5.62588 10.2435 5.72721 9.84183C5.82854 9.4402 5.5851 9.03247 5.18347 8.93114C4.47447 8.75226 3.77452 8.61565 3.11478 8.51347ZM15.75 15C15.75 14.3096 16.3096 13.75 17 13.75C17.6904 13.75 18.25 14.3096 18.25 15C18.25 15.6904 17.6904 16.25 17 16.25C16.3096 16.25 15.75 15.6904 15.75 15ZM17 12.25C15.4812 12.25 14.25 13.4812 14.25 15C14.25 16.5188 15.4812 17.75 17 17.75C17.4869 17.75 17.9442 17.6235 18.3409 17.4015L18.9697 18.0303C19.2626 18.3232 19.7374 18.3232 20.0303 18.0303C20.3232 17.7374 20.3232 17.2626 20.0303 16.9697L19.4015 16.3409C19.6235 15.9442 19.75 15.4869 19.75 15C19.75 13.4812 18.5188 12.25 17 12.25Z" fill="#045D5E"/>
</g>
</svg>
