<svg width="25" height="24" viewBox="0 0 25 24" fill="none" xmlns="http://www.w3.org/2000/svg">
<path fill-rule="evenodd" clip-rule="evenodd" d="M13.5 2.01558C13.5 1.98928 13.5 1.97612 13.4989 1.95227C13.4753 1.4585 13.041 1.02448 12.5473 1.00112C12.5234 0.999992 12.5156 0.999995 12.5 1H12.5H9.25866H9.25862C8.45369 0.99999 7.78935 0.999981 7.24818 1.0442C6.68608 1.09012 6.16938 1.18869 5.68404 1.43598C4.93139 1.81947 4.31947 2.43139 3.93598 3.18404C3.68869 3.66938 3.59012 4.18608 3.5442 4.74818C3.49998 5.28936 3.49999 5.95372 3.5 6.75867V6.75869V17.2413V17.2413C3.49999 18.0463 3.49998 18.7106 3.5442 19.2518C3.59012 19.8139 3.68869 20.3306 3.93598 20.816C4.31947 21.5686 4.93139 22.1805 5.68404 22.564C6.16938 22.8113 6.68608 22.9099 7.24818 22.9558C7.78937 23 8.45372 23 9.25868 23H15.7413C16.5463 23 17.2106 23 17.7518 22.9558C18.3139 22.9099 18.8306 22.8113 19.316 22.564C20.0686 22.1805 20.6805 21.5686 21.064 20.816C21.3113 20.3306 21.4099 19.8139 21.4558 19.2518C21.5 18.7106 21.5 18.0463 21.5 17.2413V9.99994C21.5 9.98441 21.5 9.97664 21.4989 9.95282C21.4756 9.45899 21.0415 9.02471 20.5477 9.00115C20.5238 9.00001 20.5107 9.00001 20.4845 9.00001L16.0681 9.00001C15.8157 9.00004 15.5699 9.00007 15.3618 8.98307C15.1332 8.96439 14.8634 8.92032 14.592 8.78202C14.2157 8.59028 13.9097 8.28432 13.718 7.90799C13.5797 7.63657 13.5356 7.36683 13.517 7.13824C13.4999 6.93008 13.5 6.68429 13.5 6.43191L13.5 2.01558ZM19.408 6.99999C19.7016 7 19.8484 7 19.9686 6.92627C20.1385 6.82215 20.24 6.57684 20.1935 6.38313C20.1605 6.24598 20.0648 6.15033 19.8733 5.95904L16.541 2.62672C16.3497 2.43523 16.254 2.33949 16.1169 2.30652C15.9232 2.25996 15.6779 2.3615 15.5737 2.53134C15.5 2.65161 15.5 2.79842 15.5 3.09204L15.5 6.19996C15.5 6.47998 15.5 6.61999 15.5545 6.72694C15.6024 6.82102 15.6789 6.89751 15.773 6.94545C15.88 6.99995 16.02 6.99995 16.3 6.99995L19.408 6.99999ZM8.5 9C7.94772 9 7.5 9.44772 7.5 10C7.5 10.5523 7.94772 11 8.5 11H10.5C11.0523 11 11.5 10.5523 11.5 10C11.5 9.44772 11.0523 9 10.5 9H8.5ZM7.5 14C7.5 13.4477 7.94772 13 8.5 13H16.5C17.0523 13 17.5 13.4477 17.5 14C17.5 14.5523 17.0523 15 16.5 15H8.5C7.94772 15 7.5 14.5523 7.5 14ZM7.5 18C7.5 17.4477 7.94772 17 8.5 17H16.5C17.0523 17 17.5 17.4477 17.5 18C17.5 18.5523 17.0523 19 16.5 19H8.5C7.94772 19 7.5 18.5523 7.5 18Z" fill="#045D5E"/>
</svg>
