<svg width="19" height="18" viewBox="0 0 19 18" fill="none" xmlns="http://www.w3.org/2000/svg">
<g id="Component 1/Variant4">
<g id="Solid">
<path fill-rule="evenodd" clip-rule="evenodd" d="M2 15.75C2 15.3358 2.33579 15 2.75 15H16.25C16.6642 15 17 15.3358 17 15.75C17 16.1642 16.6642 16.5 16.25 16.5H2.75C2.33579 16.5 2 16.1642 2 15.75Z" fill="#252525"/>
<path fill-rule="evenodd" clip-rule="evenodd" d="M5 6.74998C5.41421 6.74998 5.75 7.08577 5.75 7.49998V13.5C5.75 13.9142 5.41421 14.25 5 14.25C4.58579 14.25 4.25 13.9142 4.25 13.5V7.49998C4.25 7.08577 4.58579 6.74998 5 6.74998Z" fill="#252525"/>
<path fill-rule="evenodd" clip-rule="evenodd" d="M8 6.74998C8.41421 6.74998 8.75 7.08577 8.75 7.49998V13.5C8.75 13.9142 8.41421 14.25 8 14.25C7.58579 14.25 7.25 13.9142 7.25 13.5V7.49998C7.25 7.08577 7.58579 6.74998 8 6.74998Z" fill="#252525"/>
<path fill-rule="evenodd" clip-rule="evenodd" d="M11 6.74998C11.4142 6.74998 11.75 7.08577 11.75 7.49998V13.5C11.75 13.9142 11.4142 14.25 11 14.25C10.5858 14.25 10.25 13.9142 10.25 13.5V7.49998C10.25 7.08577 10.5858 6.74998 11 6.74998Z" fill="#252525"/>
<path fill-rule="evenodd" clip-rule="evenodd" d="M14 6.74998C14.4142 6.74998 14.75 7.08577 14.75 7.49998V13.5C14.75 13.9142 14.4142 14.25 14 14.25C13.5858 14.25 13.25 13.9142 13.25 13.5V7.49998C13.25 7.08577 13.5858 6.74998 14 6.74998Z" fill="#252525"/>
<path fill-rule="evenodd" clip-rule="evenodd" d="M9.25072 0.845166C9.41481 0.807878 9.58519 0.807878 9.74928 0.845166C9.94415 0.889447 10.1121 0.996777 10.1931 1.04852C10.2015 1.0539 10.209 1.05869 10.2155 1.06273L15.8975 4.61398C16.1812 4.79131 16.3132 5.13513 16.2209 5.45674C16.1287 5.77836 15.8346 5.99998 15.5 5.99998H3.5C3.16542 5.99998 2.8713 5.77836 2.77906 5.45674C2.68682 5.13513 2.81878 4.79131 3.1025 4.61398L8.7845 1.06273C8.79098 1.05869 8.79846 1.0539 8.80688 1.04852C8.88787 0.996778 9.05584 0.889448 9.25072 0.845166Z" fill="#252525"/>
</g>
</g>
</svg>
