<svg width="17" height="17" viewBox="0 0 17 17" fill="none" xmlns="http://www.w3.org/2000/svg">
<g id="copy">
<path id="Icon" d="M3.83325 10.5014H3.16659C2.81296 10.5014 2.47382 10.361 2.22378 10.1109C1.97373 9.86087 1.83325 9.52173 1.83325 9.16811V3.16811C1.83325 2.81449 1.97373 2.47535 2.22378 2.2253C2.47382 1.97525 2.81296 1.83478 3.16659 1.83478H9.16659C9.52021 1.83478 9.85935 1.97525 10.1094 2.2253C10.3594 2.47535 10.4999 2.81449 10.4999 3.16811V3.83478M7.83325 6.50144H13.8333C14.5696 6.50144 15.1666 7.0984 15.1666 7.83478V13.8348C15.1666 14.5712 14.5696 15.1681 13.8333 15.1681H7.83325C7.09687 15.1681 6.49992 14.5712 6.49992 13.8348V7.83478C6.49992 7.0984 7.09687 6.50144 7.83325 6.50144Z" stroke="#076461" stroke-width="1.5" stroke-linecap="round" stroke-linejoin="round"/>
</g>
</svg>
