<svg width="64" height="64" viewBox="0 0 64 64" fill="none" xmlns="http://www.w3.org/2000/svg">
<rect width="64" height="64" rx="32" fill="#F9FDFD"/>
<g clip-path="url(#clip0_10011_289)">
<path d="M32 56C45.2548 56 56 45.2548 56 32C56 18.7452 45.2548 8 32 8C18.7452 8 8 18.7452 8 32C8 45.2548 18.7452 56 32 56Z" fill="#F0F0F0"/>
<path d="M55.9999 32C55.9999 22.485 50.4626 14.2635 42.4347 10.3815V53.6185C50.4626 49.7366 55.9999 41.5151 55.9999 32Z" fill="#D80027"/>
<path d="M8 32C8 41.5151 13.5373 49.7366 21.5653 53.6186V10.3815C13.5373 14.2635 8 22.485 8 32Z" fill="#D80027"/>
<path d="M36.1739 35.1304L40.3478 33.0435L38.2609 32V29.9131L34.087 32L36.1739 27.8261H34.087L32 24.6957L29.913 27.8261H27.8261L29.913 32L25.7391 29.9131V32L23.6522 33.0435L27.8261 35.1304L26.7826 37.2174H30.9566V40.3478H33.0434V37.2174H37.2174L36.1739 35.1304Z" fill="#D80027"/>
</g>
<defs>
<clipPath id="clip0_10011_289">
<rect width="48" height="48" fill="white" transform="translate(8 8)"/>
</clipPath>
</defs>
</svg>
