<svg width="24" height="25" viewBox="0 0 24 25" fill="none" xmlns="http://www.w3.org/2000/svg">
<rect y="0.5" width="24" height="24" rx="12" fill="#FEE3CC"/>
<path d="M13.5 14C13.5 14.4142 13.8358 14.75 14.25 14.75C14.6642 14.75 15 14.4142 15 14C15 13.5858 14.6642 13.25 14.25 13.25C13.8358 13.25 13.5 13.5858 13.5 14Z" stroke="#FC7300"/>
<path d="M13.5019 10.4014C10.7881 10.2134 8.55235 9.81067 7.5 9.5V14.0307C7.5 15.0279 7.5 15.5265 7.80979 15.9332C8.11958 16.3398 8.54462 16.4547 9.39469 16.6844C10.7681 17.0555 12.2118 17.2765 13.5053 17.4029C14.846 17.5339 15.5163 17.5994 16.0082 17.1499C16.5 16.7004 16.5 15.9783 16.5 14.5341V13.5273C16.5 12.1249 16.5 11.4236 16.0964 10.9884C15.6929 10.5532 14.9626 10.5026 13.5019 10.4014Z" stroke="#FC7300" stroke-linecap="round" stroke-linejoin="round"/>
<path d="M14.8129 10.5C15.0017 9.78836 15.1726 8.49411 14.6635 7.85146C14.3408 7.44413 13.8612 7.48327 13.3909 7.52463C10.919 7.74203 9.17272 8.18365 8.19651 8.48368C7.77674 8.6127 7.5 9.02261 7.5 9.48022" stroke="#FC7300" stroke-linejoin="round"/>
</svg>
