<svg width="19" height="18" viewBox="0 0 19 18" fill="none" xmlns="http://www.w3.org/2000/svg">
<g id="compass-03">
<path id="Solid" fill-rule="evenodd" clip-rule="evenodd" d="M9.5 0.75C4.94365 0.75 1.25 4.44365 1.25 9C1.25 13.5563 4.94365 17.25 9.5 17.25C14.0563 17.25 17.75 13.5563 17.75 9C17.75 4.44365 14.0563 0.75 9.5 0.75ZM12.213 6.05954C12.0912 6.01609 11.908 6.07716 11.5416 6.1993L8.1946 7.31496C8.09025 7.34974 8.03807 7.36713 7.99474 7.39677C7.95636 7.42303 7.9232 7.45619 7.89694 7.49457C7.8673 7.5379 7.84991 7.59007 7.81513 7.69443L6.69947 11.0414C6.57733 11.4078 6.51626 11.591 6.55971 11.7129C6.59752 11.8189 6.68095 11.9023 6.78697 11.9401C6.9088 11.9836 7.09201 11.9225 7.45842 11.8004L10.8054 10.6847C10.9097 10.6499 10.9619 10.6325 11.0053 10.6029C11.0436 10.5766 11.0768 10.5435 11.103 10.5051C11.1327 10.4618 11.1501 10.4096 11.1849 10.3052L12.3005 6.95824C12.4227 6.59183 12.4837 6.40863 12.4403 6.2868C12.4025 6.18078 12.319 6.09734 12.213 6.05954Z" fill="#252525"/>
</g>
</svg>
