<svg width="112" height="32" viewBox="0 0 112 32" fill="none" xmlns="http://www.w3.org/2000/svg">
<g id="LIVERPOOL JOHN MOORES UNIVERSITY" clip-path="url(#clip0_10074_1396)">
<path id="Vector" d="M95.2976 25.0301L96.8685 21.879H98.317L95.8902 26.2811V28.896H94.5734V26.2623L92.1654 21.8602H93.7174L95.2882 25.0301H95.2976ZM58.952 21.8602H57.541L60.0431 28.9525H61.4916L64.0501 21.8602H62.6392L60.805 27.4192L58.952 21.8602ZM42.698 21.8602H41.3811V26.0459C41.3811 28.0871 42.2371 29.0841 44.2124 29.0841C46.1877 29.0841 47.0437 28.0871 47.0437 26.0459V21.8602H45.7268V26.0836C45.7268 27.3816 45.2095 27.8613 44.2124 27.8613C43.2153 27.8613 42.7168 27.3816 42.7168 26.0836V21.8602H42.698ZM81.7433 23.9107L82.7968 23.0924C82.2042 22.1329 81.32 21.6626 79.9279 21.6626C78.1689 21.6626 77.2941 22.5656 77.2941 23.7508C77.2941 26.6385 81.3294 25.4157 81.3482 26.9207C81.367 27.5697 80.8685 27.8801 79.9561 27.8801C79.1377 27.8801 78.5451 27.598 78.1219 26.9019L77.1248 27.7579C77.7926 28.7549 78.7897 29.0559 79.8808 29.0559C81.7715 29.0559 82.6933 28.2188 82.7121 26.8361C82.7497 24.1741 78.6768 25.19 78.658 23.7226C78.6392 23.13 79.1189 22.8384 79.9373 22.8384C80.812 22.8384 81.3858 23.2805 81.7338 23.9107M49.7621 21.8602H48.464V28.896H49.7244L49.668 24.0424L52.6122 28.896H53.9102V21.8602H52.6498L52.7062 26.7326L49.7621 21.8602ZM69.7033 28.896V27.7108H66.0349V25.9519H69.3835V24.8043H66.0349V23.0642H69.7033V21.8602H64.7368V28.896H69.7033ZM88.2712 28.896H89.5881V23.0642H91.7515V21.879H86.1266V23.0642H88.29V28.896H88.2712ZM85.2706 21.8602H83.9725V28.896H85.2706V21.8602ZM56.6098 21.8602H55.3117V28.896H56.6098V21.8602ZM76.6075 28.896H74.999L73.4658 26.4316H72.2618V28.896H70.9637V21.8602H73.1083C74.9802 21.8602 76.0901 22.528 76.0901 24.1365C76.0901 25.1147 75.6668 25.8014 74.8297 26.1588L76.6075 28.896ZM73.1648 25.284C74.143 25.284 74.698 24.9548 74.698 24.1365C74.698 23.3181 74.1995 23.0077 73.1836 23.0077H72.2806V25.284H73.1648ZM72.4969 12.1717H70.7192V19.1888H71.9796L71.9231 14.1753L73.5504 18.5774H74.7921L76.4193 14.1753L76.3629 19.1888H77.6233V12.1717H75.9772L74.1995 16.9689L72.4969 12.1717ZM41.3717 19.2829C41.6163 19.3393 41.8702 19.3581 42.1524 19.3581C43.8173 19.3581 44.6169 18.5774 44.6169 16.5268V12.1529H43.3188V16.5268C43.3188 17.8061 42.952 18.1353 42.1148 18.1353C41.8232 18.1353 41.5975 18.0789 41.3905 18.0412V19.2829H41.3717ZM110.545 14.2129L111.599 13.3945C111.006 12.4351 110.122 11.9648 108.73 11.9648C106.971 11.9648 106.096 12.8678 106.096 14.053C106.096 16.9407 110.131 15.7179 110.15 17.2229C110.169 17.8719 109.67 18.1823 108.758 18.1823C107.94 18.1823 107.347 17.9001 106.924 17.2041L105.927 18.06C106.595 19.0571 107.592 19.3581 108.683 19.3581C110.573 19.3581 111.495 18.5209 111.514 17.1382C111.552 14.4763 107.479 15.4921 107.46 14.0248C107.441 13.4322 107.921 13.1406 108.739 13.1406C109.614 13.1406 110.197 13.5827 110.536 14.2129M61.6609 12.1717H60.3629V19.1888H61.6233L61.5669 14.3352L64.511 19.1888H65.8091V12.1717H64.5487L64.6051 17.0442L61.6609 12.1717ZM54.738 12.1717H53.4399V19.1888H54.738V16.1694H57.7574V19.1888H59.0742V12.1717H57.7574V14.9842H54.738V12.1717ZM49.0378 11.9648C50.9284 11.9648 52.3488 12.9995 52.3488 15.6709C52.3488 18.3422 50.9002 19.3581 49.0378 19.3581C47.1754 19.3581 45.7268 18.3234 45.7268 15.6709C45.708 13.0089 47.1565 11.9648 49.0378 11.9648ZM49.0378 18.1635C50.2042 18.1635 50.9849 17.4016 50.9849 15.6615C50.9849 13.9213 50.2042 13.1594 49.0378 13.1594C47.8714 13.1594 47.0719 13.9213 47.0719 15.6615C47.0719 17.4016 47.8526 18.1635 49.0378 18.1635ZM89.3623 11.9648C91.253 11.9648 92.6733 12.9995 92.6733 15.6709C92.6733 18.3422 91.2247 19.3581 89.3623 19.3581C87.4999 19.3581 86.0513 18.3234 86.0513 15.6709C86.0513 13.0183 87.4811 11.9648 89.3623 11.9648ZM89.3623 18.1635C90.5287 18.1635 91.3094 17.4016 91.3094 15.6615C91.3094 13.9213 90.5287 13.1594 89.3623 13.1594C88.1959 13.1594 87.3964 13.9213 87.3964 15.6615C87.3964 17.4016 88.1959 18.1635 89.3623 18.1635ZM81.922 11.9648C83.8126 11.9648 85.233 12.9995 85.233 15.6709C85.233 18.3422 83.7844 19.3581 81.922 19.3581C80.0595 19.3581 78.611 18.3234 78.611 15.6709C78.611 13.0183 80.0595 11.9648 81.922 11.9648ZM81.922 18.1635C83.0883 18.1635 83.8691 17.4016 83.8691 15.6615C83.8691 13.9213 83.0883 13.1594 81.922 13.1594C80.7556 13.1594 79.9561 13.9213 79.9561 15.6615C79.9561 17.4016 80.7556 18.1635 81.922 18.1635ZM105.174 19.1794V17.9942H101.506V16.2352H104.854V15.0877H101.506V13.3475H105.174V12.1623H100.208V19.1794H105.174ZM99.3423 19.1794H97.7339L96.2006 16.7149H94.9966V19.1794H93.6986V12.1623H95.8432C97.715 12.1623 98.825 12.8302 98.825 14.4386C98.825 15.4169 98.4017 16.1035 97.5645 16.461L99.3423 19.1794ZM95.8996 15.5674C96.8779 15.5674 97.4329 15.2382 97.4329 14.4198C97.4329 13.6015 96.9343 13.2911 95.9184 13.2911H95.0154V15.5674H95.8996ZM85.4775 2.25757C87.3682 2.25757 88.7885 3.29226 88.7885 5.96363C88.7885 8.635 87.4905 9.65087 85.6186 9.65087C83.7468 9.65087 82.1383 8.61618 82.1383 5.96363C82.1383 3.31107 83.5869 2.25757 85.4681 2.25757M85.4681 8.45628C86.6345 8.45628 87.4152 7.69437 87.4152 5.95422C87.4152 4.21407 86.6345 3.45216 85.4681 3.45216C84.3018 3.45216 83.5022 4.21407 83.5022 5.95422C83.5022 7.69437 84.2829 8.45628 85.4681 8.45628ZM78.0278 2.25757C79.9184 2.25757 81.3388 3.29226 81.3388 5.96363C81.3388 8.635 79.8902 9.65087 78.0278 9.65087C76.1654 9.65087 74.7168 8.61618 74.7168 5.96363C74.7168 3.31107 76.1654 2.25757 78.0278 2.25757ZM78.0278 8.45628C79.1942 8.45628 79.9749 7.69437 79.9749 5.95422C79.9749 4.21407 79.1942 3.45216 78.0278 3.45216C76.8614 3.45216 76.0619 4.21407 76.0619 5.95422C76.0619 7.69437 76.8614 8.45628 78.0278 8.45628ZM61.1436 9.47215V8.28697H57.4752V6.528H60.8238V5.38044H57.4752V3.64029H61.1436V2.4551H56.1771V9.47215H61.1436ZM50.3264 2.4551H48.9155L51.4176 9.5474H52.8661L55.4246 2.4551H54.0137L52.1795 8.01418L50.3264 2.4551ZM91.1871 2.4551H89.8891V9.47215H94.1877V8.28697H91.1871V2.48332V2.4551ZM42.6792 2.4551H41.3811V9.47215H45.6798V8.28697H42.6792V2.48332V2.4551ZM47.9373 2.4551H46.6392V9.47215H47.9373V2.48332V2.4551ZM68.0102 9.47215H66.4017L64.8685 7.00772H63.6645V9.47215H62.3664V2.48332H64.4922C66.3641 2.48332 67.474 3.15116 67.474 4.75963C67.474 5.73788 67.0507 6.42453 66.2136 6.78197L68.0102 9.50037V9.47215ZM64.5675 5.87897C65.5457 5.87897 66.1007 5.54975 66.1007 4.73141C66.1007 3.91307 65.6022 3.60266 64.5863 3.60266H63.6833V5.87897H64.5675ZM71.0484 2.4551C72.9202 2.4551 74.0301 3.16057 74.0301 4.82547C74.0301 6.3775 73.0519 7.19584 71.1612 7.19584H70.2206V9.49096H68.9226V2.50213H71.0484M71.1236 6.0765C72.1019 6.0765 72.6568 5.72847 72.6568 4.83488C72.6568 3.94129 72.1583 3.61207 71.1424 3.61207H70.2394V6.05769H71.1236M17.8938 12.1341C11.6762 7.91072 11.7327 4.5621 11.6574 3.91307C11.6574 3.91307 7.93256 2.46451 7.93256 2.48332C8.17712 2.9066 9.34349 6.36809 15.2976 11.297C16.9249 12.6515 20.0572 14.909 19.9819 17.1288C19.9443 18.0318 19.22 18.6432 17.9126 18.6432C14.4135 18.6432 12.4287 15.2194 10.4534 11.7202C8.05484 7.42159 5.42109 3.42394 0.774413 1.98479C0.623914 1.94716 0.548664 1.94716 0.511039 2.0036C0.473414 2.06004 0.492226 2.11648 0.680351 2.22935C4.48988 4.65616 6.28647 7.92953 8.23356 11.297C9.45637 13.4228 10.6039 15.4451 12.0995 16.9219C13.7832 18.5868 15.6739 19.4239 18.0066 19.4239C20.3394 19.4239 21.7691 18.4833 21.7691 16.7808C21.7879 14.9466 19.6057 13.2817 17.9032 12.1341M28.4946 15.6332C28.3253 15.5768 28.25 15.5956 28.2124 15.6709C28.1748 15.7461 28.25 15.8402 28.3441 15.8966C30.31 17.2887 31.2318 18.9348 31.2318 20.9478C31.2318 22.5374 30.5075 26.6479 23.4717 31.558C23.2083 31.7273 23.0484 31.8496 23.1236 31.9625C23.1424 32.0001 23.2553 32.0377 23.434 31.9436C28.0243 29.8178 32.7086 25.6509 32.7086 20.7973C32.6898 17.9284 30.1124 16.1882 28.4852 15.6332M36.5557 5.023C36.5557 5.023 35.9631 5.82253 35.2765 6.30225C34.2606 7.00772 33.0002 7.33694 32.6427 5.89778L30.7709 6.18937C30.404 6.63147 30.009 7.11119 29.6798 7.5815C30.8461 8.635 31.6645 10.4316 31.5892 10.5445C31.5704 10.5633 31.514 10.488 31.307 10.3187C30.9402 10.0083 30.009 9.30284 28.8802 8.72906C27.5445 10.5821 26.7168 12.5386 26.2841 14.354C25.8232 16.2823 25.842 18.1165 26.2841 20.1482L25.3999 21.3898C25.0143 19.9601 24.6004 18.2764 24.8826 16.1882C25.193 13.799 26.3594 11.2405 28.3629 8.46568L28.2876 8.42806C26.9896 7.83547 24.0266 6.3775 18.8814 7.31812C18.8814 7.31812 18.7309 7.33694 18.6557 7.35575C18.4675 7.35575 17.5269 6.15175 16.765 5.15469L16.7462 5.13588C16.21 5.15469 16.1912 5.13588 16.1724 5.13588C16.0407 5.06063 15.4481 4.37397 15.4669 4.35516C16.7274 4.92894 17.3952 4.68438 18.3923 4.722C19.1918 4.74082 20.7062 4.96657 21.2048 6.17056C22.0043 6.17056 24.4405 6.18938 26.0772 6.43394C26.1901 6.45275 26.5381 6.528 26.5381 6.528C25.3529 5.625 24.2806 5.05122 23.5375 4.65616C22.2771 4.00713 21.2236 3.32047 20.725 2.19173C18.7403 1.35457 13.7832 1.19467 12.2312 2.65263C12.2312 2.65263 12.2124 2.67144 12.2124 2.65263C8.53455 1.37338 6.98253 0.61148 6.98253 0.592667C6.98253 0.555042 11.9114 0.978323 13.962 0.978323C14.0184 0.978323 18.9096 0.978323 20.6874 1.62735C20.6874 1.62735 20.6999 1.63362 20.725 1.64617C22.1548 3.64969 25.2776 3.63088 29.3882 7.21465C29.7174 6.79137 30.1313 6.33987 30.5169 5.93541L30.7615 3.9695C30.2253 3.95069 29.7644 3.60266 29.6515 3.09472C29.501 2.46451 29.8209 1.68379 30.5734 0.705542C30.8838 0.301074 31.2788 -0.0187378 31.2788 -0.0187378C31.3353 0.517417 31.4858 0.903073 31.6457 1.31695C31.7962 1.72142 32.6051 3.61207 30.9402 3.95069L30.8461 5.57797C31.5892 4.79725 32.4922 3.95069 33.367 3.18879C33.019 2.80313 32.9249 2.24816 33.1413 1.81548C33.4517 1.2417 34.1759 0.893667 35.3988 0.667917C35.8973 0.573855 36.4334 0.592667 36.4334 0.592667C35.7844 1.27932 35.3988 4.40219 33.4893 3.27344C32.6709 4.07297 31.8432 4.97597 31.1377 5.81313L32.7274 5.66263C32.9343 3.9601 34.8156 4.59032 35.2294 4.722C35.5775 4.85369 35.8973 4.96657 36.5651 5.00419M20.1418 5.98244C19.7186 5.67203 18.8062 5.18291 17.5269 5.10766C17.7527 5.54975 18.3264 6.56562 19.2483 6.69731C19.3047 6.6785 20.123 6.58444 20.1324 5.97303" fill="#1D2758"/>
</g>
<defs>
<clipPath id="clip0_10074_1396">
<rect width="111.106" height="32" fill="white" transform="translate(0.5)"/>
</clipPath>
</defs>
</svg>
