<svg width="25" height="24" viewBox="0 0 25 24" fill="none" xmlns="http://www.w3.org/2000/svg">
<g id="home-line">
<path id="Solid" fill-rule="evenodd" clip-rule="evenodd" d="M12.8978 1.33636C12.5555 1.24368 12.1947 1.24368 11.8524 1.33636C11.4551 1.44395 11.1205 1.7066 10.8535 1.91623L10.7789 1.97465L3.91888 7.31012C3.54225 7.6024 3.21044 7.85991 2.96318 8.19421C2.74619 8.48759 2.58454 8.8181 2.48618 9.1695C2.3741 9.56992 2.37455 9.98993 2.37507 10.4667L2.37514 17.8385C2.37512 18.3657 2.37511 18.8204 2.40571 19.195C2.43801 19.5904 2.50933 19.9836 2.70212 20.362C2.98974 20.9264 3.44868 21.3854 4.01317 21.673C4.39155 21.8658 4.78477 21.9371 5.18011 21.9694C5.55468 22 6.00943 22 6.53657 22H18.2137C18.7408 22 19.1956 22 19.5702 21.9694C19.9655 21.9371 20.3587 21.8658 20.7371 21.673C21.3016 21.3854 21.7605 20.9264 22.0482 20.362C22.241 19.9836 22.3123 19.5904 22.3446 19.195C22.3752 18.8204 22.3752 18.3657 22.3751 17.8386L22.3752 10.4667C22.3757 9.98993 22.3762 9.56992 22.2641 9.1695C22.1657 8.8181 22.0041 8.48759 21.7871 8.19421C21.5398 7.8599 21.208 7.6024 20.8314 7.31011L13.9714 1.97465L13.8968 1.91623C13.6297 1.7066 13.2952 1.44395 12.8978 1.33636ZM8.37515 16C7.82287 16 7.37515 16.4477 7.37515 17C7.37515 17.5523 7.82287 18 8.37515 18H16.3752C16.9274 18 17.3752 17.5523 17.3752 17C17.3752 16.4477 16.9274 16 16.3752 16H8.37515Z" fill="#045D5E"/>
</g>
</svg>
