<svg width="33" height="33" viewBox="0 0 33 33" fill="none" xmlns="http://www.w3.org/2000/svg">
<g id="Frame 34564">
<rect x="0.5" y="0.501465" width="32" height="32" rx="16" fill="#076461"/>
<path id="Vector" d="M13.1867 8.55742C12.3355 8.59758 11.7543 8.73342 11.2461 8.9331C10.7202 9.13806 10.2744 9.4131 9.8309 9.85822C9.38738 10.3033 9.11426 10.7494 8.91073 11.2761C8.71377 11.7854 8.58033 12.3672 8.54273 13.2189C8.50513 14.0706 8.49681 14.3443 8.50097 16.5168C8.50513 18.6893 8.51473 18.9616 8.55601 19.8151C8.59665 20.6661 8.73201 21.2472 8.93169 21.7555C9.13698 22.2815 9.4117 22.7271 9.85698 23.1707C10.3023 23.6144 10.748 23.8869 11.276 24.0907C11.7848 24.2874 12.3667 24.4215 13.2183 24.4587C14.0698 24.496 14.3439 24.5047 16.5157 24.5005C18.6876 24.4964 18.961 24.4867 19.8143 24.4463C20.6676 24.4058 21.2457 24.2695 21.7541 24.0707C22.2801 23.865 22.726 23.5907 23.1693 23.1453C23.6127 22.6999 23.8857 22.2535 24.089 21.7264C24.2861 21.2176 24.4201 20.6357 24.457 19.7848C24.4943 18.9309 24.5031 18.6582 24.4989 16.4861C24.4948 14.3139 24.485 14.0416 24.4445 13.1885C24.4041 12.3353 24.2685 11.756 24.069 11.2473C23.8634 10.7214 23.589 10.2761 23.1439 9.83214C22.6988 9.38814 22.2521 9.11534 21.7252 8.91246C21.2161 8.7155 20.6345 8.58126 19.7829 8.54446C18.9314 8.50765 18.6573 8.49821 16.4847 8.50237C14.312 8.50653 14.04 8.51581 13.1867 8.55742ZM13.2802 23.0195C12.5002 22.9856 12.0767 22.856 11.7944 22.7475C11.4207 22.6035 11.1544 22.4295 10.8731 22.1509C10.5919 21.8723 10.4191 21.6051 10.2731 21.2322C10.1635 20.9499 10.0315 20.5269 9.99506 19.7469C9.95538 18.9039 9.94706 18.6507 9.94242 16.5149C9.93778 14.379 9.94594 14.1262 9.9829 13.2829C10.0162 12.5035 10.1466 12.0795 10.2549 11.7974C10.3989 11.4232 10.5723 11.1574 10.8515 10.8763C11.1307 10.5952 11.3971 10.4221 11.7704 10.2761C12.0523 10.1661 12.4754 10.0352 13.2551 9.99806C14.0988 9.95806 14.3516 9.95006 16.4871 9.94542C18.6226 9.94078 18.876 9.94878 19.7201 9.9859C20.4994 10.0198 20.9236 10.1489 21.2053 10.2579C21.5793 10.4019 21.8453 10.5749 22.1265 10.8545C22.4076 11.1342 22.5809 11.3997 22.7268 11.7737C22.837 12.0549 22.9679 12.4777 23.0047 13.2579C23.0449 14.1016 23.054 14.3546 23.0578 16.4899C23.0617 18.6253 23.0541 18.8789 23.0172 19.7219C22.9831 20.5019 22.8538 20.9256 22.7452 21.2082C22.6012 21.5818 22.4276 21.8482 22.1482 22.1291C21.8689 22.4101 21.6028 22.5832 21.2293 22.7291C20.9477 22.8391 20.5242 22.9703 19.7452 23.0074C18.9015 23.0471 18.6487 23.0554 16.5124 23.06C14.376 23.0647 14.124 23.056 13.2803 23.0195M19.802 12.2257C19.8023 12.4156 19.8589 12.6012 19.9647 12.7589C20.0704 12.9166 20.2206 13.0394 20.3961 13.1117C20.5717 13.1841 20.7648 13.2027 20.9509 13.1654C21.1371 13.128 21.308 13.0362 21.442 12.9017C21.5761 12.7672 21.6672 12.596 21.7039 12.4097C21.7406 12.2234 21.7212 12.0304 21.6482 11.8551C21.5752 11.6798 21.4518 11.5301 21.2938 11.4249C21.1357 11.3197 20.9499 11.2638 20.7601 11.2641C20.5055 11.2647 20.2616 11.3662 20.0819 11.5466C19.9022 11.7269 19.8015 11.9712 19.802 12.2257ZM12.3923 16.5094C12.3968 18.7783 14.2394 20.6133 16.5077 20.609C18.776 20.6047 20.6124 18.7622 20.6081 16.4934C20.6037 14.2246 18.7607 12.3891 16.492 12.3936C14.2234 12.3981 12.388 14.241 12.3923 16.5094ZM13.8333 16.5066C13.8323 15.9791 13.9876 15.4632 14.2798 15.0241C14.572 14.585 14.9878 14.2424 15.4746 14.0396C15.9615 13.8368 16.4976 13.7829 17.0151 13.8848C17.5326 13.9866 18.0083 14.2397 18.382 14.6119C18.7556 14.9841 19.0106 15.4588 19.1145 15.9759C19.2184 16.4929 19.1667 17.0292 18.9658 17.5169C18.7649 18.0046 18.4239 18.4218 17.986 18.7157C17.548 19.0095 17.0327 19.167 16.5053 19.168C16.1551 19.1687 15.8082 19.1005 15.4844 18.9671C15.1605 18.8338 14.8661 18.6379 14.618 18.3908C14.3699 18.1436 14.1729 17.85 14.0382 17.5267C13.9036 17.2034 13.834 16.8568 13.8333 16.5066Z" fill="white"/>
</g>
</svg>
