<svg width="24" height="24" viewBox="0 0 24 24" fill="none" xmlns="http://www.w3.org/2000/svg">
<path d="M8.7 12.5625C5.95 12.5625 3.75 10.4375 3.75 7.78125C3.75 5.1582 5.95 3 8.7 3C11.4156 3 13.65 5.1582 13.65 7.78125C13.65 10.4375 11.4156 12.5625 8.7 12.5625ZM11.7594 13.0938C14.3031 13.0938 16.4 15.1191 16.4 17.5762V18.4062C16.4 19.3027 15.6438 20 14.75 20H2.65C1.72188 20 1 19.3027 1 18.4062V17.5762C1 15.1191 3.0625 13.0938 5.60625 13.0938C6.60313 13.0938 7.05 13.625 8.7 13.625C10.3156 13.625 10.7625 13.0938 11.7594 13.0938ZM22.45 10.1719C22.725 10.1719 23 10.4375 23 10.7031V11.2344C23 11.5332 22.725 11.7656 22.45 11.7656H19.975V14.1562C19.975 14.4551 19.7 14.6875 19.425 14.6875H18.875C18.5656 14.6875 18.325 14.4551 18.325 14.1562V11.7656H15.85C15.5406 11.7656 15.3 11.5332 15.3 11.2344V10.7031C15.3 10.4375 15.5406 10.1719 15.85 10.1719H18.325V7.78125C18.325 7.51562 18.5656 7.25 18.875 7.25H19.425C19.7 7.25 19.975 7.51562 19.975 7.78125V10.1719H22.45Z" fill="#045D5E"/>
</svg>
