<svg width="24" height="24" viewBox="0 0 24 24" fill="none" xmlns="http://www.w3.org/2000/svg">
<path d="M11.5 8.70833C13.2391 8.70833 14.65 10.4349 14.65 12.5C14.65 14.599 13.2391 16.2917 11.5 16.2917C9.72812 16.2917 8.35 14.599 8.35 12.5C8.35 10.4349 9.72812 8.70833 11.5 8.70833ZM12.8125 14.3958V13.8542C12.8125 13.7188 12.6812 13.5833 12.55 13.5833H12.025V10.6042C12.025 10.4688 11.8937 10.3333 11.7625 10.3333H11.3031C11.1391 10.3333 10.975 10.401 10.8766 10.5026L10.3516 10.8411C10.2859 10.875 10.2531 10.9766 10.2531 11.0443C10.2531 11.112 10.2531 11.1797 10.2859 11.2135L10.5812 11.6536C10.6141 11.7214 10.7125 11.7891 10.8109 11.7891C10.8438 11.7891 10.9094 11.7552 10.9422 11.7214H10.975V13.5833H10.45C10.2859 13.5833 10.1875 13.7188 10.1875 13.8542V14.3958C10.1875 14.5651 10.2859 14.6667 10.45 14.6667H12.55C12.6812 14.6667 12.8125 14.5651 12.8125 14.3958ZM20.95 6C21.5078 6 22 6.50781 22 7.08333V17.9167C22 18.526 21.5078 19 20.95 19H2.05C1.45937 19 1 18.526 1 17.9167V7.08333C1 6.50781 1.45937 6 2.05 6H20.95ZM20.425 15.2083V9.79167C19.2437 9.79167 18.325 8.84375 18.325 7.625H4.675C4.675 8.84375 3.72344 9.79167 2.575 9.79167V15.2083C3.72344 15.2083 4.675 16.1901 4.675 17.375H18.325C18.325 16.1901 19.2437 15.2083 20.425 15.2083Z" fill="#045D5E"/>
</svg>
