<svg width="24" height="24" viewBox="0 0 24 24" fill="none" xmlns="http://www.w3.org/2000/svg">
<path d="M7.325 6C7.325 7.10714 6.43125 8 5.4 8C4.33438 8 3.475 7.10714 3.475 6C3.475 4.92857 4.33438 4 5.4 4C6.43125 4 7.325 4.92857 7.325 6ZM8.15 9.89286C7.11875 10.8214 6.5 12.2143 6.5 13.7143C6.5 14.9643 6.87813 16.0714 7.6 16.9643V17.7143C7.6 18.3571 7.08437 18.8571 6.5 18.8571H4.3C3.68125 18.8571 3.2 18.3571 3.2 17.7143V16.7857C1.89375 16.1429 1 14.75 1 13.1429C1 10.9643 2.71875 9.14286 4.85 9.14286H5.95C6.74062 9.14286 7.53125 9.42857 8.15 9.89286ZM3.2 11.6429C2.85625 12.0357 2.65 12.5714 2.65 13.1429C2.65 13.75 2.85625 14.2857 3.2 14.6786V11.6429ZM16.4 17.7143V16.9643C17.0875 16.0714 17.5 14.9643 17.5 13.7143C17.5 12.2143 16.8469 10.8214 15.8156 9.89286C16.4344 9.42857 17.225 9.14286 18.05 9.14286H19.15C21.2469 9.14286 23 10.9643 23 13.1429C23 14.75 22.0719 16.1429 20.8 16.7857V17.7143C20.8 18.3571 20.2844 18.8571 19.7 18.8571H17.5C16.8813 18.8571 16.4 18.3571 16.4 17.7143ZM20.8 14.6786C21.1094 14.2857 21.35 13.75 21.35 13.1429C21.35 12.5714 21.1094 12.0357 20.8 11.6429V14.6786ZM20.525 6C20.525 7.10714 19.6313 8 18.6 8C17.5344 8 16.675 7.10714 16.675 6C16.675 4.92857 17.5344 4 18.6 4C19.6313 4 20.525 4.92857 20.525 6ZM9.8 6.28571C9.8 5.03571 10.7625 4 12 4C13.2031 4 14.2 5.03571 14.2 6.28571C14.2 7.57143 13.2031 8.57143 12 8.57143C10.7625 8.57143 9.8 7.57143 9.8 6.28571ZM16.4 13.7143C16.4 15.3214 15.4719 16.7143 14.2 17.3571V18.8571C14.2 19.5 13.6844 20 13.1 20H10.9C10.2812 20 9.8 19.5 9.8 18.8571V17.3571C8.49375 16.7143 7.6 15.3214 7.6 13.7143C7.6 11.5357 9.31875 9.71429 11.45 9.71429H12.55C14.6469 9.71429 16.4 11.5357 16.4 13.7143ZM9.8 15.25V12.2143C9.45625 12.6071 9.25 13.1429 9.25 13.7143C9.25 14.3214 9.45625 14.8571 9.8 15.25ZM14.2 12.2143V15.25C14.5094 14.8214 14.75 14.3214 14.75 13.7143C14.75 13.1429 14.5094 12.6071 14.2 12.2143Z" fill="#045D5E"/>
</svg>
